<svg xmlns="http://www.w3.org/2000/svg" xmlns:xlink="http://www.w3.org/1999/xlink" width="443" height="79" viewBox="0 0 443 79">
  <defs>
    <polygon id="bodystore_logo_rgb_yellow-a" points=".884 .814 283.976 .814 283.976 78.94 .884 78.94"/>
  </defs>
  <g fill="none" fill-rule="evenodd">
    <path fill="#F8E51A" d="M79.925 62.324C79.462 64.957 77.874 66.223 75.339 66.223L64.838 66.223 73.457 17.289C73.904 14.754 75.509 13.389 78.044 13.389L88.573 13.389 79.925 62.324zM102.156 10.272L102.156 10.271C103.048 5.346 99.263.814 94.257.814L75.271.814C68.43.814 62.575 5.726 61.387 12.464L51.353 69.349 51.345 69.397C50.513 74.314 54.302 78.798 59.288 78.798L78.22 78.798C85.06 78.798 90.913 73.889 92.103 67.154L102.156 10.272 102.156 10.272zM319.494 62.324C319.03 64.957 317.443 66.223 314.907 66.223L304.407 66.223 313.026 17.289C313.473 14.754 315.078 13.389 317.612 13.389L328.143 13.389 319.494 62.324zM341.725 10.272L341.725 10.271C342.616 5.346 338.832.814 333.826.814L314.84.814C307.998.814 302.145 5.726 300.956 12.464L290.922 69.349 290.914 69.397C290.081 74.314 293.87 78.798 298.858 78.798L317.788 78.798C324.628 78.798 330.482 73.889 331.672 67.154L341.725 10.272 341.725 10.272zM130.982 62.324C130.518 64.957 128.93 66.223 126.395 66.223L115.895 66.223 125.171 13.389 134.828 13.389C137.333 13.389 139.23 15.652 138.794 18.118L130.982 62.324zM153.213 10.272L153.213 10.271C154.105 5.346 150.32.814 145.314.814L115.472.814C114.985.814 114.567 1.164 114.481 1.645L100.81 78.798 129.277 78.798C136.116 78.798 141.969 73.889 143.16 67.154L153.213 10.272 153.213 10.272z"/>
    <g transform="translate(159)">
      <mask id="bodystore_logo_rgb_yellow-b" fill="#fff">
        <use xlink:href="#bodystore_logo_rgb_yellow-a"/>
      </mask>
      <path fill="#F8E51A" d="M282.281 10.449L283.976.814 247.272.814C246.294.814 245.458 1.516 245.288 2.479L231.826 78.798 266.875 78.798C268.832 78.798 270.507 77.391 270.844 75.464L272.508 65.931 247.096 65.931 250.63 45.951 266.932 45.951C268.892 45.951 270.566 44.536 270.893 42.603L272.467 33.276 252.854 33.276 256.291 13.779 278.314 13.779C280.27 13.779 281.943 12.375 282.281 10.449M48.296 1.015L36.772 1.015C35.303 1.015 33.951 1.815 33.243 3.101L18.132 30.553 14.413 1.015 2.898 1.015C1.643 1.015.694 2.15.916 3.385L8.666 46.636 2.996 79 12.83 79C14.785 79 16.457 77.597 16.797 75.673L21.924 46.636 48.296 1.015" mask="url(#bodystore_logo_rgb_yellow-b)"/>
    </g>
    <path fill="#F8E51A" d="M378.022 17.582L375.318 32.597C374.87 35.132 373.266 36.497 370.731 36.497L361.08 36.497 365.158 13.682 376.231 13.682C378.765 13.682 378.468 15.047 378.022 17.582zM384.654.814L355.851.814C354.873.814 354.037 1.516 353.867 2.479L340.435 78.798 350.297 78.798C352.252 78.798 353.925 77.395 354.264 75.47L358.812 49.364 365.537 49.364 367.252 78.798 378.337 78.798C379.518 78.798 380.445 77.788 380.344 76.612L378.708 48.195C383.748 46.147 386.942 41.858 388.093 35.327L392.584 10.293C393.47 5.353 389.673.814 384.654.814L384.654.814zM295.81.814L258.579.814C257.605.814 256.77 1.512 256.597 2.471L254.574 13.682 267.445 13.682 255.979 78.798 265.858 78.798C267.814 78.798 269.486 77.394 269.825 75.469L280.702 13.682 290.213 13.682C292.176 13.682 293.853 12.267 294.184 10.333L295.81.814M240.899.814L225.672.814C216.605.814 210.775 5.689 209.159 14.852L205.336 36.406C204.996 38.349 206.113 40.253 207.975 40.904L228.959 48.235 226.574 62.032C226.111 64.664 224.523 65.931 221.987 65.931L213.421 65.931 215.196 55.624 203.649 52.558C203.078 52.406 202.501 52.775 202.399 53.356L199.585 69.364C198.729 74.291 202.522 78.798 207.522 78.798L222.839 78.798C232.002 78.798 237.736 73.924 239.351 64.761L243.609 40.323C243.78 39.349 243.22 38.395 242.287 38.071L219.661 30.201 221.935 17.582C222.382 15.047 224.085 13.683 226.522 13.683L235.081 13.683 233.681 21.793 245.281 24.848C245.852 24.998 246.429 24.628 246.529 24.047 246.529 24.047 248.833 10.575 248.847 10.155 249.638 5.265 245.866.814 240.899.814M31.164 50.139C31.611 47.605 32.018 46.24 29.386 46.24L19.082 46.24 15.609 65.93 24.481 65.93C27.015 65.93 28.603 64.665 29.067 62.033L31.164 50.139zM36.905 17.58C37.352 15.046 37.759 13.682 35.127 13.682L24.822 13.682 21.35 33.373 30.221 33.373C32.755 33.373 34.361 32.008 34.791 29.571L36.905 17.58zM47.189 32.788C46.552 36.395 43.439 39.125 39.827 39.71L39.793 39.903C43.198 40.489 45.349 43.219 44.714 46.825L41.551 64.761C39.935 73.925 34.104 78.798 24.94 78.798L0 78.798 13.609 1.646C13.694 1.165 14.112.814 14.601.814L40.125.814C49.288.814 51.967 5.688 50.351 14.851L47.189 32.788 47.189 32.788z"/>
  </g>
</svg>
