<svg width="111" height="25" viewBox="0 0 111 25" fill="none" xmlns="http://www.w3.org/2000/svg">
<path d="M59.3372 2.0769C59.3372 -0.157388 62.1857 0.0221492 62.1857 0.0221492V4.98945H65.6632C65.6632 4.98945 65.8667 7.46313 63.4621 7.46313H62.1857V15.5026C62.1857 15.8816 62.2227 16.2008 62.2967 16.4202C62.3707 16.6596 62.4632 16.8192 62.6112 16.9389C62.7407 17.0586 62.9256 17.1384 63.1106 17.1783C63.3141 17.2182 63.536 17.2381 63.7765 17.2381H66.5696C66.5696 17.2381 66.8841 19.652 64.6829 19.652H62.8886C61.6493 19.652 60.7615 19.3527 60.188 18.7542C59.6146 18.1558 59.3372 17.2581 59.3372 16.0811V2.0769Z" fill="#7D6F6A"/>
<path d="M89.7835 17.2603C90.9673 17.2603 91.8552 16.9411 92.4471 16.3028C93.039 15.6444 93.335 14.7467 93.335 13.5897V10.8766C93.335 9.65974 93.0205 8.74209 92.3731 8.14362C91.7442 7.54515 90.8563 7.24591 89.7465 7.24591C88.5997 7.24591 87.7118 7.54514 87.0829 8.12367C86.454 8.70219 86.1395 9.61984 86.1395 10.8367V13.6495C86.1395 14.9263 86.4725 15.8439 87.1384 16.4225C87.8043 16.981 88.6922 17.2603 89.7835 17.2603ZM89.7835 19.6342C88.8216 19.6342 87.9523 19.5145 87.1569 19.2752C86.3615 19.0358 85.6771 18.6767 85.1222 18.178C84.5488 17.6792 84.1233 17.0608 83.8089 16.3227C83.4944 15.5846 83.3464 14.7068 83.3464 13.7293V10.8567C83.3464 8.92163 83.8829 7.46535 84.9742 6.44795C86.0655 5.43055 87.6378 4.93182 89.7095 4.93182C91.8922 4.93182 93.52 5.43055 94.5743 6.44795C95.6287 7.46535 96.1651 8.94158 96.1651 10.8567V13.7094C96.1651 15.6444 95.5917 17.1007 94.4633 18.1181C93.298 19.1355 91.7442 19.6342 89.7835 19.6342Z" fill="#7D6F6A"/>
<path d="M78.0564 13.5688C78.0564 14.7258 77.7605 15.6435 77.1686 16.2818C76.5766 16.9202 75.6888 17.2394 74.5049 17.2394C73.4136 17.2394 72.5257 16.9601 71.8783 16.3816C71.3419 15.9028 71.0089 15.2046 70.9165 14.267V10.1375C71.0089 9.23983 71.3234 8.56156 71.8228 8.08279C72.4517 7.48432 73.3396 7.20503 74.4864 7.20503C75.5963 7.20503 76.4657 7.50427 77.1131 8.10274C77.742 8.70121 78.0564 9.61886 78.0564 10.8358V13.5688ZM79.2957 6.42702C78.2414 5.40962 76.6136 4.89095 74.4309 4.89095C73.0436 4.89095 71.7488 5.11039 70.9165 5.8485V4.8311V0.0034419C70.9165 0.0034419 68.0679 -0.176095 68.0679 2.05819V4.8311V7.24493V10.5764C68.0679 10.6562 68.0679 10.736 68.0679 10.8158V13.7084C68.0679 14.7059 68.2158 15.5637 68.5303 16.3018C68.8448 17.0399 69.2887 17.6583 69.8436 18.157C70.417 18.6558 71.0829 19.0148 71.8783 19.2542C72.6737 19.4936 73.5431 19.6133 74.5049 19.6133C76.4657 19.6133 78.0194 19.1146 79.1663 18.0972C80.3131 17.0798 80.868 15.6235 80.868 13.6885V10.8158C80.8865 8.9007 80.3501 7.42447 79.2957 6.42702Z" fill="#7D6F6A"/>
<path d="M105.766 12.1717L110.982 5.08984C110.982 5.08984 108.115 4.25199 106.95 5.86786C106.043 7.1047 104.045 9.81776 104.045 9.81776L104.008 9.85766L103.99 9.81776C103.99 9.81776 101.992 7.1047 101.086 5.86786C99.902 4.25199 97.0534 5.08984 97.0534 5.08984L102.27 12.1717L102.307 12.2316L97.0349 19.5928C97.0349 19.5928 99.8095 20.3309 101.16 18.5355C102.51 16.76 103.805 14.825 103.99 14.5656C104.193 14.825 105.488 16.76 106.839 18.5355C108.189 20.3309 110.963 19.5928 110.963 19.5928L105.692 12.2316L105.766 12.1717Z" fill="#7D6F6A"/>
<path d="M11.7433 13.6702C11.5583 13.1515 11.1884 12.6927 10.7444 12.3136C10.7074 12.2937 10.6889 12.2738 10.6519 12.2538C9.02417 11.0369 5.26921 10.3985 3.9559 9.80007C2.36513 9.08191 2.5871 7.86502 4.27036 7.38624C6.61952 6.70798 11.0219 8.02461 11.0219 8.02461C11.0219 8.02461 11.8913 5.89007 10.023 5.3714C8.58023 4.99237 2.5871 3.97496 0.718872 6.78777C-0.834903 9.14175 0.200948 11.4957 3.14202 12.4333C3.62295 12.5929 4.32585 12.7525 5.25072 12.9919C6.28657 13.2712 9.28313 13.73 9.09816 15.3658C8.95018 16.7024 7.78485 16.9817 5.97211 17.1014C5.63916 17.1413 5.23222 17.1413 4.73279 17.1413C2.29114 17.0815 0.552397 16.0441 0.293434 15.8845C0.18245 16.2037 -0.224491 18.0789 1.1998 18.8769C2.64259 19.6748 5.67615 19.9142 7.98832 19.4155C8.7837 19.2958 9.76406 18.817 10.3375 18.3582C10.467 18.2584 10.5779 18.1587 10.6889 18.039C11.8543 16.9019 12.2427 15.2063 11.7433 13.6702Z" fill="#7D6F6A"/>
<path d="M55.748 4.86951C55.748 4.86951 55.3226 4.84956 54.9897 4.84956C51.4382 4.84956 49.2925 6.86441 49.2925 9.93655V19.532H52.2521V10.2557C52.2521 9.1386 52.0671 7.44293 55.2856 7.44293H57.8013C57.8197 7.44293 57.9677 5.00916 55.748 4.86951Z" fill="#7D6F6A"/>
<path d="M31.2396 9.22073C31.2396 7.00639 30.0928 5.8294 28.0396 5.27083C27.5402 5.15114 26.9298 5.01149 26.2269 5.01149C25.8199 5.01149 25.45 5.05139 25.1355 5.11123C24.0997 5.31072 23.2673 5.60996 22.6199 6.08873C22.139 5.72965 21.5285 5.47032 20.8256 5.29077C20.3262 5.17108 19.7158 5.03144 19.0129 5.03144C18.606 5.03144 18.236 5.07134 17.9031 5.13119C15.3874 5.59001 13.9631 6.767 13.9631 9.24068V19.5344C13.9631 19.5344 16.8117 20.053 16.8117 17.8786C16.8117 17.1205 16.8117 9.24068 16.8117 9.24068C16.8117 9.14093 16.8117 9.06114 16.8302 8.96139C16.8302 8.10359 17.8106 7.62481 19.0129 7.62481C20.2337 7.62481 21.1771 8.10359 21.1771 8.96139V8.98134C21.1956 9.06113 21.1956 9.16088 21.1956 9.24068V19.5344C21.1956 19.5344 24.0442 20.053 24.0442 17.8786C24.0442 17.2602 24.0442 9.24068 24.0442 9.24068C24.0442 9.14093 24.0442 9.06114 24.0627 8.96139C24.0627 8.10359 25.0245 7.62481 26.2454 7.62481C27.4477 7.62481 28.4095 8.10359 28.4095 8.96139V8.98134C28.428 9.06113 28.428 9.16088 28.428 9.24068V19.5344C28.428 19.5344 31.2766 20.053 31.2766 17.8786C31.2396 17.1006 31.2396 9.22073 31.2396 9.22073Z" fill="#7D6F6A"/>
<path d="M43.5959 13.4462C43.5959 14.6033 43.3 15.5209 42.708 16.1593C42.1161 16.7977 41.2283 17.1168 40.0444 17.1168C38.9346 17.1168 38.0652 16.8375 37.3993 16.259C36.7334 15.6805 36.4005 14.7629 36.4005 13.4861V10.9725C36.4005 9.75566 36.7149 8.85796 37.3438 8.25949C37.9727 7.68097 38.8606 7.38173 40.0074 7.38173C41.1173 7.38173 42.0051 7.68097 42.6341 8.27944C43.263 8.87791 43.5959 9.79556 43.5959 11.0124V13.4462ZM46.4075 7.06255C46.4075 4.56893 43.5959 5.00781 43.5959 5.00781L43.6144 5.90551C42.708 5.36689 41.5612 4.98786 39.9519 5.04771C37.8802 5.10755 36.308 5.54643 35.2166 6.56383C34.1253 7.58123 33.5889 9.05745 33.5889 10.9925V13.546C33.5889 14.5434 33.7368 15.4012 34.0513 16.1393C34.3658 16.8775 34.8097 17.4959 35.3646 17.9946C35.938 18.4933 36.6224 18.8524 37.3993 19.0918C38.1947 19.3312 39.0641 19.4509 40.0259 19.4509C42.0236 19.4509 42.9855 19.012 43.8734 18.3138C44.5208 19.9695 46.389 19.4908 46.389 19.4908V7.06255H46.4075Z" fill="#7D6F6A"/>
<path d="M16.0163 22.7058H0.182617V25H16.0163V22.7058Z" fill="#E4003A"/>
<path d="M31.8496 22.7058H16.0159V25H31.8496V22.7058Z" fill="#00A4B7"/>
<path d="M47.6652 22.7058H31.8315V25H47.6652V22.7058Z" fill="#F7A600"/>
<path d="M63.4995 22.7058H47.6658V25H63.4995V22.7058Z" fill="#B70738"/>
<path d="M79.3325 22.7058H63.4988V25H79.3325V22.7058Z" fill="#814997"/>
<path d="M95.1667 22.7058H79.333V25H95.1667V22.7058Z" fill="#00ABA0"/>
<path d="M111 22.7058H95.166V25H111V22.7058Z" fill="#EC6725"/>
</svg>
