<svg width="153" height="22" viewBox="0 0 153 22" fill="none" xmlns="http://www.w3.org/2000/svg">
<path d="M7.27458 21.5523C2.58111 21.5523 0.234375 18.9763 0.234375 13.8243C0.234375 11.2617 0.872759 9.30613 2.14953 7.95743C3.4263 6.59974 5.25603 5.9209 7.63873 5.9209C9.38305 5.9209 10.9475 6.26257 12.3322 6.94591L11.1184 10.1288C10.471 9.86809 9.86858 9.65679 9.31112 9.49495C8.75366 9.32412 8.19619 9.2387 7.63873 9.2387C5.4988 9.2387 4.42883 10.7582 4.42883 13.7973C4.42883 16.7465 5.4988 18.221 7.63873 18.221C8.42997 18.221 9.16276 18.1176 9.83711 17.9108C10.5115 17.695 11.1858 17.3624 11.8602 16.9128V20.4329C11.1948 20.8555 10.5205 21.1477 9.83711 21.3096C9.16276 21.4714 8.30859 21.5523 7.27458 21.5523Z" fill="#15577C"/>
<path d="M42.5686 21.2826L41.7728 19.2326H41.6649C40.9726 20.1048 40.2578 20.7117 39.5205 21.0534C38.7922 21.386 37.8391 21.5524 36.6612 21.5524C35.2136 21.5524 34.0717 21.1388 33.2356 20.3116C32.4084 19.4844 31.9948 18.3065 31.9948 16.778C31.9948 15.1775 32.5522 13.9997 33.6671 13.2444C34.7911 12.4801 36.4814 12.0575 38.7382 11.9766L41.3547 11.8957V11.2348C41.3547 9.7063 40.5725 8.94203 39.008 8.94203C37.8031 8.94203 36.387 9.30618 34.7596 10.0345L33.3974 7.25616C35.1327 6.34804 37.0569 5.89398 39.1698 5.89398C41.1929 5.89398 42.7439 6.33455 43.8228 7.2157C44.9018 8.09685 45.4413 9.43656 45.4413 11.2348V21.2826H42.5686ZM41.3547 14.2964L39.7633 14.3503C38.5674 14.3863 37.6773 14.6021 37.0928 14.9977C36.5084 15.3933 36.2162 15.9957 36.2162 16.805C36.2162 17.9648 36.8815 18.5448 38.2123 18.5448C39.1653 18.5448 39.9251 18.2705 40.4916 17.7221C41.067 17.1736 41.3547 16.4453 41.3547 15.5372V14.2964Z" fill="#15577C"/>
<path d="M55.8128 21.5524C51.1193 21.5524 48.7726 18.9764 48.7726 13.8243C48.7726 11.2618 49.4109 9.30618 50.6877 7.95748C51.9645 6.59979 53.7942 5.92095 56.1769 5.92095C57.9212 5.92095 59.4857 6.26262 60.8704 6.94596L59.6566 10.1289C59.0092 9.86814 58.4068 9.65685 57.8493 9.495C57.2918 9.32417 56.7344 9.23875 56.1769 9.23875C54.037 9.23875 52.967 10.7583 52.967 13.7974C52.967 16.7465 54.037 18.2211 56.1769 18.2211C56.9682 18.2211 57.701 18.1177 58.3753 17.9109C59.0497 17.6951 59.724 17.3624 60.3983 16.9128V20.433C59.733 20.8555 59.0586 21.1478 58.3753 21.3096C57.701 21.4714 56.8468 21.5524 55.8128 21.5524Z" fill="#15577C"/>
<path d="M77.8235 21.2826H73.71V12.4756C73.71 10.2997 72.9008 9.21177 71.2824 9.21177C70.1315 9.21177 69.2998 9.6029 68.7873 10.3851C68.2748 11.1674 68.0185 12.4352 68.0185 14.1885V21.2826H63.905V0.296875H68.0185V4.57225C68.0185 4.90493 67.987 5.68718 67.9241 6.91899L67.8297 8.13282H68.0455C68.9626 6.65824 70.4192 5.92095 72.4153 5.92095C74.1866 5.92095 75.5308 6.39749 76.4479 7.35057C77.365 8.30365 77.8235 9.67033 77.8235 11.4506V21.2826Z" fill="#15577C"/>
<path d="M92.5783 16.805C92.5783 18.3515 92.0388 19.5293 90.9599 20.3385C89.8899 21.1478 88.285 21.5524 86.145 21.5524C85.0481 21.5524 84.113 21.4759 83.3397 21.3231C82.5665 21.1792 81.8427 20.9634 81.1683 20.6757V17.277C81.9326 17.6366 82.7912 17.9379 83.7443 18.1806C84.7064 18.4234 85.5516 18.5448 86.2799 18.5448C87.7724 18.5448 88.5187 18.1132 88.5187 17.25C88.5187 16.9263 88.4198 16.6656 88.222 16.4678C88.0242 16.261 87.6825 16.0317 87.197 15.7799C86.7115 15.5192 86.0641 15.218 85.2549 14.8763C84.095 14.3908 83.2408 13.9412 82.6923 13.5276C82.1529 13.114 81.7572 12.642 81.5055 12.1115C81.2627 11.572 81.1413 10.9111 81.1413 10.1289C81.1413 8.78918 81.6583 7.75518 82.6923 7.02688C83.7353 6.28959 85.2099 5.92095 87.1161 5.92095C88.9323 5.92095 90.6991 6.31657 92.4165 7.1078L91.1757 10.0749C90.4204 9.75125 89.7146 9.48601 89.0582 9.27921C88.4018 9.07241 87.732 8.96901 87.0486 8.96901C85.8348 8.96901 85.2279 9.29719 85.2279 9.95356C85.2279 10.3222 85.4212 10.6414 85.8078 10.9111C86.2035 11.1809 87.0621 11.581 88.3839 12.1115C89.5617 12.588 90.4249 13.0331 90.9734 13.4467C91.5218 13.8603 91.9264 14.3368 92.1872 14.8763C92.4479 15.4158 92.5783 16.0587 92.5783 16.805Z" fill="#15577C"/>
<path d="M99.0656 13.7164C99.0656 15.209 99.3083 16.3374 99.7938 17.1017C100.288 17.8659 101.089 18.2481 102.195 18.2481C103.291 18.2481 104.078 17.8704 104.555 17.1152C105.04 16.3509 105.283 15.218 105.283 13.7164C105.283 12.2239 105.04 11.1044 104.555 10.3582C104.069 9.61189 103.273 9.23875 102.168 9.23875C101.071 9.23875 100.279 9.61189 99.7938 10.3582C99.3083 11.0955 99.0656 12.2149 99.0656 13.7164ZM109.491 13.7164C109.491 16.1711 108.844 18.0907 107.549 19.4754C106.254 20.86 104.451 21.5524 102.141 21.5524C100.693 21.5524 99.4162 21.2377 98.3103 20.6083C97.2043 19.9699 96.3547 19.0573 95.7612 17.8704C95.1678 16.6836 94.8711 15.2989 94.8711 13.7164C94.8711 11.2528 95.514 9.33765 96.7997 7.97097C98.0855 6.60429 99.8928 5.92095 102.222 5.92095C103.669 5.92095 104.946 6.23565 106.052 6.86504C107.158 7.49443 108.007 8.39806 108.601 9.57592C109.194 10.7538 109.491 12.134 109.491 13.7164Z" fill="#15577C"/>
<path d="M126.39 21.2826H122.277V12.4756C122.277 11.3877 122.092 10.574 121.724 10.0345C121.364 9.48601 120.793 9.21177 120.011 9.21177C118.959 9.21177 118.195 9.5984 117.718 10.3717C117.242 11.1449 117.003 12.4172 117.003 14.1885V21.2826H112.89V6.20418H116.032L116.585 8.13282H116.814C117.219 7.44048 117.803 6.901 118.568 6.51438C119.332 6.11876 120.209 5.92095 121.198 5.92095C123.455 5.92095 124.983 6.65824 125.783 8.13282H126.147C126.552 7.43149 127.145 6.88752 127.928 6.50089C128.719 6.11426 129.609 5.92095 130.598 5.92095C132.306 5.92095 133.597 6.36152 134.469 7.24267C135.35 8.11483 135.791 9.51748 135.791 11.4506V21.2826H131.664V12.4756C131.664 11.3877 131.479 10.574 131.111 10.0345C130.751 9.48601 130.18 9.21177 129.398 9.21177C128.391 9.21177 127.635 9.57143 127.132 10.2907C126.637 11.01 126.39 12.1519 126.39 13.7164V21.2826Z" fill="#15577C"/>
<path d="M146.27 8.84763C145.398 8.84763 144.715 9.12636 144.22 9.68382C143.725 10.2323 143.442 11.0145 143.37 12.0306H149.143C149.125 11.0145 148.86 10.2323 148.347 9.68382C147.835 9.12636 147.142 8.84763 146.27 8.84763ZM146.85 21.5524C144.422 21.5524 142.525 20.8825 141.158 19.5428C139.792 18.2031 139.108 16.3059 139.108 13.8513C139.108 11.3247 139.738 9.37362 140.997 7.99795C142.264 6.61328 144.013 5.92095 146.243 5.92095C148.374 5.92095 150.033 6.52786 151.22 7.74169C152.407 8.95552 153 10.6324 153 12.7723V14.7684H143.276C143.321 15.9373 143.667 16.8499 144.314 17.5063C144.962 18.1626 145.87 18.4908 147.039 18.4908C147.947 18.4908 148.806 18.3964 149.615 18.2076C150.424 18.0188 151.269 17.7176 152.15 17.304V20.4869C151.431 20.8466 150.662 21.1118 149.844 21.2826C149.026 21.4625 148.028 21.5524 146.85 21.5524Z" fill="#15577C"/>
<path d="M13.9746 13.1952C13.9616 13.3983 13.9551 13.6048 13.9551 13.8148C13.9551 16.1168 14.7254 18.0078 16.266 19.4877C17.8171 20.9676 19.7322 21.7075 22.0114 21.7075C24.2272 21.7075 26.1213 20.9778 27.6935 19.5185C29.2762 18.0592 30.0676 16.1579 30.0676 13.8148C30.0676 11.4716 29.2762 9.57555 27.6935 8.12649C26.1107 6.66716 24.2167 5.9375 22.0114 5.9375C19.7639 5.9375 17.8593 6.67744 16.2976 8.15732C15.8766 8.55356 15.5123 8.98006 15.2047 9.43681H22.2363C24.6888 9.43681 26.677 11.4 26.677 13.8216C26.677 16.2433 24.6888 18.2065 22.2363 18.2065C19.7838 18.2065 17.7956 16.2433 17.7956 13.8216C17.7956 13.609 17.811 13.3998 17.8406 13.1952H13.9746Z" fill="#15577C"/>
<circle cx="22.1826" cy="13.8223" r="1.97125" fill="#D61BA2"/>
</svg>
