<svg width="32" height="32" viewBox="0 0 32 32" fill="none" xmlns="http://www.w3.org/2000/svg">
<path d="M4.0339 16.8863C4.01135 17.2469 4 17.6135 4 17.9864C4 22.0736 5.33857 25.4311 8.0157 28.0587C10.7112 30.6863 14.0394 32 18.0001 32C21.8507 32 25.1421 30.7046 27.8743 28.1134C30.6248 25.5223 32 22.1467 32 17.9864C32 13.826 30.6248 10.4595 27.8743 7.88661C25.1239 5.29554 21.8323 4 18.0001 4C14.0944 4 10.7846 5.3138 8.07071 7.94135C7.33906 8.64489 6.70608 9.40214 6.17161 10.2131H18.3909C22.6529 10.2131 26.1079 13.6987 26.1079 17.9985C26.1079 22.2983 22.6529 25.7839 18.3909 25.7839C14.129 25.7839 10.674 22.2983 10.674 17.9985C10.674 17.6209 10.7007 17.2495 10.7522 16.8863H4.0339Z" fill="#ECF2F7"/>
<path d="M18.5 22C20.433 22 22 20.433 22 18.5C22 16.567 20.433 15 18.5 15C16.567 15 15 16.567 15 18.5C15 20.433 16.567 22 18.5 22Z" fill="#E525B0"/>
</svg>
