<svg width="166" height="24" viewBox="0 0 166 24" fill="none" xmlns="http://www.w3.org/2000/svg">
<path d="M7.65012 23.0969C2.55004 23.0969 0 20.2977 0 14.6993C0 11.9148 0.693689 9.78978 2.08107 8.32424C3.46844 6.84894 5.45669 6.11128 8.04581 6.11128C9.94124 6.11128 11.6413 6.48255 13.1459 7.22509L11.8269 10.6838C11.1234 10.4004 10.4688 10.1708 9.86308 9.99496C9.25732 9.80932 8.65157 9.71651 8.04581 9.71651C5.72049 9.71651 4.55783 11.3677 4.55783 14.67C4.55783 17.8747 5.72049 19.477 8.04581 19.477C8.90559 19.477 9.70187 19.3646 10.4346 19.1399C11.1674 18.9054 11.9002 18.5439 12.6329 18.0554V21.8805C11.9099 22.3397 11.1772 22.6572 10.4346 22.8331C9.70187 23.0089 8.7737 23.0969 7.65012 23.0969Z" fill="white"/>
<path d="M46.0017 22.8038L45.137 20.5762H45.0198C44.2674 21.5239 43.4907 22.1834 42.6896 22.5546C41.8982 22.9161 40.8625 23.0969 39.5826 23.0969C38.0096 23.0969 36.7688 22.6475 35.8601 21.7486C34.9613 20.8497 34.5118 19.5698 34.5118 17.9089C34.5118 16.1698 35.1176 14.8899 36.3291 14.0692C37.5504 13.2387 39.3872 12.7795 41.8395 12.6916L44.6827 12.6036V11.8855C44.6827 10.2246 43.8327 9.39411 42.1326 9.39411C40.8234 9.39411 39.2846 9.7898 37.5162 10.5812L36.036 7.56218C37.9217 6.57539 40.0125 6.08199 42.3085 6.08199C44.5068 6.08199 46.1922 6.56073 47.3646 7.51822C48.5371 8.4757 49.1233 9.93147 49.1233 11.8855V22.8038H46.0017ZM44.6827 15.2123L42.9533 15.2709C41.6539 15.31 40.6866 15.5445 40.0516 15.9744C39.4165 16.4043 39.099 17.0589 39.099 17.9382C39.099 19.1986 39.822 19.8287 41.268 19.8287C42.3036 19.8287 43.1292 19.5308 43.7447 18.9348C44.37 18.3388 44.6827 17.5474 44.6827 16.5606V15.2123Z" fill="white"/>
<path d="M60.3933 23.0969C55.2932 23.0969 52.7431 20.2977 52.7431 14.6994C52.7431 11.9148 53.4368 9.7898 54.8242 8.32426C56.2116 6.84895 58.1998 6.1113 60.789 6.1113C62.6844 6.1113 64.3844 6.48257 65.889 7.22511L64.5701 10.6838C63.8666 10.4004 63.212 10.1708 62.6062 9.99498C62.0005 9.80934 61.3947 9.71653 60.789 9.71653C58.4636 9.71653 57.301 11.3677 57.301 14.67C57.301 17.8747 58.4636 19.477 60.789 19.477C61.6487 19.477 62.445 19.3647 63.1778 19.1399C63.9106 18.9055 64.6433 18.544 65.3761 18.0554V21.8805C64.6531 22.3397 63.9203 22.6572 63.1778 22.8331C62.445 23.009 61.5168 23.0969 60.3933 23.0969Z" fill="white"/>
<path d="M84.3109 22.8038H79.841V13.2338C79.841 10.8694 78.9616 9.68721 77.203 9.68721C75.9524 9.68721 75.0487 10.1122 74.4918 10.9622C73.9348 11.8122 73.6564 13.1899 73.6564 15.0951V22.8038H69.1865V0H73.6564V4.64576C73.6564 5.00726 73.6222 5.85727 73.5538 7.1958L73.4512 8.51478H73.6857C74.6823 6.91246 76.2651 6.1113 78.4341 6.1113C80.3588 6.1113 81.8194 6.62912 82.816 7.66477C83.8126 8.70042 84.3109 10.1855 84.3109 12.12V22.8038Z" fill="white"/>
<path d="M100.344 17.9382C100.344 19.6187 99.7577 20.8986 98.5852 21.7779C97.4226 22.6572 95.6786 23.0969 93.3532 23.0969C92.1613 23.0969 91.1452 23.0139 90.3049 22.8478C89.4647 22.6914 88.6782 22.4569 87.9454 22.1443V18.4511C88.7759 18.842 89.7089 19.1693 90.7446 19.4331C91.79 19.6968 92.7084 19.8287 93.4998 19.8287C95.1217 19.8287 95.9326 19.3598 95.9326 18.4218C95.9326 18.0701 95.8251 17.7868 95.6102 17.5718C95.3952 17.3471 95.024 17.098 94.4964 16.8244C93.9688 16.5411 93.2653 16.2137 92.386 15.8425C91.1256 15.3149 90.1974 14.8264 89.6015 14.3769C89.0152 13.9275 88.5854 13.4146 88.3118 12.8381C88.048 12.2519 87.9161 11.5338 87.9161 10.6838C87.9161 9.22801 88.4779 8.10443 89.6015 7.31304C90.7348 6.51188 92.3371 6.1113 94.4084 6.1113C96.382 6.1113 98.3019 6.54119 100.168 7.40097L98.8197 10.6252C97.999 10.2734 97.232 9.98521 96.5188 9.76049C95.8056 9.53578 95.0777 9.42342 94.3352 9.42342C93.0162 9.42342 92.3567 9.78003 92.3567 10.4933C92.3567 10.8938 92.5667 11.2407 92.9869 11.5338C93.4168 11.8269 94.3498 12.2617 95.786 12.8381C97.0659 13.3559 98.0039 13.8396 98.5999 14.289C99.1959 14.7384 99.6355 15.2563 99.9189 15.8425C100.202 16.4287 100.344 17.1273 100.344 17.9382Z" fill="white"/>
<path d="M107.393 14.5821C107.393 16.204 107.657 17.4301 108.185 18.2606C108.722 19.0911 109.591 19.5063 110.793 19.5063C111.985 19.5063 112.84 19.096 113.358 18.2753C113.885 17.4448 114.149 16.2137 114.149 14.5821C114.149 12.9603 113.885 11.7439 113.358 10.9329C112.83 10.122 111.966 9.71653 110.764 9.71653C109.572 9.71653 108.712 10.122 108.185 10.9329C107.657 11.7341 107.393 12.9505 107.393 14.5821ZM118.722 14.5821C118.722 17.2494 118.018 19.3353 116.611 20.84C115.204 22.3446 113.245 23.0969 110.735 23.0969C109.162 23.0969 107.774 22.7549 106.572 22.071C105.371 21.3773 104.447 20.3857 103.803 19.096C103.158 17.8063 102.835 16.3017 102.835 14.5821C102.835 11.9051 103.534 9.824 104.931 8.33892C106.328 6.85384 108.292 6.1113 110.822 6.1113C112.395 6.1113 113.783 6.45326 114.985 7.13718C116.186 7.82109 117.11 8.80301 117.754 10.0829C118.399 11.3628 118.722 12.8625 118.722 14.5821Z" fill="white"/>
<path d="M137.085 22.8038H132.615V13.2338C132.615 12.0516 132.415 11.1674 132.014 10.5812C131.623 9.98521 131.003 9.68721 130.153 9.68721C129.01 9.68721 128.179 10.1073 127.662 10.9476C127.144 11.7878 126.885 13.1703 126.885 15.0951V22.8038H122.415V6.41906H125.83L126.43 8.51478H126.68C127.119 7.76247 127.754 7.17626 128.585 6.75614C129.415 6.32624 130.368 6.1113 131.443 6.1113C133.895 6.1113 135.556 6.91246 136.425 8.51478H136.821C137.261 7.7527 137.906 7.1616 138.756 6.74148C139.615 6.32136 140.583 6.1113 141.657 6.1113C143.514 6.1113 144.916 6.59004 145.864 7.54753C146.821 8.49524 147.3 10.0194 147.3 12.12V22.8038H142.815V13.2338C142.815 12.0516 142.615 11.1674 142.214 10.5812C141.824 9.98521 141.203 9.68721 140.353 9.68721C139.259 9.68721 138.438 10.078 137.891 10.8596C137.354 11.6413 137.085 12.8821 137.085 14.5821V22.8038Z" fill="white"/>
<path d="M158.687 9.29152C157.739 9.29152 156.997 9.5944 156.459 10.2002C155.922 10.7961 155.614 11.6462 155.536 12.7502H161.809C161.789 11.6462 161.501 10.7961 160.944 10.2002C160.387 9.5944 159.635 9.29152 158.687 9.29152ZM159.317 23.0969C156.679 23.0969 154.618 22.369 153.133 20.9132C151.648 19.4575 150.905 17.396 150.905 14.7287C150.905 11.9832 151.589 9.86308 152.957 8.36823C154.334 6.86361 156.235 6.1113 158.658 6.1113C160.973 6.1113 162.776 6.77079 164.066 8.08978C165.355 9.40876 166 11.2309 166 13.5562V15.7252H155.433C155.482 16.9954 155.858 17.9871 156.562 18.7003C157.265 19.4135 158.252 19.7701 159.522 19.7701C160.509 19.7701 161.442 19.6675 162.322 19.4624C163.201 19.2572 164.119 18.9299 165.077 18.4805V21.9391C164.295 22.3299 163.46 22.6182 162.571 22.8038C161.682 22.9992 160.597 23.0969 159.317 23.0969Z" fill="white"/>
<path d="M14.9306 14.0157C14.9165 14.2364 14.9094 14.4608 14.9094 14.6889C14.9094 17.1904 15.7464 19.2452 17.4204 20.8533C19.1059 22.4614 21.187 23.2654 23.6636 23.2654C26.0714 23.2654 28.1295 22.4725 29.8379 20.8868C31.5578 19.301 32.4177 17.2351 32.4177 14.6889C32.4177 12.1428 31.5578 10.0824 29.8379 8.50786C28.1181 6.9221 26.0599 6.12923 23.6636 6.12923C21.2214 6.12923 19.1518 6.93327 17.4548 8.54136C16.9973 8.97192 16.6015 9.43536 16.2673 9.93168H23.908C26.573 9.93168 28.7334 12.0649 28.7334 14.6964C28.7334 17.3279 26.573 19.4611 23.908 19.4611C21.243 19.4611 19.0826 17.3279 19.0826 14.6964C19.0826 14.4653 19.0993 14.238 19.1315 14.0157H14.9306Z" fill="white"/>
<circle cx="23.8497" cy="14.6973" r="2.14202" fill="#E525B0"/>
</svg>
