<svg id="Layer_1" data-name="Layer 1" xmlns="http://www.w3.org/2000/svg" viewBox="0 0 438.08 663.19"><defs><style>.cls-1{fill:#c0fcfc;}.cls-2{fill:#52717f;}.cls-3{fill:#073e57;}.cls-4{fill:#fabeab;}.cls-5{fill:#fd2d5e;}.cls-6{fill:#fcbeab;}.cls-7{fill:#042f49;}.cls-8{fill:#e6e6e6;}.cls-9{fill:#e7e7eb;}.cls-10{fill:#f3b8a5;}.cls-11{fill:#545c00;}.cls-12{fill:#333711;}.cls-13{fill:#1d2927;}.cls-14{fill:#0c3753;}.cls-15{fill:#fcbfac;}.cls-16{fill:#ddb49f;}.cls-17{fill:#f35f88;}.cls-18{fill:#0bd6d1;}.cls-19{fill:#fdc2aa;}.cls-20{fill:#0a394a;}.cls-21{fill:#567380;}.cls-22{fill:#fff;}.cls-23{fill:#053c55;}.cls-24{fill:#0d3b4b;}</style></defs><title>1</title><path class="cls-1" d="M661.5,206.5s-57-21-49,64c0,0-7,49-48,65,0,0-65,88,18,168,0,0,43,50-20,63,0,0-92-14-52,74,0,0,185,229,276,52C786.5,692.5,1001.5,350.5,661.5,206.5Z" transform="translate(-500.42 -204.2)"/><path class="cls-1" d="M815.5,226.5s-39-26-22,10C793.5,236.5,823.5,260.5,815.5,226.5Z" transform="translate(-500.42 -204.2)"/><polygon class="cls-2" points="49.08 124.3 102.08 124.3 97.08 139.3 36.08 139.3 49.08 124.3"/><polygon class="cls-2" points="19.08 161.3 83.08 161.3 62.08 179.3 0.08 179.3 19.08 161.3"/><path class="cls-3" d="M687.5,311.5s-10-23-8-35l18-3v22Z" transform="translate(-500.42 -204.2)"/><path class="cls-4" d="M684.5,353.5v-46l9-8s-7-8,4-10v-13h20a11.29,11.29,0,0,1,1,10s13,10,14,16c0,0-6,3-8,2a14.63,14.63,0,0,0,3,5s10,10,1,16c0,0-10,3-14,0l2,23Z" transform="translate(-500.42 -204.2)"/><path class="cls-5" d="M679,283s52-3,60-10H715s2.5-17.5-20.5-15.5C694.5,257.5,669.5,257.5,679,283Z" transform="translate(-500.42 -204.2)"/><path class="cls-6" d="M659.5,546.5s9,3,11,7c0,0,6,10-9,8l-8-7Z" transform="translate(-500.42 -204.2)"/><path class="cls-6" d="M658.5,561.5l8,8s-13,10-23,0l-2-10Z" transform="translate(-500.42 -204.2)"/><path class="cls-7" d="M658.5,540.5l6,6s-12,2,0,16c0,0,4,9-24,2,0,0-5-3-5-20Z" transform="translate(-500.42 -204.2)"/><path class="cls-6" d="M630.5,393.5s-48,36-48,58c0,0,25,74,53,97l26-5s-15-65-8-84c0,0,6,3,8-8l-26.59-67.95Z" transform="translate(-500.42 -204.2)"/><path class="cls-8" d="M630.5,389.5s17,47,28,62c0,0,1,5,18-5l-23-72.77S638.5,375.5,630.5,389.5Z" transform="translate(-500.42 -204.2)"/><path class="cls-9" d="M790.37,492.05a35.28,35.28,0,0,0,2.84-28.68l-93.9-52.58L701,438.44Z" transform="translate(-500.42 -204.2)"/><path class="cls-6" d="M729.52,370.16s18-15.12,47.74,9c0,0-6.92-47.81,6.33-67.22l30.87,3.33s47,114.37,18.74,163.08c0,0-88.87-8.39-110.35-44.94Z" transform="translate(-500.42 -204.2)"/><path class="cls-10" d="M780.35,312.39l10.51-22.95-10.5-4.76C755.32,293.08,780.35,312.39,780.35,312.39Z" transform="translate(-500.42 -204.2)"/><path class="cls-11" d="M756.48,282.26s-5.59-4.33,4.08-7.57l156.2-40s13-.65,16.55,27.13c0,0,5.18,48.74-21.15,31.92L880.73,268.5Z" transform="translate(-500.42 -204.2)"/><path class="cls-12" d="M759.38,277.36s-8.67,3.11-2,8.31l154.75,8.07s-17.65-19.94-8.64-44.26Z" transform="translate(-500.42 -204.2)"/><path class="cls-11" d="M729.79,293.38s-5.14-4.85,4.8-7.14L894,261.7s13,.63,13.82,28.62c0,0,.39,49-24.17,29.7L854.8,291.83Z" transform="translate(-500.42 -204.2)"/><path class="cls-12" d="M733.16,288.79s-8.94,2.25-2.77,8.08L883.61,320s-15.62-21.57-4.28-44.9Z" transform="translate(-500.42 -204.2)"/><ellipse class="cls-13" cx="893.35" cy="293.23" rx="11.5" ry="26.5" transform="translate(-508.4 -178.68) rotate(-1.63)"/><ellipse class="cls-13" cx="920.07" cy="265.46" rx="11" ry="25.5" transform="translate(-507.6 -177.93) rotate(-1.63)"/><path class="cls-10" d="M820.5,287.87c2.82-12.29-28.65-14.24-28.65-14.24-6,2.38,1.55,10.67,1.55,10.67l-.86.16L801.1,290l2.74-3.35Z" transform="translate(-500.42 -204.2)"/><path class="cls-14" d="M773.81,302.77s3.13,12.08,8.58,15.49l33.41,1.5s12.1-15.85,4.19-32c0,0-14.49-10.93-28.37-8.45C791.62,279.33,785.86,305.27,773.81,302.77Z" transform="translate(-500.42 -204.2)"/><path class="cls-15" d="M785.12,307.58l20.68,3.25S802.75,281.76,785.12,307.58Z" transform="translate(-500.42 -204.2)"/><path class="cls-16" d="M793.5,389.5s10,2,15,24c0,0-4-14-17-22Z" transform="translate(-500.42 -204.2)"/><path class="cls-17" d="M912.5,811.5l-2,9s5,8,18,5c0,0,9-5,10-10,0,0-17,4-22-4Z" transform="translate(-500.42 -204.2)"/><path class="cls-18" d="M885.5,762.5s14,42,26,53h10l-.88-63.21Z" transform="translate(-500.42 -204.2)"/><path class="cls-6" d="M793.5,635.5s53,25,69,28c0,0-12,58,23,103,0,0,27,4,36-3l-9-115s2-30-32-48l-67.26-30.79L791.5,619.5Z" transform="translate(-500.42 -204.2)"/><path class="cls-17" d="M575.5,646.5s5-10-24-8c0,0-5,5,0,6,0,0,16,3,19,6Z" transform="translate(-500.42 -204.2)"/><path class="cls-18" d="M602.5,653.5s-16-9-28-9l-10,4,23,25Z" transform="translate(-500.42 -204.2)"/><path class="cls-19" d="M701.5,601.5s-34,64-36,78c0,0-10-34-67-29,0,0-12,18-11,23l74,68s79-34,98-101l-19-35Z" transform="translate(-500.42 -204.2)"/><path class="cls-20" d="M724.5,544.5s-35,0-25,60c0,0,54,20,61,36l8-16,25,11s7-42,22-64l-29-23Z" transform="translate(-500.42 -204.2)"/><path class="cls-21" d="M759.88,559.5s-24.81,41.39-29.1,58.69l-6.39-3.12s15.11-46.4,26.11-57.49Z" transform="translate(-500.42 -204.2)"/><path class="cls-22" d="M684.5,343.5h34s27,11,37,23c0,0-29,49-29,73l-19-25s32,74,87,104c0,0,7,16,0,38,0,0-42,12-73-12,0,0-12-63-45-98C676.5,446.5,614.5,375.5,684.5,343.5Z" transform="translate(-500.42 -204.2)"/><path class="cls-23" d="M718.5,292.5l-5-5s1,11,5,12Z" transform="translate(-500.42 -204.2)"/><path class="cls-24" d="M735.8,867s281.88-7,177.43-24c0,0-227.76-26-313.33,0C599.9,843,550.82,871,735.8,867Z" transform="translate(-500.42 -204.2)"/><path class="cls-22" d="M795.46,521.27S795,497,793,488c0,0-61.14-25.29-74.57-52.15L732,496l53,32Z" transform="translate(-500.42 -204.2)"/></svg>