<?xml version="1.0" encoding="utf-8"?>
<!-- Generator: Adobe Illustrator 24.0.0, SVG Export Plug-In . SVG Version: 6.00 Build 0)  -->
<svg version="1.1" id="Layer_1" xmlns="http://www.w3.org/2000/svg" xmlns:xlink="http://www.w3.org/1999/xlink" x="0px" y="0px"
	 viewBox="0 0 1500 1000" style="enable-background:new 0 0 1500 1000;" xml:space="preserve">
<style type="text/css">
	.st0{fill:#D5FCFC;}
	.st1{fill:#4AB3D5;}
	.st2{fill:#2E88C1;}
	.st3{fill:#9DFCFC;}
	.st4{fill:#F59D8B;}
	.st5{fill:#FBBEAC;}
	.st6{fill:#0A3949;}
	.st7{fill:#4E6F7A;}
	.st8{fill:#FFFFFF;}
	.st9{fill:#EBE4E6;}
	.st10{fill:#093C48;}
	.st11{fill:#FF255F;}
	.st12{fill:#07D9DC;}
	.st13{fill:#527580;}
	.st14{fill:#FBBAA0;}
	.st15{fill:#FF2D63;}
	.st16{fill:#FF688B;}
	.st17{fill:#FF7C9D;}
	.st18{fill:#FF668B;}
</style>
<g>
	<path class="st0" d="M490.79,814.17h557.35c0,0,71.23-10.72,49.86-65.68c0,0-24.93-375.34-321.41-471.85
		c0,0-407.78-44.33-456.3,155.45C320.29,432.09,189.85,814.17,490.79,814.17z"/>
	<path class="st1" d="M292.93,717.29c0,0,62.01-133.82,46.78-195.83c0,0-26.65-28.83-60.38-0.54c0,0-34.81-307.89-50.05-62.01
		c0,0-118.58-82.68-34.81,81.6c0,0-94.65-14.14-5.44,82.68C189.03,623.19,96.56,689.55,292.93,717.29z"/>
	<path class="st2" d="M246.15,363.71c0,0,11.97,121.85-8.7,157.75c0,0-6.53,44.61,31.55,41.34c0,0,46.78,3.26,25.02,31.55
		c0,0-41.34,76.16-1.09,122.94c0,0,60.92-144.7,48.96-195.83c0,0-25.02-30.46-62.01,0C279.88,521.47,305.99,399.62,246.15,363.71z"
		/>
	<path class="st3" d="M1062.74,729.14c0,0,57.85,71.01,4.67,90.81c0,0-499.18,53.94-724.05-4.1c0,0-286.45-105.83,187.54-219.85
		C530.9,596,975.96,606.24,1062.74,729.14z"/>
</g>
<g>
	<polygon class="st4" points="731.03,393.95 737.49,388.3 761.71,456.93 752.82,465 730.22,435.13 	"/>
	<polygon class="st4" points="536.05,346.72 537.67,362.06 506.18,379.02 506.18,360.45 	"/>
	<path class="st5" d="M592.7,351c0,0-44.94,0.97-55.44,5.01c0,0-25.83,11.3-28.26,16.15c0,0,7.27-12.11,27.45-17.76l-1.61-35.52
		c0,0-26.64,4.04-30.68,1.61c0,0-27.45,48.44-29.87,64.59c0,0-17.76,46.83,27.45,59.74c0,0,41.17,9.69,74.28,4.04l-1.61-63.78
		l9.69-17.76L592.7,351z"/>
	<path class="st6" d="M708.42,290.87c0,0-8.88-39.82,89.61-12.37c0,0,14.53,17.76,10.5,54.9l-33.1,21.8l-47.63-11.3
		c0,0-12.92-5.65-19.38-31.49l3.23-10.5L708.42,290.87z"/>
	<path class="st6" d="M482.77,288.94c0,0,31.3-29.65,55.64-20.33c0,0,14.78,33.89,0,46.59l-7.82,6.78l-27.82,2.54l-16.52-7.62
		L482.77,288.94z"/>
	<polygon class="st7" points="284.57,294.65 284.57,307.57 988.57,318.87 988.57,305.15 	"/>
	<path class="st5" d="M484.79,288.19c0,0,1.61,22.61,7.27,27.45l8.07-1.61h16.15l17.76-1.61v-1.61h6.46v-25.03l-1.61-1.61
		l-1.61-7.27C537.26,276.89,496.09,278.5,484.79,288.19z"/>
	<path class="st4" d="M514.66,280.93c0,0,1.61,25.03,4.04,27.45h-2.42c0,0-4.84-22.61-3.23-27.45H514.66z"/>
	<path class="st4" d="M495.28,287.38c0,0,1.61,20.18,5.65,23.41h-3.23c0,0-7.27-16.15-4.84-21.8L495.28,287.38z"/>
	<path class="st5" d="M711.65,282.54c0,0,11.3-7.27,24.22-1.61c0,0,10.5-4.84,22.61,1.61c0,0,16.15-4.84,22.61,2.42
		c0,0,6.46-3.23,16.15,0c0,0,6.46,17.76,2.42,33.91h-12.11c0,0-4.84,3.23-16.95,3.23c0,0-7.27,5.65-25.03,4.84
		c0,0-11.3,6.46-25.03,3.23c0,0-8.88-11.3-8.88-21.8l22.61-5.65v-12.92L708.42,289C708.42,289,707.61,286.58,711.65,282.54z"/>
	<path class="st4" d="M757.67,285.77c0,0,0.81,31.49,4.04,36.33l3.23-1.61c0,0-6.46-25.83-3.23-34.72H757.67z"/>
	<path class="st4" d="M780.27,287.38c0,0,0.81,25.03,4.84,28.26h1.61c0,0-6.46-21.8-4.04-28.26H780.27z"/>
	<path class="st4" d="M735.87,285.77c0,0,0,29.06,6.46,36.33l3.23-1.61c0,0-6.46-5.65-6.46-33.1L735.87,285.77z"/>
	<path class="st4" d="M710.84,285.77c0,0-9.69,9.69-4.04,22.61l17.76,2.42l11.3-8.07l-0.81-15.34L710.84,285.77z"/>
	<path class="st5" d="M705.19,377.81c0,0,16.15-0.81,28.26,14.53c0,0,10.5,50.06,21.8,65.39c0,0-16.95-59.74-20.18-67.82
		l-11.3-50.86c0,0,73.47,1.61,86.39-8.88c0,0,4.84,78.31-14.53,125.95c0,0-21.8,58.13-78.31,29.87l-36.33-21.8l8.07-67.01
		L705.19,377.81z"/>
	<path class="st5" d="M656.75,356.01c0,0-19.38-6.46-32.29-6.46l-29.87,3.23l-15.34,51.67l12.11,26.64h43.6l18.57-40.37
		L656.75,356.01z"/>
	<path class="st8" d="M592.97,349.55c0,0-56.51,45.21-19.38,100.11c0,0,46.83,48.44,40.37,81.54c0,0,46.02,6.46,73.47-15.34
		c0,0-17.76-67.01,20.99-138.86c0,0-37.95-24.22-58.94-24.22c0,0-9.69,38.75-31.49,54.9c0,0-22.61,28.26-28.26-16.95
		c0,0,2.42-26.64,12.11-40.37L592.97,349.55z"/>
	<path class="st9" d="M680.97,465c0,0-63.51-12.31-88.27,7.98c0,0,24.49,25.93,21.26,59.03l37.95,8.88l42.79-13.72
		C694.7,527.16,681.78,527.16,680.97,465z"/>
	<path class="st10" d="M485.59,772.6c0,0-94.46,10.5-20.99,26.64c0,0,127.56,16.95,187.3,7.27c0,0,65.39-13.72-41.98-25.83
		C609.93,780.67,493.67,769.37,485.59,772.6z"/>
	<path class="st11" d="M625.26,788.74l-4.04,4.04l-7.27,1.61c0,0-8.07,2.42-0.81,4.04c0,0,12.92,1.61,14.53,0c0,0,5.65,0,4.04-11.3
		L625.26,788.74z"/>
	<path class="st11" d="M500.93,779.06l-2.42,1.61h-14.53c0,0-9.69,3.23-2.42,5.65l24.22,0.81c0,0,5.65,0,6.46-10.5L500.93,779.06z"
		/>
	<path class="st12" d="M605.08,738.69c0,0,4.84,37.14,18.57,51.67l8.88,0.81c0,0,12.92-29.87,8.07-59.74L605.08,738.69z"/>
	<path class="st12" d="M494.48,743.53c0,0,1.61,29.06,5.65,37.14h12.11c0,0,8.07-14.53,11.3-37.14H494.48z"/>
	<polygon class="st4" points="613.15,570.76 621.23,577.22 580.86,632.12 571.17,625.66 	"/>
	<path class="st5" d="M598.78,540.49l-97.04,60.14c0,0-12.92,7.27-12.11,26.64l3.23,118.68l31.49,1.61c0,0,31.49-83.16,7.27-100.92
		l45.21-16.95c0,0,27.45-50.06,42.79-56.51l5.65-7.27L598.78,540.49z"/>
	<path class="st5" d="M622.04,565.92l-42.79,64.59c0,0-7.27,16.95,0,41.98l25.03,71.05c0,0,21.8,0.81,37.95-7.27
		c0,0,10.5-62.17,0-84.77l37.14-29.87l-4.04-29.06l-19.38-36.33l-23.41-6.46L622.04,565.92z"/>
	<path class="st6" d="M617.19,527.97l-20.18,13.72c0,0,19.38,16.15,25.03,30.68l12.92-14.53c0,0,41.17,14.53,37.95,69.43
		c0,0,64.59-10.5,16.15-113.03C689.04,514.25,653.52,533.62,617.19,527.97z"/>
	<path class="st13" d="M676.93,520.18c0,0,20.75,32.68-15.46,60.01l3.37,5.33c0,0,39.54-22.44,17.74-67.64L676.93,520.18z"/>
	<polygon class="st4" points="622.81,344.3 634.55,355.6 618.4,374.11 	"/>
	<path class="st4" d="M606.51,364.89c0,0,0,12.11-3.99,17.76c0,0-1.99,3.23,4.99,1.61c0,0,14.96-8.07,16.95-15.34
		c0,0-1.99-7.27-4.99-8.88L606.51,364.89z"/>
	<path class="st14" d="M597.82,321.29l2.42,8.07v35.52l4.04,4.04h12.92l8.88-12.92l1.61-16.15c0,0,4.04-4.04,0-9.69
		c-4.04-5.65-3.23-3.23-3.23-3.23l-9.69-8.07L597.82,321.29z"/>
	<ellipse class="st6" cx="605.48" cy="338.65" rx="1.21" ry="5.25"/>
	<ellipse class="st6" cx="616.38" cy="338.65" rx="1.61" ry="5.25"/>
	<path class="st4" d="M610.73,340.67c0,0,4.84,4.04,3.23,6.46l-7.27,5.65c0,0-1.61-1.61,0-4.04l2.42-8.07H610.73z"/>
	<polygon class="st6" points="583.28,294.65 590.55,308.37 594.59,306.76 586.51,292.23 	"/>
	<polygon class="st6" points="613.96,287.38 610.73,304.34 613.96,304.34 616.38,289 	"/>
	<polygon class="st6" points="643.03,297.07 627.69,315.64 630.92,317.26 646.26,298.69 	"/>
	<path class="st6" d="M597.01,324.52H618c0,0,2.42,14.53,7.27,5.65l2.42-1.61c0,0,4.04-9.69-13.72-12.92h-16.95
		C597.01,315.64,587.32,318.87,597.01,324.52z"/>
	<path class="st4" d="M504.16,610.32c0,0,4.04,11.3-9.69,13.72c0,0-2.42,2.42,0,3.23c0,0,8.07,1.61,12.92-10.5
		C507.39,616.78,508.2,606.28,504.16,610.32z"/>
	<path class="st4" d="M580.86,636.16c0,0-5.65,13.72,12.92,10.5c0,0,6.46,1.61,2.42,2.42c0,0-8.88,3.23-14.53,0
		C581.67,649.07,573.59,644.23,580.86,636.16z"/>
	<polygon class="st15" points="307.98,220.37 427.47,222.8 429.08,395.57 314.44,395.57 	"/>
	<polygon class="st16" points="346.73,220.37 333.51,395.57 337.49,395.57 352.59,221.28 	"/>
	<polygon class="st17" points="368.53,221.6 369.98,395.57 373.97,395.57 372.55,221.68 	"/>
	<polygon class="st18" points="396.77,222.17 409.3,395.57 413.29,395.57 400.47,222.25 	"/>
	<polygon class="st15" points="844.05,217.15 961.12,228.45 950.62,398.8 837.6,392.34 	"/>
	<polygon class="st18" points="882,222.8 856.32,393.41 860.37,393.41 886.05,221.2 	"/>
	<polygon class="st18" points="903.18,222.85 891.11,395.4 895.72,395.57 907.1,222.85 	"/>
	<polygon class="st18" points="931.97,225.63 931.97,397.73 935.88,397.73 936.09,226.83 	"/>
</g>
</svg>
