<svg width="24" height="24" viewBox="0 0 24 24" fill="none" xmlns="http://www.w3.org/2000/svg">
<path d="M9.00049 6H15.0005" stroke="#49556A" stroke-width="2" stroke-linecap="round" stroke-linejoin="round"/>
<path fill-rule="evenodd" clip-rule="evenodd" d="M15.512 5.14649L18 1.00049H6L8.489 5.14649C8.762 5.60349 8.636 6.19849 8.189 6.48749C4.687 8.74749 1 13.1415 1 17.0975C1 18.3795 1.248 19.3795 1.688 20.1695V20.2205C1.688 20.2055 1.69 20.1905 1.692 20.1765C3.09 22.6785 6.472 23.0005 10.429 23.0005H13.572C18.78 23.0005 23 22.4535 23 17.0975C23 13.1415 19.314 8.74749 15.812 6.48749C15.365 6.19849 15.239 5.60349 15.512 5.14649Z" stroke="#49556A" stroke-width="2" stroke-linecap="round" stroke-linejoin="round"/>
<path d="M7.00049 15H12.0005" stroke="#49556A" stroke-width="2" stroke-linecap="round" stroke-linejoin="round"/>
<path d="M14.0005 11H13.0005C10.7915 11 9.00049 12.791 9.00049 15C9.00049 17.209 10.7915 19 13.0005 19H14.0005" stroke="#49556A" stroke-width="2" stroke-linecap="round" stroke-linejoin="round"/>
</svg>
