<svg width="24" height="23" viewBox="0 0 24 23" fill="none" xmlns="http://www.w3.org/2000/svg">
<path d="M4.5919 21.1171L5.48632 20.6698L5.48632 20.6698L4.5919 21.1171ZM19.4082 21.1171L20.3027 21.5643L20.3027 21.5643L19.4082 21.1171ZM2.03142 9.06673H21.9687V7.06673H2.03142V9.06673ZM21.2667 8.36475V9.00827H23.2667V8.36475H21.2667ZM19.1661 20.2667H4.83407V22.2667H19.1661V20.2667ZM2.7334 9.00827V8.36475H0.733398V9.00827H2.7334ZM5.48632 20.6698C3.67592 17.049 2.7334 13.0565 2.7334 9.00827H0.733398C0.733398 13.3669 1.74821 17.6658 3.69747 21.5643L5.48632 20.6698ZM4.83407 20.2667C5.11029 20.2667 5.3628 20.4228 5.48632 20.6698L3.69747 21.5643C3.91272 21.9948 4.35274 22.2667 4.83407 22.2667V20.2667ZM18.5138 20.6698C18.6373 20.4228 18.8898 20.2667 19.1661 20.2667V22.2667C19.6474 22.2667 20.0874 21.9948 20.3027 21.5643L18.5138 20.6698ZM21.2667 9.00827C21.2667 13.0565 20.3242 17.049 18.5138 20.6698L20.3027 21.5643C22.2519 17.6658 23.2667 13.3669 23.2667 9.00827H21.2667ZM21.9687 9.06673C21.581 9.06673 21.2667 8.75244 21.2667 8.36475H23.2667C23.2667 7.64788 22.6856 7.06673 21.9687 7.06673V9.06673ZM2.03142 7.06673C1.31454 7.06673 0.733398 7.64788 0.733398 8.36475H2.7334C2.7334 8.75244 2.41911 9.06673 2.03142 9.06673V7.06673ZM6.99089 8.58123L11.3909 1.24789L9.6759 0.218903L5.27591 7.55224L6.99089 8.58123ZM12.6092 1.24789L17.0092 8.58123L18.7242 7.55224L14.3242 0.218903L12.6092 1.24789ZM11.0001 10.2667V17.6001H13.0001V10.2667H11.0001ZM8.3334 14.9334H15.6667V12.9334H8.3334V14.9334Z" fill="#49556A"/>
</svg>
