<svg width="24" height="24" viewBox="0 0 24 24" fill="none" xmlns="http://www.w3.org/2000/svg">
<path d="M1.00024 6H15.0002" stroke="#49556A" stroke-width="2" stroke-linecap="round" stroke-linejoin="round"/>
<path d="M1.00024 18H15.0002" stroke="#49556A" stroke-width="2" stroke-linecap="round" stroke-linejoin="round"/>
<path d="M19.0002 6H23.0002" stroke="#49556A" stroke-width="2" stroke-linecap="round" stroke-linejoin="round"/>
<path fill-rule="evenodd" clip-rule="evenodd" d="M6.00024 23H3.00024C1.89624 23 1.00024 22.104 1.00024 21V3C1.00024 1.896 1.89624 1 3.00024 1H6.00024C7.10424 1 8.00024 1.896 8.00024 3V21C8.00024 22.104 7.10424 23 6.00024 23Z" stroke="#49556A" stroke-width="2" stroke-linecap="round" stroke-linejoin="round"/>
<path fill-rule="evenodd" clip-rule="evenodd" d="M13.0002 23H10.0002C8.89624 23 8.00024 22.104 8.00024 21V3C8.00024 1.896 8.89624 1 10.0002 1H13.0002C14.1042 1 15.0002 1.896 15.0002 3V21C15.0002 22.104 14.1042 23 13.0002 23Z" stroke="#49556A" stroke-width="2" stroke-linecap="round" stroke-linejoin="round"/>
<path fill-rule="evenodd" clip-rule="evenodd" d="M21.0002 1C19.8962 1 19.0002 1.896 19.0002 3V20L21.0002 23L23.0002 20V3C23.0002 1.896 22.1042 1 21.0002 1Z" stroke="#49556A" stroke-width="2" stroke-linecap="round" stroke-linejoin="round"/>
</svg>
