<svg width="24" height="24" viewBox="0 0 24 24" fill="none" xmlns="http://www.w3.org/2000/svg">
<path d="M23.0005 7.02249V5.00049C23.0005 3.89549 22.1045 3.00049 21.0005 3.00049H3.00049C1.89649 3.00049 1.00049 3.89549 1.00049 5.00049V20.9995C1.00049 22.1045 1.89649 23.0005 3.00049 23.0005H7.02249" stroke="#49556A" stroke-width="2" stroke-linecap="round" stroke-linejoin="round"/>
<path d="M6.00049 1V6" stroke="#49556A" stroke-width="2" stroke-linecap="round" stroke-linejoin="round"/>
<path d="M18.0005 1V6" stroke="#49556A" stroke-width="2" stroke-linecap="round" stroke-linejoin="round"/>
<path fill-rule="evenodd" clip-rule="evenodd" d="M23.0005 16.5C23.0005 20.09 20.0905 23 16.5005 23C12.9105 23 10.0005 20.09 10.0005 16.5C10.0005 12.91 12.9105 10 16.5005 10C20.0905 10 23.0005 12.91 23.0005 16.5Z" stroke="#49556A" stroke-width="2" stroke-linecap="round" stroke-linejoin="round"/>
<path d="M17.0005 14V17H14.0005" stroke="#49556A" stroke-width="2" stroke-linecap="round" stroke-linejoin="round"/>
</svg>
