<svg width="26" height="24" viewBox="0 0 26 24" fill="none" xmlns="http://www.w3.org/2000/svg">
<path fill-rule="evenodd" clip-rule="evenodd" d="M11.9096 8.94423C11.9096 10.6321 10.6889 11.9998 9.18235 11.9998C7.67581 11.9998 6.45508 10.6321 6.45508 8.94423C6.45508 7.25634 7.67581 5.88867 9.18235 5.88867C10.6889 5.88867 11.9096 7.25634 11.9096 8.94423Z" stroke="#49556A" stroke-width="2" stroke-linecap="round" stroke-linejoin="round"/>
<path d="M5.36377 22.9998V19.9443C5.36377 17.5817 7.07322 15.6665 9.18195 15.6665C11.2907 15.6665 13.0001 17.5817 13.0001 19.9443V22.9998" stroke="#49556A" stroke-width="2" stroke-linecap="round" stroke-linejoin="round"/>
<path d="M16.2729 8.3335H20.6366" stroke="#49556A" stroke-width="2" stroke-linecap="round" stroke-linejoin="round"/>
<path d="M16.2729 13.2222H20.6366" stroke="#49556A" stroke-width="2" stroke-linecap="round" stroke-linejoin="round"/>
<path fill-rule="evenodd" clip-rule="evenodd" d="M22.8187 23H3.18231C1.97794 23 1.00049 21.9049 1.00049 20.5556V3.44444C1.00049 2.09511 1.97794 1 3.18231 1H22.8187C24.023 1 25.0005 2.09511 25.0005 3.44444V20.5556C25.0005 21.9049 24.023 23 22.8187 23Z" stroke="#49556A" stroke-width="2" stroke-linecap="round" stroke-linejoin="round"/>
</svg>
