<svg width="24" height="24" viewBox="0 0 24 24" fill="none" xmlns="http://www.w3.org/2000/svg">
<path d="M7.00043 21.789V12C7.00043 10.895 6.10443 10 5.00043 10H1.19043" stroke="#49556A" stroke-width="2" stroke-linecap="round" stroke-linejoin="round"/>
<path d="M17.0005 2.20996V2.99996V6.38196C17.0005 7.27496 16.2755 7.99996 15.3825 7.99996C15.1315 7.99996 14.8835 7.94096 14.6585 7.82896L13.3425 7.17096C13.1175 7.05896 12.8695 6.99996 12.6185 6.99996C11.7255 6.99996 11.0005 7.72496 11.0005 8.61796V10.382C11.0005 11.275 11.7255 12 12.6185 12H15.3335C16.8065 12 18.0005 13.193 18.0005 14.667C18.0005 15.506 17.6055 16.296 16.9345 16.8C15.0875 18.185 14.0005 20.358 14.0005 22.667V22.81" stroke="#49556A" stroke-width="2" stroke-linecap="round" stroke-linejoin="round"/>
<path fill-rule="evenodd" clip-rule="evenodd" d="M23.0005 12C23.0005 18.075 18.0755 23 12.0005 23C5.92549 23 1.00049 18.075 1.00049 12C1.00049 5.925 5.92549 1 12.0005 1C18.0755 1 23.0005 5.925 23.0005 12Z" stroke="#49556A" stroke-width="2" stroke-linecap="round" stroke-linejoin="round"/>
</svg>
