<svg width="25" height="25" viewBox="0 0 25 25" fill="none" xmlns="http://www.w3.org/2000/svg">
<path d="M12.5 23.2798C18.818 23.2798 24 18.3249 24 12.1399C24 5.95557 18.8181 1 12.5 1C6.18256 1 1 5.95554 1 12.1399C1 18.3249 6.1826 23.2798 12.5 23.2798Z" stroke="#49556A" stroke-width="2"/>
<path d="M9.66569 9.04118C9.66569 9.83999 9.51225 10.5387 9.28616 11.0191C9.04163 11.5386 8.80269 11.6395 8.70736 11.6395C8.61203 11.6395 8.37308 11.5386 8.12855 11.0191C7.90246 10.5387 7.74902 9.83999 7.74902 9.04118C7.74902 8.24237 7.90246 7.54362 8.12855 7.06328C8.37308 6.54376 8.61203 6.44287 8.70736 6.44287C8.80269 6.44287 9.04163 6.54376 9.28616 7.06328C9.51225 7.54362 9.66569 8.24237 9.66569 9.04118Z" fill="#6F8098" stroke="#49556A"/>
<path d="M17.2502 9.04118C17.2502 9.83999 17.0967 10.5387 16.8706 11.0191C16.6261 11.5386 16.3872 11.6395 16.2918 11.6395C16.1965 11.6395 15.9576 11.5386 15.713 11.0191C15.4869 10.5387 15.3335 9.83999 15.3335 9.04118C15.3335 8.24237 15.4869 7.54362 15.713 7.06328C15.9576 6.54376 16.1965 6.44287 16.2918 6.44287C16.3872 6.44287 16.6261 6.54376 16.8706 7.06328C17.0967 7.54362 17.2502 8.24237 17.2502 9.04118Z" fill="#6F8098" stroke="#49556A"/>
<path d="M6.77971 14.3661C6.8747 14.3073 7.02294 14.2947 7.15634 14.3195C8.90045 14.6469 10.3385 14.8913 12.4982 14.8913C14.6581 14.8913 16.0962 14.6469 17.8405 14.3194C17.9734 14.2944 18.1216 14.307 18.2166 14.3659C18.2735 14.4012 18.4149 14.5141 18.4149 14.9546C18.4149 15.8943 17.8439 17.0344 16.7799 17.9568C15.7278 18.8689 14.2382 19.5246 12.4982 19.5246C10.7579 19.5246 9.26834 18.8689 8.21631 17.9568C7.15241 17.0345 6.58154 15.8943 6.58154 14.9546C6.58154 14.5141 6.72286 14.4014 6.77971 14.3661Z" fill="#6F8098" stroke="#49556A"/>
<path d="M16.2132 15.7782C15.4833 16.247 14.3085 16.7101 12.499 16.7101C10.6895 16.7101 9.51472 16.247 8.78486 15.7782C9.67322 15.9059 10.9113 16.0201 12.499 16.0201C14.0867 16.0201 15.3248 15.9059 16.2132 15.7782Z" fill="white" stroke="#49556A"/>
</svg>
