<svg width="22" height="22" viewBox="0 0 22 22" fill="none" xmlns="http://www.w3.org/2000/svg">
<path d="M4.47818 5.71322C4.40633 5.89235 4.34023 6.07374 4.27999 6.2571C4.7909 6.33417 5.34035 6.44207 5.91403 6.58629C6.18974 5.81097 6.59317 5.08719 7.10762 4.4449L11.7477 9.0844L11.4702 9.36185C11.8874 9.72171 12.2775 10.1118 12.6374 10.5289L12.916 10.2525L17.5549 14.8909C16.9129 15.4056 16.1894 15.8093 15.4144 16.0855C15.5586 16.658 15.6654 17.2085 15.7436 17.7171C17.1 17.2749 18.3321 16.5173 19.3387 15.5064C20.1523 14.6936 20.8043 13.7338 21.2601 12.678C21.7942 11.4368 22.0447 10.0922 21.9935 8.742C21.9694 8.09843 21.8771 7.45922 21.7182 6.83511C21.3133 5.2562 20.4917 3.81502 19.3392 2.66226C18.1867 1.50949 16.7456 0.687468 15.1666 0.282125C13.4216 -0.162489 11.5839 -0.0801191 9.88571 0.518834C8.66739 0.951493 7.5551 1.63844 6.62276 2.53404C5.69042 3.42963 4.95937 4.51336 4.47818 5.71322ZM19.8496 6.40353C19.3796 6.77293 18.8108 6.99511 18.2148 7.04213C17.6188 7.08914 17.0222 6.95889 16.5 6.66777L18.7232 4.4449C19.2066 5.04823 19.582 5.71102 19.8496 6.40353ZM15.302 7.86562C16.0263 8.36884 16.8779 8.65749 17.7589 8.69839C18.6399 8.73929 19.5146 8.53078 20.2823 8.09683C20.4162 9.09127 20.347 10.1025 20.0791 11.0695C19.8111 12.0365 19.3498 12.9391 18.7232 13.7228L14.0831 9.0844L15.3031 7.86562H15.302ZM14.1349 6.69749L12.916 7.91627L8.2759 3.27787C9.05964 2.65111 9.96232 2.18972 10.9294 1.92158C11.8965 1.65344 12.9079 1.58411 13.9025 1.71779C13.4685 2.48548 13.26 3.36004 13.3009 4.24094C13.3418 5.12184 13.6305 5.97332 14.1338 6.69749H14.1349ZM15.3318 5.50073C15.0405 4.97841 14.9103 4.38161 14.9575 3.78546C15.0048 3.18931 15.2273 2.62045 15.5971 2.15047C16.2908 2.41911 16.9515 2.79454 17.5549 3.27787L15.3318 5.50073ZM5.45046 12.6295C5.6053 12.4749 5.8152 12.388 6.03405 12.388C6.25289 12.388 6.46279 12.4749 6.61763 12.6295L9.37039 15.382C9.45153 15.4576 9.51661 15.5487 9.56175 15.65C9.60688 15.7513 9.63115 15.8606 9.63311 15.9715C9.63507 16.0824 9.61467 16.1925 9.57313 16.2953C9.5316 16.3981 9.46978 16.4915 9.39136 16.57C9.31294 16.6484 9.21953 16.7102 9.1167 16.7517C9.01387 16.7932 8.90372 16.8136 8.79284 16.8117C8.68196 16.8097 8.5726 16.7855 8.4713 16.7403C8.37 16.6952 8.27883 16.6301 8.20322 16.549L5.45046 13.7966C5.29581 13.6417 5.20894 13.4319 5.20894 13.213C5.20894 12.9942 5.29581 12.7844 5.45046 12.6295ZM0.00990022 9.93105C-0.0227857 9.56283 0.0256937 9.19193 0.151921 8.84449C0.278149 8.49704 0.479053 8.1815 0.740475 7.92011C1.0019 7.65872 1.31747 7.45784 1.66496 7.33163C2.01245 7.20542 2.38339 7.15694 2.75165 7.18963C4.92964 7.35477 8.63155 8.03517 11.2984 10.7017C13.9653 13.3694 14.6469 17.0698 14.8132 19.2486C14.8459 19.6169 14.7974 19.9879 14.6711 20.3354C14.5448 20.683 14.3438 20.9986 14.0822 21.26C13.8207 21.5214 13.505 21.7222 13.1573 21.8484C12.8097 21.9745 12.4386 22.0229 12.0703 21.99C9.89232 21.8249 6.1904 21.1423 3.52353 18.4757C0.85665 15.8091 0.175066 12.1088 0.00990022 9.93105ZM2.62723 8.83558C2.49617 8.82069 2.36345 8.83553 2.23892 8.87899C2.11439 8.92245 2.00126 8.99342 1.90794 9.08662C1.81462 9.17982 1.74351 9.29286 1.69991 9.41732C1.6563 9.54179 1.64131 9.67448 1.65605 9.80554C1.81241 11.8566 2.44775 15.0649 4.6918 17.3087C6.93585 19.5524 10.1445 20.1877 12.1947 20.3429C12.3258 20.3578 12.4585 20.343 12.583 20.2995C12.7076 20.2561 12.8207 20.1851 12.914 20.0919C13.0073 19.9987 13.0784 19.8857 13.1221 19.7612C13.1657 19.6367 13.1806 19.504 13.1659 19.373C13.0095 17.3219 12.3742 14.1147 10.1302 11.8699C7.88611 9.62608 4.67748 8.99082 2.62723 8.83558Z" fill="#49556A"/>
</svg>
