<svg width="24" height="22" viewBox="0 0 24 22" fill="none" xmlns="http://www.w3.org/2000/svg">
<path d="M12.0005 11V21" stroke="#49556A" stroke-width="2" stroke-linecap="round" stroke-linejoin="round"/>
<path d="M3.19449 6C3.06849 5.607 3.00049 5.185 3.00049 4.745C3.00049 2.677 4.51049 1 6.37549 1C9.75049 1 12.0005 5.993 12.0005 5.993" stroke="#49556A" stroke-width="2" stroke-linecap="round" stroke-linejoin="round"/>
<path d="M20.806 6C20.932 5.607 21 5.185 21 4.745C21 2.677 19.49 1 17.625 1C14.25 1 12 5.993 12 5.993" stroke="#49556A" stroke-width="2" stroke-linecap="round" stroke-linejoin="round"/>
<path d="M22.0005 11V19C22.0005 20.104 21.1045 21 20.0005 21H4.00049C2.89649 21 2.00049 20.104 2.00049 19V11" stroke="#49556A" stroke-width="2" stroke-linecap="round" stroke-linejoin="round"/>
<path fill-rule="evenodd" clip-rule="evenodd" d="M1.00049 11H23.0005V6H1.00049V11Z" stroke="#49556A" stroke-width="2" stroke-linecap="round" stroke-linejoin="round"/>
</svg>
