<svg width="22" height="22" viewBox="0 0 22 22" fill="none" xmlns="http://www.w3.org/2000/svg">
<path d="M3.5919 21.1171L4.03911 20.8935L4.03911 20.8934L3.5919 21.1171ZM18.4082 21.1171L18.8554 21.3407V21.3407L18.4082 21.1171ZM1.03142 8.56673H20.9687V7.56673H1.03142V8.56673ZM20.7667 8.36475V9.00827H21.7667V8.36475H20.7667ZM18.1661 20.7667H3.83407V21.7667H18.1661V20.7667ZM1.2334 9.00827V8.36475H0.233398V9.00827H1.2334ZM4.03911 20.8934C2.19399 17.2032 1.2334 13.1341 1.2334 9.00827H0.233398C0.233398 13.2893 1.23014 17.5116 3.14468 21.3407L4.03911 20.8934ZM3.83407 20.7667C3.9209 20.7667 4.00028 20.8158 4.03911 20.8935L3.14468 21.3407C3.27524 21.6018 3.54213 21.7667 3.83407 21.7667V20.7667ZM17.961 20.8934C17.9999 20.8158 18.0792 20.7667 18.1661 20.7667V21.7667C18.458 21.7667 18.7249 21.6018 18.8554 21.3407L17.961 20.8934ZM20.7667 9.00827C20.7667 13.1341 19.8061 17.2032 17.961 20.8934L18.8554 21.3407C20.77 17.5116 21.7667 13.2893 21.7667 9.00827H20.7667ZM20.9687 8.56673C20.8572 8.56673 20.7667 8.4763 20.7667 8.36475H21.7667C21.7667 7.92402 21.4094 7.56673 20.9687 7.56673V8.56673ZM1.03142 7.56673C0.590684 7.56673 0.233398 7.92402 0.233398 8.36475H1.2334C1.2334 8.4763 1.14297 8.56673 1.03142 8.56673V7.56673ZM5.56214 8.32398L9.96214 0.990646L9.10465 0.476151L4.70465 7.80948L5.56214 8.32398ZM12.038 0.990646L16.438 8.32398L17.2955 7.80948L12.8955 0.476151L12.038 0.990646ZM10.5001 10.2667V17.6001H11.5001V10.2667H10.5001ZM7.3334 14.4334H14.6667V13.4334H7.3334V14.4334Z" fill="#49556A"/>
</svg>
