<svg width="19" height="21" viewBox="0 0 19 21" fill="none" xmlns="http://www.w3.org/2000/svg">
<path d="M5.70002 9.49417H4.70002V11.4942H5.70002V9.49417ZM13.3 11.4942H14.3V9.49417H13.3V11.4942ZM5.70002 14.3H4.70002V15.3H5.70002V14.3ZM13.3 14.3V15.3H14.3V14.3H13.3ZM5.70002 5.69664H4.70002V7.69664H5.70002V5.69664ZM13.3 7.69664H14.3V5.69664H13.3V7.69664ZM17.1 5.4333H18.1V5.01909L17.8071 4.72619L17.1 5.4333ZM13.3 1.6333L14.0071 0.926194L13.7142 0.633301H13.3V1.6333ZM5.70002 11.4942H13.3V9.49417H5.70002V11.4942ZM5.70002 15.3H13.3V13.3H5.70002V15.3ZM5.70002 7.69664H13.3V5.69664H5.70002V7.69664ZM15.8334 18.3666H3.16669V20.3666H15.8334V18.3666ZM2.90002 18.1V2.89997H0.900024V18.1H2.90002ZM16.1 5.4333V18.1H18.1V5.4333H16.1ZM3.16669 2.6333H13.3V0.633301H3.16669V2.6333ZM12.5929 2.34041L16.3929 6.14041L17.8071 4.72619L14.0071 0.926194L12.5929 2.34041ZM3.16669 18.3666C3.01942 18.3666 2.90002 18.2472 2.90002 18.1H0.900024C0.900024 19.3518 1.91484 20.3666 3.16669 20.3666V18.3666ZM15.8334 20.3666C17.0852 20.3666 18.1 19.3518 18.1 18.1H16.1C16.1 18.2472 15.9806 18.3666 15.8334 18.3666V20.3666ZM2.90002 2.89997C2.90002 2.75269 3.01942 2.6333 3.16669 2.6333V0.633301C1.91485 0.633301 0.900024 1.64812 0.900024 2.89997H2.90002ZM4.70002 6.69997V14.3H6.70002V6.69997H4.70002ZM8.50002 6.69997V14.3H10.5V6.69997H8.50002ZM12.3 6.69997V14.3H14.3V6.69997H12.3Z" fill="#49556A"/>
</svg>
