<svg width="24" height="24" viewBox="0 0 24 24" fill="none" xmlns="http://www.w3.org/2000/svg">
<path fill-rule="evenodd" clip-rule="evenodd" d="M19.8461 13.561C19.9461 13.056 20.0001 12.534 20.0001 12C20.0001 11.465 19.9461 10.944 19.8461 10.439L21.6521 8.95C22.1551 8.536 22.2841 7.818 21.9591 7.254L21.0901 5.746C20.7641 5.182 20.0791 4.936 19.4701 5.164L17.2721 5.989C16.4921 5.305 15.5821 4.771 14.5801 4.43L14.1951 2.114C14.0881 1.471 13.5331 1 12.8811 1H11.1431C10.4921 1 9.93709 1.471 9.83009 2.114L9.44509 4.43C8.44309 4.771 7.53209 5.305 6.75309 5.989L4.55509 5.164C3.94609 4.936 3.26009 5.182 2.93509 5.746L2.06609 7.254C1.74109 7.818 1.87009 8.536 2.37209 8.95L4.17909 10.439C4.07809 10.944 4.02509 11.465 4.02509 12C4.02509 12.534 4.07809 13.056 4.17909 13.561L2.37209 15.05C1.87009 15.464 1.74109 16.182 2.06609 16.746L2.93509 18.254C3.26009 18.818 3.94609 19.064 4.55509 18.836L6.75309 18.011C7.53209 18.695 8.44309 19.229 9.44509 19.57L9.83009 21.886C9.93709 22.529 10.4921 23 11.1431 23H12.8811C13.5331 23 14.0881 22.529 14.1951 21.886L14.5801 19.57C15.5821 19.228 16.4921 18.695 17.2721 18.011L19.4701 18.836C20.0791 19.064 20.7641 18.818 21.0901 18.254L21.9591 16.746C22.2841 16.182 22.1551 15.464 21.6521 15.05L19.8461 13.561Z" stroke="#49556A" stroke-width="2" stroke-linecap="round" stroke-linejoin="round"/>
<path fill-rule="evenodd" clip-rule="evenodd" d="M15.0122 12C15.0122 13.657 13.6692 15 12.0122 15C10.3562 15 9.01221 13.657 9.01221 12C9.01221 10.343 10.3562 9 12.0122 9C13.6692 9 15.0122 10.343 15.0122 12Z" stroke="#49556A" stroke-width="2" stroke-linecap="round" stroke-linejoin="round"/>
</svg>
