<svg width="24" height="24" viewBox="0 0 24 24" fill="none" xmlns="http://www.w3.org/2000/svg">
<path fill-rule="evenodd" clip-rule="evenodd" d="M9.71793 1.7334L9.5918 2.3739L9.10927 4.71758C8.33781 5.01219 7.6382 5.42995 7.00607 5.92536L4.64766 5.13679L4.01408 4.94039L3.68554 5.50614L2.06193 8.22061L1.7334 8.78645L2.21447 9.2071L4.03901 10.7593C3.97301 11.1653 3.88795 11.5668 3.88795 11.9934C3.88795 12.4199 3.97301 12.8215 4.03901 13.2275L2.21447 14.7797L1.7334 15.2003L2.06193 15.7661L3.68554 18.4806L4.01408 19.0478L4.64766 18.85L7.00607 18.0614C7.6382 18.5568 8.33781 18.9745 9.10927 19.2691L9.5918 21.6128L9.71793 22.2534H14.2807L14.4083 21.6128L14.8894 19.2691C15.6609 18.9745 16.3605 18.5568 16.9926 18.0614L19.351 18.85L19.9846 19.0478L20.3146 18.4806L21.9367 15.7661L22.2667 15.2003L21.7842 14.7797L19.9597 13.2275C20.0271 12.8215 20.1107 12.4199 20.1107 11.9934C20.1107 11.5668 20.0271 11.1653 19.9597 10.7593L21.7842 9.2071L22.2667 8.78645L21.9367 8.22061L20.3146 5.50614L19.9846 4.94039L19.351 5.13679L16.9926 5.92536C16.3605 5.42995 15.6609 5.01219 14.8894 4.71758L14.4083 2.3739L14.2807 1.7334H9.71793Z" stroke="#49556A" stroke-width="2" stroke-linecap="square" stroke-linejoin="round"/>
<path fill-rule="evenodd" clip-rule="evenodd" d="M14.9329 11.9934C14.9329 13.6115 13.6187 14.9248 11.9995 14.9248C10.3803 14.9248 9.06619 13.6115 9.06619 11.9934C9.06619 10.3752 10.3803 9.06199 11.9995 9.06199C13.6187 9.06199 14.9329 10.3752 14.9329 11.9934Z" stroke="#49556A" stroke-width="2" stroke-linecap="square" stroke-linejoin="round"/>
</svg>
