<svg width="24" height="24" viewBox="0 0 24 24" fill="none" xmlns="http://www.w3.org/2000/svg">
<path fill-rule="evenodd" clip-rule="evenodd" d="M22.1702 9H15.1002L12.8802 1.654C12.7542 1.263 12.3992 1 11.9992 1C11.5992 1 11.2442 1.263 11.1182 1.654L8.80816 9H1.86615C0.854155 9 0.854155 10 1.23515 10.382L6.91615 14.636L4.61615 21.741C4.48915 22.134 4.62215 22.566 4.94515 22.813C5.27015 23.059 5.71016 23.063 6.03716 22.822L11.9992 18.437L17.9612 22.822C18.1222 22.94 18.3122 23 18.5002 23C18.6942 23 18.8892 22.938 19.0532 22.813C19.3762 22.566 19.5092 22.134 19.3822 21.741L17.0822 14.636L22.7622 10.382C23.1452 10 23.1452 9 22.1702 9Z" stroke="#49556A" stroke-width="2" stroke-linecap="round" stroke-linejoin="round"/>
</svg>
