<svg width="16" height="24" viewBox="0 0 16 24" fill="none" xmlns="http://www.w3.org/2000/svg">
<path fill-rule="evenodd" clip-rule="evenodd" d="M10.0005 16C10.0005 17.104 9.10449 18 8.00049 18C6.89649 18 6.00049 17.104 6.00049 16C6.00049 14.896 6.89649 14 8.00049 14C9.10449 14 10.0005 14.896 10.0005 16Z" stroke="#49556A" stroke-width="2" stroke-linecap="round" stroke-linejoin="round"/>
<path fill-rule="evenodd" clip-rule="evenodd" d="M15.0005 16C15.0005 19.866 11.8665 23 8.00049 23C4.13449 23 1.00049 19.866 1.00049 16C1.00049 12.134 4.13449 9 8.00049 9C11.8665 9 15.0005 12.134 15.0005 16Z" stroke="#49556A" stroke-width="2" stroke-linecap="round" stroke-linejoin="round"/>
<path d="M3.00049 11V6C3.00049 3.238 5.23849 1 8.00049 1C9.63649 1 11.0885 1.785 12.0005 3" stroke="#49556A" stroke-width="2" stroke-linecap="round" stroke-linejoin="round"/>
</svg>
