<svg width="21" height="22" viewBox="0 0 21 22" fill="none" xmlns="http://www.w3.org/2000/svg">
<path fill-rule="evenodd" clip-rule="evenodd" d="M10.7331 1.42981C11.6486 0.514318 12.8903 0 14.185 0C16.8811 0 19.0667 2.18561 19.0667 4.88169C19.0667 6.1764 18.5523 7.41808 17.6369 8.33357L9.19272 16.7777C8.66621 17.3042 7.95211 17.6 7.20751 17.6C5.65697 17.6 4.4 16.343 4.4 14.7925C4.4 14.0479 4.69579 13.3338 5.2223 12.8073L13.4148 4.61479L14.4519 5.65188L6.25939 13.8444C6.00793 14.0958 5.86667 14.4369 5.86667 14.7925C5.86667 15.533 6.46698 16.1333 7.20751 16.1333C7.56313 16.1333 7.90418 15.9921 8.15563 15.7406L16.5998 7.29648C17.2402 6.65604 17.6 5.78742 17.6 4.88169C17.6 2.99563 16.071 1.46667 14.185 1.46667C13.2793 1.46667 12.4106 1.82646 11.7702 2.4669L3.07442 11.1627C2.04499 12.1921 1.46667 13.5883 1.46667 15.0441C1.46667 18.0757 3.92427 20.5333 6.95587 20.5333C8.4117 20.5333 9.8079 19.955 10.8373 18.9256L19.2815 10.4815L20.3185 11.5185L11.8744 19.9627C10.5699 21.2672 8.80068 22 6.95587 22C3.11425 22 0 18.8857 0 15.0441C0 13.1993 0.732849 11.4301 2.03733 10.1256L10.7331 1.42981Z" fill="#15577C"/>
</svg>
