<svg width="13" height="13" viewBox="0 0 13 13" fill="none" xmlns="http://www.w3.org/2000/svg">
<path d="M5.00024 3.5H8.00024" stroke="#15577C" stroke-linecap="round" stroke-linejoin="round"/>
<path fill-rule="evenodd" clip-rule="evenodd" d="M8.256 3.073L9.5 1H3.5L4.7445 3.073C4.881 3.3015 4.818 3.599 4.5945 3.7435C2.8435 4.8735 1 7.0705 1 9.0485C1 9.6895 1.124 10.1895 1.344 10.5845V10.61C1.344 10.6025 1.345 10.595 1.346 10.588C2.045 11.839 3.736 12 5.7145 12H7.286C9.89 12 12 11.7265 12 9.0485C12 7.0705 10.157 4.8735 8.406 3.7435C8.1825 3.599 8.1195 3.3015 8.256 3.073Z" stroke="#15577C" stroke-linecap="round" stroke-linejoin="round"/>
<path d="M6.50024 6.5V5.75" stroke="#15577C" stroke-linecap="round" stroke-linejoin="round"/>
<path d="M6.50024 10.25V9.5" stroke="#15577C" stroke-linecap="round" stroke-linejoin="round"/>
<path d="M7.25024 6.5H6.25024C5.83624 6.5 5.50024 6.8355 5.50024 7.25C5.50024 7.6645 5.83624 8 6.25024 8H6.75024C7.16424 8 7.50024 8.3355 7.50024 8.75C7.50024 9.1645 7.16424 9.5 6.75024 9.5H5.50024" stroke="#15577C" stroke-linecap="round" stroke-linejoin="round"/>
</svg>
