<svg width="18" height="15" viewBox="0 0 18 15" fill="none" xmlns="http://www.w3.org/2000/svg">
<path d="M9.00024 5.36337V4.27246" stroke="#15577C" stroke-linecap="round" stroke-linejoin="round"/>
<path d="M9.00024 10.8184V9.72754" stroke="#15577C" stroke-linecap="round" stroke-linejoin="round"/>
<path d="M10.0911 5.36328H8.63656C8.03438 5.36328 7.54565 5.85128 7.54565 6.45419C7.54565 7.0571 8.03438 7.5451 8.63656 7.5451H9.36384C9.96602 7.5451 10.4547 8.0331 10.4547 8.63601C10.4547 9.23892 9.96602 9.72692 9.36384 9.72692H7.54565" stroke="#15577C" stroke-linecap="round" stroke-linejoin="round"/>
<path fill-rule="evenodd" clip-rule="evenodd" d="M15.9745 1.13314C11.6764 0.314962 6.07564 3.57387 1.81891 2.62114C1.39927 2.52733 1 2.8306 1 3.25314V12.6837C1 13.2902 1.41891 13.8422 2.02545 13.9579C6.32509 14.7761 11.9265 11.5179 16.1811 12.4699C16.6007 12.5637 17 12.2604 17 11.8379V2.4066C17 1.83787 16.5433 1.24151 15.9745 1.13314Z" stroke="#15577C" stroke-linecap="round" stroke-linejoin="round"/>
</svg>
