<svg width="16" height="16" viewBox="0 0 16 16" fill="none" xmlns="http://www.w3.org/2000/svg">
<path fill-rule="evenodd" clip-rule="evenodd" d="M3.5 1.33366C3.5 0.69085 4.02386 0.166992 4.66667 0.166992C5.30948 0.166992 5.83333 0.69085 5.83333 1.33366V1.50033H10.1667V1.33366C10.1667 0.69085 10.6905 0.166992 11.3333 0.166992C11.9761 0.166992 12.5 0.69085 12.5 1.33366V1.50033H12.6667C13.6761 1.50033 14.5 2.32418 14.5 3.33366V12.667C14.5 13.6765 13.6761 14.5003 12.6667 14.5003H3.33333C2.32386 14.5003 1.5 13.6765 1.5 12.667V3.33366C1.5 2.32581 2.31556 1.50033 3.33333 1.50033H3.5V1.33366ZM4.66667 1.16699C4.57614 1.16699 4.5 1.24313 4.5 1.33366V2.00033V2.50033H4H3.33333C2.8711 2.50033 2.5 2.87484 2.5 3.33366V12.667C2.5 13.1242 2.87614 13.5003 3.33333 13.5003H12.6667C13.1239 13.5003 13.5 13.1242 13.5 12.667V3.33366C13.5 2.87647 13.1239 2.50033 12.6667 2.50033H12H11.5V2.00033V1.33366C11.5 1.24313 11.4239 1.16699 11.3333 1.16699C11.2428 1.16699 11.1667 1.24313 11.1667 1.33366V2.00033V2.50033H10.6667H5.33333H4.83333V2.00033V1.33366C4.83333 1.24313 4.75719 1.16699 4.66667 1.16699ZM8 4.50033C7.16948 4.50033 6.5 5.1698 6.5 6.00033C6.5 6.83085 7.16948 7.50033 8 7.50033C8.83052 7.50033 9.5 6.83085 9.5 6.00033C9.5 5.1698 8.83052 4.50033 8 4.50033ZM5.5 6.00033C5.5 4.61752 6.61719 3.50033 8 3.50033C9.38281 3.50033 10.5 4.61752 10.5 6.00033C10.5 7.38313 9.38281 8.50033 8 8.50033C6.61719 8.50033 5.5 7.38313 5.5 6.00033ZM4.78114 10.8114C4.57253 11.0088 4.5 11.1821 4.5 11.3337V11.5003H11.5V11.3337C11.5 11.1821 11.4275 11.0088 11.2189 10.8114C11.0078 10.6117 10.6924 10.4235 10.3064 10.2613C9.53236 9.93623 8.59805 9.76699 8 9.76699C7.40195 9.76699 6.46764 9.93623 5.69362 10.2613C5.30758 10.4235 4.99222 10.6117 4.78114 10.8114ZM5.30638 9.33933C6.19903 8.96442 7.26471 8.76699 8 8.76699C8.73529 8.76699 9.80097 8.96442 10.6936 9.33933C11.1409 9.5272 11.5756 9.77226 11.9061 10.085C12.2392 10.4002 12.5 10.8186 12.5 11.3337V12.0003V12.5003H12H4H3.5V12.0003V11.3337C3.5 10.8186 3.7608 10.4002 4.09386 10.085C4.42445 9.77226 4.85909 9.5272 5.30638 9.33933Z" fill="#15577C"/>
</svg>
