<svg width="25" height="25" viewBox="0 0 25 25" fill="none" xmlns="http://www.w3.org/2000/svg">
<path d="M12.5 23.2798C18.818 23.2798 24 18.3249 24 12.1399C24 5.95557 18.8181 1 12.5 1C6.18256 1 1 5.95554 1 12.1399C1 18.3249 6.1826 23.2798 12.5 23.2798Z" stroke="#15577C" stroke-width="2"/>
<path d="M9.66569 9.04118C9.66569 9.83999 9.51225 10.5387 9.28616 11.0191C9.04163 11.5386 8.80269 11.6395 8.70736 11.6395C8.61203 11.6395 8.37308 11.5386 8.12855 11.0191C7.90246 10.5387 7.74902 9.83999 7.74902 9.04118C7.74902 8.24237 7.90246 7.54362 8.12855 7.06328C8.37308 6.54376 8.61203 6.44287 8.70736 6.44287C8.80269 6.44287 9.04163 6.54376 9.28616 7.06328C9.51225 7.54362 9.66569 8.24237 9.66569 9.04118Z" fill="#6F8098" stroke="#15577C"/>
<path d="M17.2507 9.04118C17.2507 9.83999 17.0972 10.5387 16.8711 11.0191C16.6266 11.5386 16.3876 11.6395 16.2923 11.6395C16.197 11.6395 15.958 11.5386 15.7135 11.0191C15.4874 10.5387 15.334 9.83999 15.334 9.04118C15.334 8.24237 15.4874 7.54362 15.7135 7.06328C15.958 6.54376 16.197 6.44287 16.2923 6.44287C16.3876 6.44287 16.6266 6.54376 16.8711 7.06328C17.0972 7.54362 17.2507 8.24237 17.2507 9.04118Z" fill="#6F8098" stroke="#15577C"/>
<path d="M6.7802 14.3659C6.87519 14.307 7.02343 14.2944 7.15683 14.3192C8.90094 14.6467 10.339 14.8911 12.4987 14.8911C14.6585 14.8911 16.0967 14.6466 17.841 14.3191C17.9739 14.2942 18.1221 14.3067 18.2171 14.3656C18.274 14.4009 18.4154 14.5138 18.4154 14.9544C18.4154 15.894 17.8444 17.0342 16.7804 17.9566C15.7283 18.8686 14.2387 19.5243 12.4987 19.5243C10.7584 19.5243 9.26883 18.8686 8.21679 17.9566C7.1529 17.0342 6.58203 15.8941 6.58203 14.9544C6.58203 14.5139 6.72335 14.4011 6.7802 14.3659Z" fill="#6F8098" stroke="#15577C"/>
<path d="M16.2132 15.7784C15.4833 16.2472 14.3085 16.7103 12.499 16.7103C10.6895 16.7103 9.51472 16.2472 8.78486 15.7784C9.67322 15.9062 10.9113 16.0204 12.499 16.0204C14.0867 16.0204 15.3248 15.9062 16.2132 15.7784Z" fill="white" stroke="#15577C"/>
</svg>
