<svg width="37" height="35" viewBox="0 0 37 35" fill="none" xmlns="http://www.w3.org/2000/svg">
<path d="M29.637 34.0002V31.3189C29.637 26.4283 24.6415 22.4502 18.5006 22.4502C12.3597 22.4502 7.36426 26.4283 7.36426 31.3189V34.0002" stroke="white" stroke-width="2" stroke-linecap="round" stroke-linejoin="round"/>
<path d="M2.59091 23.4551C1.58068 24.7899 1 26.3508 1 28.019V32.3502" stroke="white" stroke-width="2" stroke-linecap="round" stroke-linejoin="round"/>
<path d="M34.4092 23.4551C35.4194 24.7899 36.0001 26.3508 36.0001 28.019V32.3502" stroke="white" stroke-width="2" stroke-linecap="round" stroke-linejoin="round"/>
<path fill-rule="evenodd" clip-rule="evenodd" d="M18.5009 15.85C22.4479 15.85 25.66 12.5186 25.66 8.425C25.66 4.33135 22.4479 1 18.5009 1C14.5538 1 11.3418 4.33135 11.3418 8.425C11.3418 12.5186 14.5538 15.85 18.5009 15.85Z" stroke="white" stroke-width="2" stroke-linecap="round" stroke-linejoin="round"/>
<path d="M29.9727 15.8141C32.4497 15.6342 34.4097 13.514 34.4097 10.8987C34.4097 9.01605 33.3836 7.39575 31.8897 6.5625" stroke="white" stroke-width="2" stroke-linecap="round" stroke-linejoin="round"/>
<path d="M7.02946 15.8141C4.55241 15.6326 2.59082 13.514 2.59082 10.8987C2.59082 9.01605 3.61855 7.39575 5.11082 6.5625" stroke="white" stroke-width="2" stroke-linecap="round" stroke-linejoin="round"/>
</svg>
