<svg width="23" height="24" viewBox="0 0 23 24" fill="none" xmlns="http://www.w3.org/2000/svg">
<path d="M8.56667 17.8562L9.39855 17.3013C9.21306 17.0232 8.90092 16.8562 8.56667 16.8562V17.8562ZM11.5 22.2533L10.6681 22.8083C10.8536 23.0863 11.1658 23.2533 11.5 23.2533C11.8343 23.2533 12.1464 23.0863 12.3319 22.8083L11.5 22.2533ZM14.4333 17.8562V16.8562C14.0991 16.8562 13.7869 17.0232 13.6015 17.3013L14.4333 17.8562ZM10.7667 12.7334L10.0596 13.4405L10.8154 14.1963L11.5192 13.3919L10.7667 12.7334ZM7.73479 18.4112L10.6681 22.8083L12.3319 21.6984L9.39855 17.3013L7.73479 18.4112ZM12.3319 22.8083L15.2652 18.4112L13.6015 17.3013L10.6681 21.6984L12.3319 22.8083ZM14.4333 18.8562H20.3V16.8562H14.4333V18.8562ZM20.3 18.8562C21.6627 18.8562 22.7667 17.7539 22.7667 16.3905H20.7667C20.7667 16.6481 20.5594 16.8562 20.3 16.8562V18.8562ZM22.7667 16.3905V3.19911H20.7667V16.3905H22.7667ZM22.7667 3.19911C22.7667 1.83567 21.6627 0.733398 20.3 0.733398V2.7334C20.5594 2.7334 20.7667 2.94147 20.7667 3.19911H22.7667ZM20.3 0.733398H2.7V2.7334H20.3V0.733398ZM2.7 0.733398C1.33727 0.733398 0.233337 1.83567 0.233337 3.19911H2.23334C2.23334 2.94147 2.44061 2.7334 2.7 2.7334V0.733398ZM0.233337 3.19911V16.3905H2.23334V3.19911H0.233337ZM0.233337 16.3905C0.233337 17.7539 1.33727 18.8562 2.7 18.8562V16.8562C2.44061 16.8562 2.23334 16.6481 2.23334 16.3905H0.233337ZM2.7 18.8562H8.56667V16.8562H2.7V18.8562ZM7.12623 10.5072L10.0596 13.4405L11.4738 12.0263L8.54044 9.09296L7.12623 10.5072ZM11.5192 13.3919L16.6526 7.52524L15.1474 6.20823L10.0141 12.0749L11.5192 13.3919Z" fill="#49556A"/>
</svg>
