<svg width="22" height="22" viewBox="0 0 22 22" fill="none" xmlns="http://www.w3.org/2000/svg">
<path d="M8.06673 16.8562L8.48267 16.5787C8.38993 16.4397 8.23385 16.3562 8.06673 16.3562V16.8562ZM11.0001 21.2533L10.5841 21.5308C10.6769 21.6698 10.8329 21.7533 11.0001 21.7533C11.1672 21.7533 11.3233 21.6698 11.416 21.5308L11.0001 21.2533ZM13.9334 16.8562V16.3562C13.7663 16.3562 13.6102 16.4397 13.5175 16.5787L13.9334 16.8562ZM10.2667 11.7334L9.91318 12.087L10.2911 12.4649L10.643 12.0626L10.2667 11.7334ZM7.65079 17.1337L10.5841 21.5308L11.416 20.9759L8.48267 16.5787L7.65079 17.1337ZM11.416 21.5308L14.3493 17.1337L13.5175 16.5787L10.5841 20.9759L11.416 21.5308ZM13.9334 17.3562H19.8001V16.3562H13.9334V17.3562ZM19.8001 17.3562C20.887 17.3562 21.7667 16.4775 21.7667 15.3905H20.7667C20.7667 15.9246 20.3353 16.3562 19.8001 16.3562V17.3562ZM21.7667 15.3905V2.19911H20.7667V15.3905H21.7667ZM21.7667 2.19911C21.7667 1.11212 20.887 0.233398 19.8001 0.233398V1.2334C20.3353 1.2334 20.7667 1.66502 20.7667 2.19911H21.7667ZM19.8001 0.233398H2.20007V1.2334H19.8001V0.233398ZM2.20007 0.233398C1.11316 0.233398 0.233398 1.11212 0.233398 2.19911H1.2334C1.2334 1.66502 1.66483 1.2334 2.20007 1.2334V0.233398ZM0.233398 2.19911V15.3905H1.2334V2.19911H0.233398ZM0.233398 15.3905C0.233398 16.4775 1.11316 17.3562 2.20007 17.3562V16.3562C1.66483 16.3562 1.2334 15.9246 1.2334 15.3905H0.233398ZM2.20007 17.3562H8.06673V16.3562H2.20007V17.3562ZM6.97984 9.15362L9.91318 12.087L10.6203 11.3798L7.68695 8.44651L6.97984 9.15362ZM10.643 12.0626L15.7764 6.19598L15.0238 5.53748L9.89044 11.4041L10.643 12.0626Z" fill="#15577C"/>
</svg>
