<svg width="24" height="24" viewBox="0 0 24 24" fill="none" xmlns="http://www.w3.org/2000/svg">
<path d="M9.00049 6H15.0005" stroke="#6EB5CB" stroke-width="2" stroke-linecap="round" stroke-linejoin="round"/>
<path fill-rule="evenodd" clip-rule="evenodd" d="M15.512 5.14698L18 1.00098H6L8.489 5.14698C8.762 5.60398 8.636 6.19898 8.189 6.48798C4.687 8.74798 1 13.142 1 17.098C1 18.38 1.248 19.38 1.688 20.17V20.221C1.688 20.206 1.69 20.191 1.692 20.177C3.09 22.679 6.472 23.001 10.429 23.001H13.572C18.78 23.001 23 22.454 23 17.098C23 13.142 19.314 8.74798 15.812 6.48798C15.365 6.19898 15.239 5.60398 15.512 5.14698Z" stroke="#6EB5CB" stroke-width="2" stroke-linecap="round" stroke-linejoin="round"/>
<path d="M7.00049 15H12.0005" stroke="#6EB5CB" stroke-width="2" stroke-linecap="round" stroke-linejoin="round"/>
<path d="M14.0005 11H13.0005C10.7915 11 9.00049 12.791 9.00049 15C9.00049 17.209 10.7915 19 13.0005 19H14.0005" stroke="#6EB5CB" stroke-width="2" stroke-linecap="round" stroke-linejoin="round"/>
</svg>
