<svg width="24" height="24" viewBox="0 0 24 24" fill="none" xmlns="http://www.w3.org/2000/svg">
<path d="M1.00031 7H23.0003" stroke="#F7FAFC" stroke-width="2" stroke-linecap="round" stroke-linejoin="round"/>
<path fill-rule="evenodd" clip-rule="evenodd" d="M21.0003 23H3.00031C1.89631 23 1.00031 22.104 1.00031 21V3C1.00031 1.896 1.89631 1 3.00031 1H21.0003C22.1043 1 23.0003 1.896 23.0003 3V21C23.0003 22.104 22.1043 23 21.0003 23Z" stroke="#F7FAFC" stroke-width="2" stroke-linecap="round" stroke-linejoin="round"/>
<path d="M14.0003 11.01V11" stroke="#F7FAFC" stroke-width="2" stroke-linecap="round" stroke-linejoin="round"/>
<path d="M18.0003 11.01V11" stroke="#F7FAFC" stroke-width="2" stroke-linecap="round" stroke-linejoin="round"/>
<path d="M10.0003 11.01V11" stroke="#F7FAFC" stroke-width="2" stroke-linecap="round" stroke-linejoin="round"/>
<path d="M6.00031 11.01V11" stroke="#F7FAFC" stroke-width="2" stroke-linecap="round" stroke-linejoin="round"/>
<path d="M6.00031 15.01V15" stroke="#F7FAFC" stroke-width="2" stroke-linecap="round" stroke-linejoin="round"/>
<path d="M6.00031 19.01V19" stroke="#F7FAFC" stroke-width="2" stroke-linecap="round" stroke-linejoin="round"/>
<path d="M10.0003 15.01V15" stroke="#F7FAFC" stroke-width="2" stroke-linecap="round" stroke-linejoin="round"/>
<path d="M10.0003 19.01V19" stroke="#F7FAFC" stroke-width="2" stroke-linecap="round" stroke-linejoin="round"/>
<path d="M14.0003 15.01V15" stroke="#F7FAFC" stroke-width="2" stroke-linecap="round" stroke-linejoin="round"/>
<path d="M14.0003 19.01V19" stroke="#F7FAFC" stroke-width="2" stroke-linecap="round" stroke-linejoin="round"/>
<path d="M18.0003 15.01V15" stroke="#F7FAFC" stroke-width="2" stroke-linecap="round" stroke-linejoin="round"/>
<path d="M18.0003 19.01V19" stroke="#F7FAFC" stroke-width="2" stroke-linecap="round" stroke-linejoin="round"/>
</svg>
