<svg width="24" height="20" viewBox="0 0 24 20" fill="none" xmlns="http://www.w3.org/2000/svg">
<path fill-rule="evenodd" clip-rule="evenodd" d="M11.0005 7.5C11.0005 8.881 9.88149 10 8.50049 10C7.11949 10 6.00049 8.881 6.00049 7.5C6.00049 6.119 7.11949 5 8.50049 5C9.88149 5 11.0005 6.119 11.0005 7.5Z" stroke="#49556A" stroke-width="2" stroke-linecap="round" stroke-linejoin="round"/>
<path d="M5.00049 19V16.5C5.00049 14.567 6.56749 13 8.50049 13C10.4335 13 12.0005 14.567 12.0005 16.5V19" stroke="#49556A" stroke-width="2" stroke-linecap="round" stroke-linejoin="round"/>
<path d="M15.0005 7H19.0005" stroke="#49556A" stroke-width="2" stroke-linecap="round" stroke-linejoin="round"/>
<path d="M15.0005 11H19.0005" stroke="#49556A" stroke-width="2" stroke-linecap="round" stroke-linejoin="round"/>
<path fill-rule="evenodd" clip-rule="evenodd" d="M21.0005 19H3.00049C1.89649 19 1.00049 18.104 1.00049 17V3C1.00049 1.896 1.89649 1 3.00049 1H21.0005C22.1045 1 23.0005 1.896 23.0005 3V17C23.0005 18.104 22.1045 19 21.0005 19Z" stroke="#49556A" stroke-width="2" stroke-linecap="round" stroke-linejoin="round"/>
</svg>
