<svg width="22" height="22" viewBox="0 0 22 22" fill="none" xmlns="http://www.w3.org/2000/svg">
<path d="M1.32715 18.58L8.00015 10L16.5561 21" stroke="#6EB5CB" stroke-width="2" stroke-linecap="round" stroke-linejoin="round"/>
<path fill-rule="evenodd" clip-rule="evenodd" d="M13.0005 7C13.0005 8.104 13.8965 9 15.0005 9C16.1045 9 17.0005 8.104 17.0005 7C17.0005 5.896 16.1045 5 15.0005 5C13.8965 5 13.0005 5.896 13.0005 7Z" stroke="#6EB5CB" stroke-width="2" stroke-linecap="round" stroke-linejoin="round"/>
<path fill-rule="evenodd" clip-rule="evenodd" d="M17.0005 21H5.00049C2.79149 21 1.00049 19.209 1.00049 17V5C1.00049 2.791 2.79149 1 5.00049 1H17.0005C19.2095 1 21.0005 2.791 21.0005 5V17C21.0005 19.209 19.2095 21 17.0005 21Z" stroke="#6EB5CB" stroke-width="2" stroke-linecap="round" stroke-linejoin="round"/>
</svg>
