<svg width="17" height="18" viewBox="0 0 17 18" fill="none" xmlns="http://www.w3.org/2000/svg">
<g clip-path="url(#clip0_19330_4779)">
<path d="M16.9909 8.86107C16.9909 8.14834 16.9331 7.62823 16.8079 7.08887H8.66919V10.3058H13.4464C13.3501 11.1052 12.83 12.3092 11.6742 13.1182L11.658 13.2259L14.2313 15.2194L14.4096 15.2372C16.047 13.725 16.9909 11.5001 16.9909 8.86107Z" fill="#4285F4"/>
<path d="M8.66937 17.3368C11.0098 17.3368 12.9746 16.5663 14.4098 15.2371L11.6744 13.1181C10.9424 13.6286 9.95997 13.985 8.66937 13.985C6.37706 13.985 4.43149 12.4729 3.73795 10.3828L3.63629 10.3914L0.96053 12.4622L0.925537 12.5595C2.351 15.3912 5.27901 17.3368 8.66937 17.3368Z" fill="#34A853"/>
<path d="M3.738 10.3832C3.555 9.84379 3.4491 9.26585 3.4491 8.66872C3.4491 8.07152 3.555 7.49365 3.72837 6.95429L3.72353 6.83942L1.01423 4.73535L0.925588 4.77752C0.338086 5.95259 0.000976562 7.27214 0.000976562 8.66872C0.000976562 10.0653 0.338086 11.3848 0.925588 12.5599L3.738 10.3832Z" fill="#FBBC05"/>
<path d="M8.66937 3.35178C10.2971 3.35178 11.3951 4.05488 12.0211 4.64245L14.4676 2.2538C12.9651 0.857216 11.0098 0 8.66937 0C5.27901 0 2.351 1.94557 0.925537 4.77724L3.72832 6.95401C4.43149 4.86396 6.37706 3.35178 8.66937 3.35178Z" fill="#EB4335"/>
</g>
<defs>
<clipPath id="clip0_19330_4779">
<rect width="17" height="17.3966" fill="white"/>
</clipPath>
</defs>
</svg>
