<svg width="19" height="21" viewBox="0 0 19 21" fill="none" xmlns="http://www.w3.org/2000/svg">
<path fill-rule="evenodd" clip-rule="evenodd" d="M15.9464 12.6235C15.9464 13.5402 15.2009 14.2841 14.2823 14.2841C13.3637 14.2841 12.6182 13.5402 12.6182 12.6235C12.6182 11.7068 13.3637 10.9629 14.2823 10.9629C15.2009 10.9629 15.9464 11.7068 15.9464 12.6235Z" stroke="#15577C" stroke-width="1.66412" stroke-linecap="round" stroke-linejoin="round"/>
<path fill-rule="evenodd" clip-rule="evenodd" d="M5.96154 12.6235C5.96154 13.5402 5.21602 14.2841 4.29742 14.2841C3.37883 14.2841 2.6333 13.5402 2.6333 12.6235C2.6333 11.7068 3.37883 10.9629 4.29742 10.9629C5.21602 10.9629 5.96154 11.7068 5.96154 12.6235Z" stroke="#15577C" stroke-width="1.66412" stroke-linecap="round" stroke-linejoin="round"/>
<path d="M0.969238 19.2663V19.2663C0.969238 17.8905 2.0867 16.7754 3.46542 16.7754H5.12954C6.50827 16.7754 7.62573 17.8905 7.62573 19.2663" stroke="#15577C" stroke-width="1.66412" stroke-linecap="round" stroke-linejoin="round"/>
<path d="M10.9541 19.2663V19.2663C10.9541 17.8905 12.0716 16.7754 13.4503 16.7754H15.1144C16.4931 16.7754 17.6106 17.8905 17.6106 19.2663" stroke="#15577C" stroke-width="1.66412" stroke-linecap="round" stroke-linejoin="round"/>
<path fill-rule="evenodd" clip-rule="evenodd" d="M15.9464 2.66061C15.9464 3.57726 15.2009 4.32121 14.2823 4.32121C13.3637 4.32121 12.6182 3.57726 12.6182 2.66061C12.6182 1.74395 13.3637 1 14.2823 1C15.2009 1 15.9464 1.74395 15.9464 2.66061Z" stroke="#15577C" stroke-width="1.66412" stroke-linecap="round" stroke-linejoin="round"/>
<path d="M11.5898 7.64085C12.0466 7.13104 12.7106 6.81055 13.4503 6.81055H15.1145C15.8542 6.81055 16.5173 7.13104 16.9749 7.64085" stroke="#15577C" stroke-width="1.66412" stroke-linecap="round" stroke-linejoin="round"/>
<path fill-rule="evenodd" clip-rule="evenodd" d="M5.96154 2.66061C5.96154 3.57726 5.21602 4.32121 4.29742 4.32121C3.37883 4.32121 2.6333 3.57726 2.6333 2.66061C2.6333 1.74395 3.37883 1 4.29742 1C5.21602 1 5.96154 1.74395 5.96154 2.66061Z" stroke="#15577C" stroke-width="1.66412" stroke-linecap="round" stroke-linejoin="round"/>
<path d="M1.60498 7.64085C2.06178 7.13104 2.72577 6.81055 3.46547 6.81055H5.12959C5.86929 6.81055 6.53245 7.13104 6.99008 7.64085" stroke="#15577C" stroke-width="1.66412" stroke-linecap="round" stroke-linejoin="round"/>
</svg>
