<svg width="45" height="45" viewBox="0 0 45 45" fill="none" xmlns="http://www.w3.org/2000/svg">
<mask id="mask0_23323_49555" style="mask-type:alpha" maskUnits="userSpaceOnUse" x="4" y="4" width="37" height="37">
<path fill-rule="evenodd" clip-rule="evenodd" d="M38.475 10.3115H34.6875V6.52402C34.6875 5.51152 33.8625 4.68652 32.85 4.68652H32.7938C31.7625 4.68652 30.9375 5.51152 30.9375 6.52402V10.3115H27.1688C26.1563 10.3115 25.3313 11.1365 25.3125 12.149V12.2053C25.3125 13.2365 26.1375 14.0615 27.1688 14.0615H30.9375V17.8303C30.9375 18.8428 31.7625 19.6865 32.7938 19.6678H32.85C33.8625 19.6678 34.6875 18.8428 34.6875 17.8303V14.0615H38.475C39.4875 14.0615 40.3125 13.2365 40.3125 12.224V12.149C40.3125 11.1365 39.4875 10.3115 38.475 10.3115ZM29.0625 17.8306V15.9368H27.1687C26.175 15.9368 25.2375 15.5431 24.525 14.8493C23.8312 14.1368 23.4375 13.1993 23.4375 12.1493C23.4375 11.4743 23.625 10.8556 23.9438 10.3118H8.4375C6.375 10.3118 4.6875 11.9993 4.6875 14.0618V36.5618C4.6875 38.6243 6.375 40.3118 8.4375 40.3118H30.9375C33 40.3118 34.6875 38.6243 34.6875 36.5618V21.0368C34.125 21.3556 33.4875 21.5618 32.775 21.5618C30.7312 21.5431 29.0625 19.8743 29.0625 17.8306ZM10.3128 36.5609H28.9878C29.7753 36.5609 30.2066 35.6609 29.7191 35.0422L24.1878 28.1422C23.8128 27.6547 23.0816 27.6734 22.7066 28.1609L17.8128 34.6859L14.8128 30.1672C14.4378 29.6422 13.6691 29.6047 13.2753 30.1297L9.56282 35.0609C9.09407 35.6797 9.54407 36.5609 10.3128 36.5609Z" fill="black"/>
</mask>
<g mask="url(#mask0_23323_49555)">
<rect width="45" height="45" fill="#9FAEC2"/>
</g>
</svg>
