<svg width="32" height="32" viewBox="0 0 32 32" fill="none" xmlns="http://www.w3.org/2000/svg">
<circle cx="16" cy="16" r="15.5" fill="white" stroke="#CAD5E1"/>
<path fill-rule="evenodd" clip-rule="evenodd" d="M18.318 9.97487C18.9422 9.35067 19.7888 9 20.6716 9C22.5098 9 24 10.4902 24 12.3284C24 13.2112 23.6493 14.0578 23.0251 14.682L19.8536 17.8536L19.1464 17.1464L22.318 13.9749C22.7547 13.5382 23 12.946 23 12.3284C23 11.0425 21.9575 10 20.6716 10C20.054 10 19.4618 10.2453 19.0251 10.682L15.8536 13.8536L15.1464 13.1464L18.318 9.97487ZM19.8536 13.8536L13.8536 19.8536L13.1464 19.1464L19.1464 13.1464L19.8536 13.8536ZM13.8536 15.8536L10.682 19.0251C10.2453 19.4618 10 20.054 10 20.6716C10 21.9575 11.0425 23 12.3284 23C12.946 23 13.5382 22.7547 13.9749 22.318L17.1464 19.1464L17.8536 19.8536L14.682 23.0251C14.0578 23.6493 13.2112 24 12.3284 24C10.4902 24 9 22.5098 9 20.6716C9 19.7888 9.35067 18.9422 9.97487 18.318L13.1464 15.1464L13.8536 15.8536Z" fill="#E1E8F1"/>
</svg>
