<svg width="16" height="24" viewBox="0 0 16 24" fill="none" xmlns="http://www.w3.org/2000/svg">
<path fill-rule="evenodd" clip-rule="evenodd" d="M10 16C10 17.104 9.104 18 8 18C6.896 18 6 17.104 6 16C6 14.896 6.896 14 8 14C9.104 14 10 14.896 10 16Z" stroke="#ECF2F7" stroke-width="2" stroke-linecap="round" stroke-linejoin="round"/>
<path fill-rule="evenodd" clip-rule="evenodd" d="M15 16C15 19.866 11.866 23 8 23C4.134 23 1 19.866 1 16C1 12.134 4.134 9 8 9C11.866 9 15 12.134 15 16Z" stroke="#ECF2F7" stroke-width="2" stroke-linecap="round" stroke-linejoin="round"/>
<path d="M13 11V6C13 3.238 10.762 1 8 1C5.238 1 3 3.238 3 6V11" stroke="#ECF2F7" stroke-width="2" stroke-linecap="round" stroke-linejoin="round"/>
</svg>
