<svg width="27" height="27" viewBox="0 0 27 27" fill="none" xmlns="http://www.w3.org/2000/svg">
<circle cx="13.5" cy="13.5" r="13.5" fill="#6EB5CB"/>
<path fill-rule="evenodd" clip-rule="evenodd" d="M15.7728 16.9548C15.7728 17.9083 14.999 18.6821 14.0455 18.6821C13.0921 18.6821 12.3182 17.9083 12.3182 16.9548C12.3182 16.0014 13.0921 15.2275 14.0455 15.2275C14.999 15.2275 15.7728 16.0014 15.7728 16.9548Z" stroke="#ECF2F7" stroke-width="1.72727" stroke-linecap="round" stroke-linejoin="round"/>
<path fill-rule="evenodd" clip-rule="evenodd" d="M20.0909 16.9546C20.0909 20.2935 17.3843 23.0001 14.0455 23.0001C10.7066 23.0001 8 20.2935 8 16.9546C8 13.6158 10.7066 10.9092 14.0455 10.9092C17.3843 10.9092 20.0909 13.6158 20.0909 16.9546Z" stroke="#ECF2F7" stroke-width="1.72727" stroke-linecap="round" stroke-linejoin="round"/>
<path d="M18.3637 12.6364V8.31818C18.3637 5.93282 16.4308 4 14.0455 4C11.6601 4 9.72729 5.93282 9.72729 8.31818V12.6364" stroke="#ECF2F7" stroke-width="1.72727" stroke-linecap="round" stroke-linejoin="round"/>
</svg>
