<svg width="20" height="24" viewBox="0 0 20 24" fill="none" xmlns="http://www.w3.org/2000/svg">
<path fill-rule="evenodd" clip-rule="evenodd" d="M17.0005 23H3.00049C1.89649 23 1.00049 22.104 1.00049 21V11C1.00049 9.896 1.89649 9 3.00049 9H17.0005C18.1045 9 19.0005 9.896 19.0005 11V21C19.0005 22.104 18.1045 23 17.0005 23Z" stroke="#6EB5CB" stroke-width="2" stroke-linecap="round" stroke-linejoin="round"/>
<path d="M5.00049 9V6C5.00049 3.238 7.23849 1 10.0005 1C12.7625 1 15.0005 3.238 15.0005 6V9" stroke="#6EB5CB" stroke-width="2" stroke-linecap="round" stroke-linejoin="round"/>
<path fill-rule="evenodd" clip-rule="evenodd" d="M13.0005 16C13.0005 17.657 11.6575 19 10.0005 19C8.34349 19 7.00049 17.657 7.00049 16C7.00049 14.343 8.34349 13 10.0005 13C11.6575 13 13.0005 14.343 13.0005 16Z" stroke="#6EB5CB" stroke-width="2" stroke-linecap="round" stroke-linejoin="round"/>
</svg>
