<svg width="35" height="33" viewBox="0 0 35 33" fill="none" xmlns="http://www.w3.org/2000/svg">
<path d="M27.178 9.91875C27.5189 7.82318 27.178 6.42614 25.9849 5.13656C24.6782 3.68578 22.292 3.09473 19.224 3.09473H10.4178C9.79284 3.09473 9.28151 3.52459 9.16788 4.11564L5.47494 26.146C5.41813 26.5758 5.75902 26.9519 6.21353 26.9519H11.6677L11.27 29.2087C11.2132 29.5848 11.4973 29.9072 11.9518 29.9072H16.5537C17.1219 29.9072 17.5764 29.5311 17.6332 29.0475L18.5991 23.3519C18.6559 22.8683 19.1672 22.4921 19.6785 22.4921H20.3603C24.7918 22.4921 28.3143 20.7727 29.337 15.8293C29.7347 13.7875 29.5642 12.0143 28.4279 10.8322C28.0871 10.4561 27.6894 10.1874 27.178 9.91875Z" fill="#009CDE"/>
<path d="M27.178 9.91875C27.5189 7.82318 27.178 6.42614 25.9849 5.13656C24.6782 3.68578 22.292 3.09473 19.224 3.09473H10.4178C9.79284 3.09473 9.28151 3.52459 9.16788 4.11564L5.47494 26.146C5.41813 26.5758 5.75902 26.9519 6.21353 26.9519H11.6677L12.9744 18.9995C13.0881 18.4085 13.5994 17.9786 14.2244 17.9786H16.8378C21.9511 17.9786 25.9281 16.0442 27.0644 10.3486C27.1212 10.2411 27.1212 10.0799 27.178 9.91875Z" fill="#012169"/>
<path d="M14.5084 9.97248C14.5652 9.59635 15.0766 9.11276 15.5879 9.11276H22.5193C23.3147 9.11276 24.1101 9.16649 24.7918 9.27396C25.4168 9.38142 26.5531 9.65009 27.1212 9.97248C27.4621 7.87692 27.1212 6.47987 25.9281 5.19029C24.6782 3.68578 22.292 3.09473 19.224 3.09473H10.4178C9.79284 3.09473 9.28151 3.52459 9.16788 4.11564L5.47494 26.146C5.41813 26.5758 5.75902 26.9519 6.21353 26.9519H11.6677L14.5084 9.97248Z" fill="#003087"/>
</svg>
