<svg width="15" height="16" viewBox="0 0 15 16" fill="none" xmlns="http://www.w3.org/2000/svg">
<path fill-rule="evenodd" clip-rule="evenodd" d="M1.5 8C1.5 7.44772 1.94772 7 2.5 7C3.05228 7 3.5 7.44772 3.5 8C3.5 8.55228 3.05228 9 2.5 9C1.94772 9 1.5 8.55228 1.5 8ZM6.5 8C6.5 7.44772 6.94772 7 7.5 7C8.05228 7 8.5 7.44772 8.5 8C8.5 8.55228 8.05228 9 7.5 9C6.94772 9 6.5 8.55228 6.5 8ZM11.5 8C11.5 7.44772 11.9477 7 12.5 7C13.0523 7 13.5 7.44772 13.5 8C13.5 8.55228 13.0523 9 12.5 9C11.9477 9 11.5 8.55228 11.5 8Z" fill="#49556A"/>
</svg>