<svg width="16" height="25" viewBox="0 0 16 25" fill="none" xmlns="http://www.w3.org/2000/svg">
<path fill-rule="evenodd" clip-rule="evenodd" d="M10.0002 16.5C10.0002 17.604 9.10424 18.5 8.00024 18.5C6.89624 18.5 6.00024 17.604 6.00024 16.5C6.00024 15.396 6.89624 14.5 8.00024 14.5C9.10424 14.5 10.0002 15.396 10.0002 16.5Z" stroke="white" stroke-width="2" stroke-linecap="round" stroke-linejoin="round"/>
<path fill-rule="evenodd" clip-rule="evenodd" d="M15.0002 16.5C15.0002 20.366 11.8662 23.5 8.00024 23.5C4.13424 23.5 1.00024 20.366 1.00024 16.5C1.00024 12.634 4.13424 9.5 8.00024 9.5C11.8662 9.5 15.0002 12.634 15.0002 16.5Z" stroke="white" stroke-width="2" stroke-linecap="round" stroke-linejoin="round"/>
<path d="M3.00024 11.5V6.5C3.00024 3.738 5.23824 1.5 8.00024 1.5C9.63624 1.5 11.0882 2.285 12.0002 3.5" stroke="white" stroke-width="2" stroke-linecap="round" stroke-linejoin="round"/>
</svg>
