<svg width="24" height="24" viewBox="0 0 24 24" fill="none" xmlns="http://www.w3.org/2000/svg">
<path d="M9.00049 4V1" stroke="#49556A" stroke-width="2" stroke-linecap="round" stroke-linejoin="round"/>
<path d="M13.0005 5L15.0005 3" stroke="#49556A" stroke-width="2" stroke-linecap="round" stroke-linejoin="round"/>
<path d="M5.00049 5L3.00049 3" stroke="#49556A" stroke-width="2" stroke-linecap="round" stroke-linejoin="round"/>
<path fill-rule="evenodd" clip-rule="evenodd" d="M23.0005 9H8.00049C4.13449 9 1.00049 12.134 1.00049 16C1.00049 19.866 4.13449 23 8.00049 23C11.8665 23 15.0005 19.866 15.0005 16C15.0005 15.728 14.9805 15.46 14.9505 15.195L23.0005 13V9Z" stroke="#49556A" stroke-width="2" stroke-linecap="round" stroke-linejoin="round"/>
<path fill-rule="evenodd" clip-rule="evenodd" d="M10.0005 16C10.0005 17.104 9.10449 18 8.00049 18C6.89649 18 6.00049 17.104 6.00049 16C6.00049 14.896 6.89649 14 8.00049 14C9.10449 14 10.0005 14.896 10.0005 16Z" stroke="#49556A" stroke-width="2" stroke-linecap="round" stroke-linejoin="round"/>
</svg>
