<svg width="29" height="31" viewBox="0 0 29 31" fill="none" xmlns="http://www.w3.org/2000/svg">
<path d="M1.00037 22.0908H28.0004" stroke="#6F8098" stroke-width="2" stroke-linecap="round" stroke-linejoin="round"/>
<path d="M18.1822 22.0912L9.59128 10.2275L1.00037 22.0912" stroke="#6F8098" stroke-width="2" stroke-linecap="round" stroke-linejoin="round"/>
<path fill-rule="evenodd" clip-rule="evenodd" d="M16.9549 8.90882C16.9549 10.3641 18.0546 11.5452 19.4095 11.5452C20.7644 11.5452 21.864 10.3641 21.864 8.90882C21.864 7.45355 20.7644 6.27246 19.4095 6.27246C18.0546 6.27246 16.9549 7.45355 16.9549 8.90882Z" stroke="#6F8098" stroke-width="2" stroke-linecap="round" stroke-linejoin="round"/>
<path fill-rule="evenodd" clip-rule="evenodd" d="M25.5453 30H3.45557C2.09944 30 0.9998 28.8189 0.9998 27.3636V3.63636C0.9998 2.18109 2.09944 1 3.45557 1H25.5453C26.9014 1 27.9998 2.18109 27.9998 3.63636V27.3636C27.9998 28.8189 26.9014 30 25.5453 30Z" stroke="#6F8098" stroke-width="2" stroke-linecap="round" stroke-linejoin="round"/>
</svg>
