<svg width="189" height="28" viewBox="0 0 189 28" fill="none" xmlns="http://www.w3.org/2000/svg">
<path d="M8.71008 26.9464C2.90336 26.9464 0 23.6807 0 17.1493C0 13.9007 0.789803 11.4215 2.36941 9.71167C3.94901 7.99047 6.21274 7.12988 9.16059 7.12988C11.3186 7.12988 13.2543 7.56303 14.9673 8.42933L13.4656 12.4644C12.6646 12.1339 11.9193 11.866 11.2297 11.6608C10.54 11.4443 9.85028 11.336 9.16059 11.336C6.51309 11.336 5.18934 13.2624 5.18934 17.1151C5.18934 20.8539 6.51309 22.7232 9.16059 22.7232C10.1395 22.7232 11.0461 22.5921 11.8804 22.3299C12.7147 22.0564 13.549 21.6346 14.3832 21.0647V25.5273C13.5601 26.063 12.7258 26.4335 11.8804 26.6387C11.0461 26.8438 9.98932 26.9464 8.71008 26.9464Z" fill="white"/>
<path d="M52.3753 26.6045L51.3908 24.0056H51.2574C50.4007 25.1113 49.5164 25.8807 48.6043 26.3137C47.7033 26.7355 46.5241 26.9464 45.0668 26.9464C43.2759 26.9464 41.8632 26.4221 40.8286 25.3734C39.8052 24.3247 39.2935 22.8315 39.2935 20.8938C39.2935 18.8648 39.9832 17.3716 41.3626 16.4141C42.7531 15.4452 44.8444 14.9095 47.6364 14.8069L50.8736 14.7042V13.8665C50.8736 11.9287 49.9058 10.9598 47.9701 10.9598C46.4796 10.9598 44.7276 11.4215 42.7141 12.3448L41.0288 8.82259C43.1758 7.67134 45.5563 7.0957 48.1704 7.0957C50.6733 7.0957 52.5922 7.65423 53.9271 8.77131C55.262 9.88837 55.9294 11.5868 55.9294 13.8665V26.6045H52.3753ZM50.8736 17.7477L48.9046 17.8161C47.4251 17.8617 46.3238 18.1353 45.6008 18.6368C44.8777 19.1384 44.5162 19.9021 44.5162 20.9279C44.5162 22.3984 45.3394 23.1335 46.9858 23.1335C48.1648 23.1335 49.1048 22.786 49.8056 22.0906C50.5176 21.3953 50.8736 20.472 50.8736 19.3208V17.7477Z" fill="white"/>
<path d="M68.7608 26.9464C62.9541 26.9464 60.0508 23.6807 60.0508 17.1493C60.0508 13.9006 60.8405 11.4215 62.4201 9.71167C63.9997 7.99047 66.2634 7.12988 69.2114 7.12988C71.3694 7.12988 73.3049 7.56303 75.018 8.42933L73.5163 12.4645C72.7154 12.1338 71.9701 11.866 71.2803 11.6608C70.5907 11.4443 69.901 11.336 69.2114 11.336C66.5638 11.336 65.2401 13.2624 65.2401 17.115C65.2401 20.8539 66.5638 22.7232 69.2114 22.7232C70.1902 22.7232 71.0968 22.5922 71.9311 22.3299C72.7655 22.0565 73.5997 21.6347 74.434 21.0647V25.5273C73.6108 26.063 72.7765 26.4334 71.9311 26.6387C71.0968 26.8439 70.04 26.9464 68.7608 26.9464Z" fill="white"/>
<path d="M95.9924 26.6044H90.9032V15.4394C90.9032 12.681 89.9019 11.3017 87.8997 11.3017C86.4758 11.3017 85.4469 11.7976 84.8128 12.7892C84.1787 13.7809 83.8617 15.3882 83.8617 17.611V26.6044H78.7725V0H83.8617V5.42005C83.8617 5.8418 83.8227 6.83348 83.7449 8.3951L83.6281 9.93391H83.895C85.0297 8.06454 86.8318 7.12985 89.3014 7.12985C91.4927 7.12985 93.1558 7.73397 94.2904 8.94223C95.4251 10.1505 95.9924 11.8831 95.9924 14.14V26.6044Z" fill="white"/>
<path d="M114.247 20.9279C114.247 22.8885 113.579 24.3817 112.245 25.4076C110.921 26.4334 108.935 26.9464 106.288 26.9464C104.931 26.9464 103.774 26.8496 102.817 26.6558C101.86 26.4733 100.965 26.1998 100.131 25.8351V21.5263C101.076 21.9823 102.138 22.3642 103.318 22.672C104.508 22.9796 105.553 23.1335 106.455 23.1335C108.301 23.1335 109.224 22.5865 109.224 21.4921C109.224 21.0818 109.102 20.7513 108.857 20.5005C108.613 20.2383 108.19 19.9477 107.589 19.6285C106.988 19.298 106.188 18.916 105.186 18.4829C103.751 17.8674 102.695 17.2975 102.016 16.7731C101.349 16.2488 100.859 15.6504 100.548 14.9778C100.247 14.2939 100.097 13.4561 100.097 12.4645C100.097 10.766 100.737 9.4552 102.016 8.53191C103.306 7.59723 105.131 7.12988 107.489 7.12988C109.736 7.12988 111.922 7.63142 114.047 8.6345L112.512 12.3961C111.577 11.9857 110.704 11.6494 109.892 11.3873C109.08 11.1251 108.251 10.994 107.406 10.994C105.904 10.994 105.153 11.4101 105.153 12.2422C105.153 12.7095 105.392 13.1142 105.871 13.4561C106.36 13.7981 107.422 14.3054 109.057 14.9778C110.515 15.5819 111.583 16.1462 112.261 16.6705C112.94 17.1948 113.44 17.799 113.763 18.4829C114.085 19.1668 114.247 19.9819 114.247 20.9279Z" fill="white"/>
<path d="M122.273 17.0125C122.273 18.9047 122.573 20.3351 123.174 21.3041C123.786 22.273 124.775 22.7574 126.144 22.7574C127.501 22.7574 128.474 22.2787 129.064 21.3212C129.664 20.3523 129.965 18.916 129.965 17.0125C129.965 15.1204 129.664 13.7013 129.064 12.7551C128.463 11.809 127.479 11.336 126.111 11.336C124.753 11.336 123.774 11.809 123.174 12.7551C122.573 13.6898 122.273 15.109 122.273 17.0125ZM135.171 17.0125C135.171 20.1243 134.37 22.5579 132.768 24.3134C131.166 26.0687 128.935 26.9464 126.078 26.9464C124.287 26.9464 122.706 26.5474 121.338 25.7495C119.97 24.9402 118.918 23.7834 118.185 22.2787C117.451 20.7741 117.083 19.0187 117.083 17.0125C117.083 13.8893 117.879 11.4614 119.469 9.72877C121.06 7.99618 123.296 7.12988 126.177 7.12988C127.968 7.12988 129.548 7.52884 130.916 8.32674C132.284 9.12464 133.336 10.2702 134.069 11.7634C134.803 13.2566 135.171 15.0063 135.171 17.0125Z" fill="white"/>
<path d="M156.079 26.6045H150.989V15.4395C150.989 14.0602 150.762 13.0287 150.305 12.3448C149.86 11.6494 149.154 11.3018 148.186 11.3018C146.885 11.3018 145.939 11.7919 145.35 12.7722C144.76 13.7525 144.465 15.3654 144.465 17.611V26.6045H139.376V7.48894H143.264L143.947 9.93394H144.232C144.732 9.05625 145.455 8.37234 146.401 7.8822C147.346 7.38065 148.431 7.12988 149.655 7.12988C152.447 7.12988 154.338 8.06457 155.327 9.93394H155.778C156.279 9.04485 157.013 8.35523 157.981 7.86509C158.959 7.37495 160.061 7.12988 161.284 7.12988C163.398 7.12988 164.995 7.68841 166.074 8.80548C167.164 9.91115 167.709 11.6893 167.709 14.14V26.6045H162.602V15.4395C162.602 14.0602 162.375 13.0287 161.918 12.3448C161.474 11.6494 160.767 11.3018 159.799 11.3018C158.554 11.3018 157.619 11.7577 156.996 12.6696C156.385 13.5816 156.079 15.0292 156.079 17.0125V26.6045Z" fill="white"/>
<path d="M180.674 10.8401C179.594 10.8401 178.75 11.1935 178.137 11.9003C177.526 12.5955 177.175 13.5873 177.086 14.8753H184.228C184.206 13.5873 183.878 12.5955 183.243 11.9003C182.609 11.1935 181.753 10.8401 180.674 10.8401ZM181.391 26.9464C178.387 26.9464 176.041 26.0972 174.35 24.3988C172.659 22.7005 171.813 20.2954 171.813 17.1835C171.813 13.9804 172.592 11.507 174.15 9.76297C175.718 8.00758 177.882 7.12988 180.641 7.12988C183.276 7.12988 185.329 7.89929 186.798 9.43811C188.266 10.9769 189 13.1027 189 15.8156V18.3461H176.969C177.025 19.828 177.453 20.985 178.254 21.8171C179.055 22.6491 180.178 23.0652 181.624 23.0652C182.748 23.0652 183.81 22.9455 184.812 22.7062C185.813 22.4668 186.858 22.0849 187.949 21.5606V25.5957C187.059 26.0516 186.108 26.3879 185.096 26.6045C184.084 26.8324 182.848 26.9464 181.391 26.9464Z" fill="white"/>
<path d="M16.9992 16.3513C16.9832 16.6087 16.9751 16.8705 16.9751 17.1368C16.9751 20.0551 17.9281 22.4523 19.834 24.3285C21.753 26.2046 24.1225 27.1426 26.9422 27.1426C29.6836 27.1426 32.0269 26.2176 33.972 24.3675C35.9302 22.5174 36.9092 20.1072 36.9092 17.1368C36.9092 14.1662 35.9302 11.7625 33.972 9.92546C32.0139 8.07542 29.6705 7.15039 26.9422 7.15039C24.1617 7.15039 21.8053 8.08845 19.8732 9.96454C19.3523 10.4669 18.9016 11.0076 18.5211 11.5866H27.2205C30.2547 11.5866 32.7145 14.0753 32.7145 17.1454C32.7145 20.2155 30.2547 22.7042 27.2205 22.7042C24.1862 22.7042 21.7265 20.2155 21.7265 17.1454C21.7265 16.8758 21.7455 16.6106 21.7822 16.3513H16.9992Z" fill="white"/>
<path d="M27.1541 19.6455C28.5011 19.6455 29.5929 18.5267 29.5929 17.1465C29.5929 15.7663 28.5011 14.6475 27.1541 14.6475C25.8072 14.6475 24.7153 15.7663 24.7153 17.1465C24.7153 18.5267 25.8072 19.6455 27.1541 19.6455Z" fill="#E525B0"/>
</svg>
