<svg width="233" height="33" viewBox="0 0 233 33" fill="none" xmlns="http://www.w3.org/2000/svg">
<path d="M10.7378 32.1763C3.57927 32.1763 0 28.2768 0 20.4777C0 16.5986 0.973671 13.6382 2.92101 11.5965C4.86836 9.5413 7.65909 8.51367 11.2932 8.51367C13.9537 8.51367 16.3398 9.03089 18.4518 10.0653L16.6004 14.8836C15.613 14.4889 14.6942 14.169 13.844 13.924C12.9937 13.6654 12.1435 13.5361 11.2932 13.5361C8.02936 13.5361 6.39743 15.8364 6.39743 20.4369C6.39743 24.9012 8.02936 27.1334 11.2932 27.1334C12.5 27.1334 13.6177 26.9769 14.6462 26.6639C15.6747 26.3372 16.7033 25.8336 17.7318 25.153V30.4817C16.717 31.1214 15.6884 31.5638 14.6462 31.8088C13.6177 32.0538 12.3149 32.1763 10.7378 32.1763Z" fill="#15577C"/>
<path d="M64.5687 31.7679L63.355 28.6646H63.1905C62.1345 29.9849 61.0443 30.9036 59.9198 31.4209C58.8089 31.9245 57.3553 32.1763 55.5588 32.1763C53.3509 32.1763 51.6093 31.5502 50.3339 30.298C49.0722 29.0457 48.4414 27.2627 48.4414 24.9489C48.4414 22.5261 49.2917 20.7431 50.9922 19.5998C52.7064 18.4428 55.2845 17.8031 58.7267 17.6806L62.7173 17.5581V16.5577C62.7173 14.2438 61.5243 13.0869 59.1381 13.0869C57.3004 13.0869 55.1405 13.6382 52.6584 14.7406L50.5807 10.5349C53.2275 9.16016 56.1622 8.47281 59.3849 8.47281C62.4705 8.47281 64.8361 9.13975 66.4817 10.4736C68.1274 11.8075 68.9502 13.8355 68.9502 16.5577V31.7679H64.5687ZM62.7173 21.1922L60.29 21.2739C58.4661 21.3283 57.1085 21.655 56.2171 22.2539C55.3257 22.8528 54.88 23.7647 54.88 24.9897C54.88 26.7455 55.8948 27.6234 57.9244 27.6234C59.3781 27.6234 60.5369 27.2083 61.4008 26.378C62.2785 25.5477 62.7173 24.4452 62.7173 23.0705V21.1922Z" fill="#15577C"/>
<path d="M84.7689 32.1763C77.6104 32.1763 74.0311 28.2767 74.0311 20.4777C74.0311 16.5985 75.0048 13.6382 76.9521 11.5965C78.8995 9.54127 81.6902 8.51364 85.3243 8.51364C87.9848 8.51364 90.371 9.03086 92.4829 10.0653L90.6315 14.8836C89.6441 14.4888 88.7253 14.169 87.8751 13.924C87.0248 13.6654 86.1746 13.5361 85.3243 13.5361C82.0605 13.5361 80.4286 15.8363 80.4286 20.4368C80.4286 24.9012 82.0605 27.1334 85.3243 27.1334C86.5311 27.1334 87.6488 26.9769 88.6773 26.6638C89.7059 26.3372 90.7344 25.8336 91.7629 25.153V30.4817C90.7481 31.1214 89.7196 31.5638 88.6773 31.8088C87.6488 32.0538 86.346 32.1763 84.7689 32.1763Z" fill="#15577C"/>
<path d="M118.34 31.7679H112.066V18.436C112.066 15.1422 110.832 13.4952 108.363 13.4952C106.608 13.4952 105.339 14.0873 104.558 15.2715C103.776 16.4556 103.385 18.3748 103.385 21.0289V31.7679H97.1112V0H103.385V6.472C103.385 6.97561 103.337 8.15976 103.241 10.0245L103.097 11.8619H103.426C104.825 9.62974 107.047 8.51364 110.091 8.51364C112.793 8.51364 114.843 9.23502 116.242 10.6778C117.641 12.1205 118.34 14.1894 118.34 16.8844V31.7679Z" fill="#15577C"/>
<path d="M140.844 24.9897C140.844 27.3308 140.021 29.1138 138.376 30.3388C136.744 31.5638 134.296 32.1763 131.032 32.1763C129.359 32.1763 127.933 32.0606 126.753 31.8292C125.574 31.6114 124.47 31.2847 123.442 30.8492V25.7043C124.607 26.2487 125.917 26.7047 127.37 27.0722C128.838 27.4397 130.127 27.6234 131.238 27.6234C133.514 27.6234 134.652 26.9701 134.652 25.6634C134.652 25.1734 134.502 24.7787 134.2 24.4793C133.898 24.1662 133.377 23.8191 132.637 23.438C131.896 23.0433 130.909 22.5874 129.674 22.0701C127.905 21.3351 126.603 20.6546 125.766 20.0285C124.943 19.4024 124.34 18.6878 123.956 17.8848C123.586 17.0681 123.4 16.0677 123.4 14.8836C123.4 12.8555 124.189 11.2903 125.766 10.1878C127.357 9.07169 129.606 8.51364 132.513 8.51364C135.283 8.51364 137.978 9.11252 140.597 10.3103L138.705 14.8019C137.553 14.3119 136.476 13.9104 135.475 13.5973C134.474 13.2843 133.452 13.1278 132.41 13.1278C130.559 13.1278 129.633 13.6246 129.633 14.6181C129.633 15.1762 129.928 15.6594 130.518 16.0677C131.121 16.476 132.431 17.0817 134.447 17.8848C136.243 18.6062 137.56 19.2799 138.396 19.906C139.233 20.5321 139.85 21.2535 140.248 22.0701C140.645 22.8868 140.844 23.86 140.844 24.9897Z" fill="#15577C"/>
<path d="M150.739 20.3143C150.739 22.5737 151.109 24.2819 151.849 25.4388C152.604 26.5958 153.824 27.1742 155.511 27.1742C157.184 27.1742 158.384 26.6026 159.111 25.4593C159.851 24.3023 160.222 22.5874 160.222 20.3143C160.222 18.0549 159.851 16.3603 159.111 15.2306C158.37 14.1009 157.157 13.5361 155.47 13.5361C153.797 13.5361 152.59 14.1009 151.849 15.2306C151.109 16.3467 150.739 18.0413 150.739 20.3143ZM166.64 20.3143C166.64 24.0301 165.652 26.936 163.677 29.0321C161.703 31.1282 158.953 32.1763 155.429 32.1763C153.221 32.1763 151.273 31.6999 149.587 30.7471C147.9 29.7807 146.604 28.3992 145.699 26.6026C144.794 24.8059 144.341 22.7099 144.341 20.3143C144.341 16.5849 145.322 13.6858 147.283 11.6169C149.244 9.54807 152 8.51364 155.552 8.51364C157.76 8.51364 159.707 8.99003 161.394 9.94279C163.081 10.8956 164.377 12.2635 165.282 14.0465C166.187 15.8295 166.64 17.9188 166.64 20.3143Z" fill="#15577C"/>
<path d="M192.414 31.7679H186.14V18.436C186.14 16.7891 185.859 15.5573 185.297 14.7406C184.749 13.9104 183.878 13.4952 182.685 13.4952C181.08 13.4952 179.914 14.0805 179.188 15.2511C178.461 16.4216 178.097 18.3475 178.097 21.0289V31.7679H171.823V8.94239H176.616L177.46 11.8619H177.809C178.426 10.8139 179.318 9.99724 180.484 9.41196C181.649 8.81308 182.986 8.51364 184.495 8.51364C187.937 8.51364 190.268 9.62974 191.489 11.8619H192.044C192.661 10.8003 193.566 9.97682 194.759 9.39155C195.966 8.80628 197.324 8.51364 198.832 8.51364C201.438 8.51364 203.406 9.18058 204.736 10.5145C206.08 11.8347 206.752 13.958 206.752 16.8844V31.7679H200.458V18.436C200.458 16.7891 200.176 15.5573 199.614 14.7406C199.066 13.9104 198.195 13.4952 197.002 13.4952C195.466 13.4952 194.314 14.0397 193.546 15.1286C192.792 16.2174 192.414 17.946 192.414 20.3143V31.7679Z" fill="#15577C"/>
<path d="M222.735 12.944C221.405 12.944 220.363 13.3659 219.609 14.2098C218.854 15.0401 218.422 16.2242 218.313 17.7623H227.117C227.089 16.2242 226.685 15.0401 225.903 14.2098C225.122 13.3659 224.066 12.944 222.735 12.944ZM223.62 32.1763C219.917 32.1763 217.024 31.1622 214.939 29.1342C212.855 27.1062 211.812 24.2343 211.812 20.5185C211.812 16.6938 212.772 13.7402 214.692 11.6578C216.626 9.56168 219.293 8.51364 222.694 8.51364C225.944 8.51364 228.475 9.43238 230.285 11.2699C232.095 13.1073 233 15.6458 233 18.8852V21.9068H218.169C218.237 23.6762 218.765 25.0577 219.753 26.0513C220.74 27.0449 222.125 27.5417 223.908 27.5417C225.293 27.5417 226.603 27.3988 227.837 27.113C229.071 26.8272 230.36 26.3712 231.704 25.7451V30.5634C230.607 31.1078 229.435 31.5093 228.187 31.7679C226.939 32.0401 225.416 32.1763 223.62 32.1763Z" fill="#15577C"/>
<path d="M20.957 19.5257C20.9372 19.8331 20.9272 20.1457 20.9272 20.4636C20.9272 23.9484 22.1021 26.8109 24.4517 29.0511C26.8175 31.2914 29.7385 32.4115 33.2147 32.4115C36.5944 32.4115 39.4832 31.3069 41.8811 29.0978C44.2951 26.8887 45.5022 24.0106 45.5022 20.4636C45.5022 16.9166 44.2951 14.0463 41.8811 11.8527C39.4671 9.64362 36.5783 8.53906 33.2147 8.53906C29.7868 8.53906 26.8819 9.65918 24.5 11.8994C23.8578 12.4992 23.3022 13.1448 22.8332 13.8363H33.5578C37.2984 13.8363 40.3307 16.8081 40.3307 20.474C40.3307 24.1399 37.2984 27.1117 33.5578 27.1117C29.8172 27.1117 26.7848 24.1399 26.7848 20.474C26.7848 20.152 26.8082 19.8354 26.8534 19.5257H20.957Z" fill="#15577C"/>
<ellipse cx="33.4758" cy="20.4753" rx="3.00657" ry="2.98405" fill="#D61BA2"/>
</svg>
