<svg width="1416" height="991" viewBox="0 0 1416 991" fill="none" xmlns="http://www.w3.org/2000/svg">
<path d="M1334.64 0H81.062C36.3381 0 0 36.3381 0 81.062V909.938C0 954.662 36.3381 991 81.062 991H1334.64C1379.36 991 1415.7 954.662 1415.7 909.938V80.9746C1415.7 36.3381 1379.36 0 1334.64 0ZM1332.54 907.754L83.1584 909.851L81.062 83.071L1332.54 80.9746V907.754Z" fill="white"/>
<path d="M1262.66 495.598C1262.66 678.616 1114.84 828.197 930.063 828.197C747.046 828.197 597.465 678.616 597.465 495.598C597.465 312.581 745.286 163 928.303 163C1114.84 163 1262.66 312.581 1262.66 495.598Z" fill="#FFB600"/>
<path d="M930.063 163C1113.08 163 1262.66 312.581 1262.66 495.598C1262.66 678.616 1114.84 828.197 930.063 828.197C747.046 828.197 597.465 678.616 597.465 495.598" fill="#F7981D"/>
<path d="M930.062 163C1113.08 163 1262.66 312.581 1262.66 495.598C1262.66 678.616 1114.84 828.197 930.062 828.197" fill="#FF8500"/>
<path d="M483.079 163C301.822 164.76 154 312.581 154 495.598C154 678.616 301.821 828.197 486.598 828.197C572.828 828.197 650.258 794.761 710.09 741.968C722.409 731.409 732.968 719.09 743.526 706.772H674.895C666.096 696.213 657.297 683.895 650.258 673.336H768.163C775.202 662.777 782.241 650.459 787.521 638.141H630.9C625.621 627.582 620.342 615.263 616.822 602.945H799.839C810.398 569.509 817.437 534.314 817.437 497.358C817.437 472.721 813.917 449.844 810.398 426.967H606.263C608.023 414.649 611.543 404.09 615.062 391.771H798.079C794.56 379.453 789.28 367.134 784.001 356.576H629.141C634.42 344.257 641.459 333.699 648.498 321.38H766.403C759.364 309.062 750.565 296.743 740.007 286.185H674.895C685.453 273.866 696.012 263.307 708.331 252.749C650.258 198.196 571.068 166.52 484.839 166.52C484.839 163 484.839 163 483.079 163Z" fill="#FF5050"/>
<path d="M154 495.602C154 678.619 301.821 828.201 486.598 828.201C572.828 828.201 650.258 794.765 710.09 741.971C722.409 731.413 732.968 719.094 743.526 706.776H674.895C666.096 696.217 657.297 683.899 650.258 673.34H768.163C775.202 662.781 782.241 650.463 787.521 638.144H630.9C625.621 627.586 620.342 615.267 616.822 602.949H799.839C810.398 569.513 817.437 534.317 817.437 497.362C817.437 472.725 813.917 449.848 810.398 426.971H606.263C608.023 414.652 611.543 404.094 615.062 391.775H798.079C794.56 379.457 789.28 367.138 784.001 356.58H629.141C634.42 344.261 641.459 333.703 648.498 321.384H766.403C759.364 309.066 750.565 296.747 740.007 286.188H674.895C685.453 273.87 696.012 263.311 708.331 252.753C650.258 198.199 571.068 166.523 484.839 166.523H483.079" fill="#E52836"/>
<path d="M486.599 828.201C572.828 828.201 650.258 794.765 710.091 741.971C722.409 731.413 732.968 719.094 743.526 706.776H674.895C666.096 696.217 657.297 683.899 650.258 673.34H768.163C775.203 662.781 782.242 650.463 787.521 638.144H630.901C625.621 627.586 620.342 615.267 616.822 602.949H799.839C810.398 569.513 817.437 534.317 817.437 497.362C817.437 472.725 813.918 449.848 810.398 426.971H606.264C608.023 414.652 611.543 404.094 615.063 391.775H798.08C794.56 379.457 789.281 367.138 784.001 356.58H629.141C634.42 344.261 641.459 333.703 648.498 321.384H766.404C759.364 309.066 750.566 296.747 740.007 286.188H674.895C685.454 273.87 696.012 263.311 708.331 252.753C650.258 198.199 571.068 166.523 484.839 166.523H483.079" fill="#CB2026"/>
<path d="M604.504 580.066L609.783 550.15C608.023 550.15 604.504 551.91 600.984 551.91C588.666 551.91 586.906 544.871 588.666 541.351L599.224 479.759H618.582L623.861 446.323H606.263L609.783 425.206H574.587C574.587 425.206 553.47 541.351 553.47 555.429C553.47 576.547 565.789 585.346 581.627 585.346C592.185 585.346 600.984 581.826 604.504 580.066Z" fill="white"/>
<path d="M616.822 523.754C616.822 573.027 650.258 585.346 678.414 585.346C704.811 585.346 715.37 580.067 715.37 580.067L722.409 546.631C722.409 546.631 703.051 555.43 685.453 555.43C646.738 555.43 653.777 527.273 653.777 527.273H725.928C725.928 527.273 731.208 504.396 731.208 495.597C731.208 472.72 718.889 444.564 680.174 444.564C643.219 441.044 616.822 479.759 616.822 523.754ZM678.414 472.72C697.772 472.72 694.252 495.597 694.252 497.357H655.537C655.537 495.597 659.057 472.72 678.414 472.72Z" fill="white"/>
<path d="M901.906 580.068L908.945 541.353C908.945 541.353 891.348 550.152 879.029 550.152C854.392 550.152 843.834 530.794 843.834 509.677C843.834 467.442 864.951 444.565 889.588 444.565C907.186 444.565 921.264 455.123 921.264 455.123L926.543 418.168C926.543 418.168 905.426 409.369 886.068 409.369C845.593 409.369 805.118 444.565 805.118 511.436C805.118 555.431 826.236 585.347 868.47 585.347C882.549 585.347 901.906 580.068 901.906 580.068Z" fill="white"/>
<path d="M410.928 441.042C386.291 441.042 368.693 448.081 368.693 448.081L363.414 477.997C363.414 477.997 379.252 470.958 402.129 470.958C414.447 470.958 425.006 472.718 425.006 483.277C425.006 490.316 423.246 492.076 423.246 492.076C423.246 492.076 412.687 492.076 407.408 492.076C377.492 492.076 344.056 504.394 344.056 544.869C344.056 576.545 365.173 583.584 377.492 583.584C402.129 583.584 412.687 567.746 414.447 567.746L412.687 581.824H444.363L458.442 485.036C458.442 442.802 423.246 441.042 410.928 441.042ZM417.967 520.232C417.967 525.511 414.447 553.668 393.33 553.668C382.771 553.668 379.252 544.869 379.252 539.59C379.252 530.791 384.531 518.472 410.928 518.472C416.207 520.232 417.967 520.232 417.967 520.232Z" fill="white"/>
<path d="M491.877 583.591C500.676 583.591 544.67 585.35 544.67 537.836C544.67 493.842 502.436 502.641 502.436 485.043C502.436 476.244 509.475 472.724 521.793 472.724C527.073 472.724 546.43 474.484 546.43 474.484L551.71 442.808C551.71 442.808 539.391 439.289 518.274 439.289C491.877 439.289 465.48 449.847 465.48 485.043C465.48 525.518 509.475 521.998 509.475 537.836C509.475 548.395 497.156 550.155 488.357 550.155C472.519 550.155 456.681 544.875 456.681 544.875L451.402 576.551C453.162 580.071 461.961 583.591 491.877 583.591Z" fill="white"/>
<path d="M1194.03 412.893L1186.99 460.407C1186.99 460.407 1172.91 442.809 1153.55 442.809C1121.88 442.809 1093.72 481.524 1093.72 527.278C1093.72 555.435 1107.8 585.351 1137.72 585.351C1158.83 585.351 1171.15 571.273 1171.15 571.273L1169.39 583.591H1204.59L1230.98 414.652L1194.03 412.893ZM1178.19 506.161C1178.19 525.518 1169.39 550.155 1150.03 550.155C1137.72 550.155 1130.68 539.597 1130.68 521.999C1130.68 493.842 1143 476.245 1158.83 476.245C1171.15 476.245 1178.19 485.044 1178.19 506.161Z" fill="white"/>
<path d="M219.112 581.831L240.229 455.127L243.749 581.831H268.385L314.14 455.127L294.782 581.831H331.738L359.894 412.893H301.821L266.626 516.72L264.866 412.893H213.832L185.676 581.831H219.112Z" fill="white"/>
<path d="M764.644 581.827C775.202 523.755 776.962 476.24 801.599 485.039C805.118 462.162 810.398 453.363 813.917 444.564C813.917 444.564 812.158 444.564 806.878 444.564C791.04 444.564 778.722 465.682 778.722 465.682L782.241 446.324H748.805L725.928 583.587H764.644V581.827Z" fill="white"/>
<path d="M982.856 441.042C958.219 441.042 940.621 448.081 940.621 448.081L935.342 477.997C935.342 477.997 951.18 470.958 974.057 470.958C986.375 470.958 996.934 472.718 996.934 483.277C996.934 490.316 995.174 492.076 995.174 492.076C995.174 492.076 984.616 492.076 979.336 492.076C949.42 492.076 915.984 504.394 915.984 544.869C915.984 576.545 937.102 583.584 949.42 583.584C974.057 583.584 984.616 567.746 986.376 567.746L984.616 581.824H1016.29L1030.37 485.036C1032.13 442.802 995.174 441.042 982.856 441.042ZM991.655 520.232C991.655 525.511 988.135 553.668 967.018 553.668C956.459 553.668 952.94 544.869 952.94 539.59C952.94 530.791 958.219 518.472 984.616 518.472C989.895 520.232 989.895 520.232 991.655 520.232Z" fill="white"/>
<path d="M1060.29 581.827C1070.85 523.755 1072.6 476.24 1097.24 485.039C1100.76 462.162 1106.04 453.363 1109.56 444.564C1109.56 444.564 1107.8 444.564 1102.52 444.564C1086.68 444.564 1074.36 465.682 1074.36 465.682L1077.88 446.324H1044.45L1021.57 583.587H1060.29V581.827Z" fill="white"/>
<path d="M549.95 555.429C549.95 576.547 562.269 585.346 578.107 585.346C590.425 585.346 600.984 581.826 604.504 580.066L609.783 550.15C608.023 550.15 604.504 551.91 600.984 551.91C588.666 551.91 586.906 544.871 588.666 541.351L599.224 479.759H618.582L623.861 446.323H606.263L609.783 425.206" fill="#DCE5E5"/>
<path d="M634.42 523.754C634.42 573.027 650.258 585.346 678.414 585.346C704.811 585.346 715.37 580.067 715.37 580.067L722.409 546.631C722.409 546.631 703.051 555.43 685.453 555.43C646.738 555.43 653.777 527.273 653.777 527.273H725.928C725.928 527.273 731.208 504.396 731.208 495.597C731.208 472.72 718.889 444.564 680.174 444.564C643.219 441.044 634.42 479.759 634.42 523.754ZM678.414 472.72C697.772 472.72 701.291 495.597 701.291 497.357H655.537C655.537 495.597 659.057 472.72 678.414 472.72Z" fill="#DCE5E5"/>
<path d="M901.906 580.068L908.945 541.353C908.945 541.353 891.348 550.152 879.029 550.152C854.392 550.152 843.834 530.794 843.834 509.677C843.834 467.442 864.951 444.565 889.588 444.565C907.186 444.565 921.264 455.123 921.264 455.123L926.543 418.168C926.543 418.168 905.426 409.369 886.068 409.369C845.593 409.369 822.716 444.565 822.716 511.436C822.716 555.431 826.236 585.347 868.47 585.347C882.549 585.347 901.906 580.068 901.906 580.068Z" fill="#DCE5E5"/>
<path d="M363.414 479.76C363.414 479.76 379.252 472.721 402.129 472.721C414.447 472.721 425.006 474.481 425.006 485.039C425.006 492.078 423.246 493.838 423.246 493.838C423.246 493.838 412.687 493.838 407.408 493.838C377.492 493.838 344.056 506.157 344.056 546.632C344.056 578.308 365.173 585.347 377.492 585.347C402.129 585.347 412.687 569.509 414.447 569.509L412.687 583.587H444.363L458.442 486.799C458.442 446.324 423.246 444.564 409.168 444.564L363.414 479.76ZM435.565 520.235C435.565 525.514 414.447 553.671 393.33 553.671C382.771 553.671 379.252 544.872 379.252 539.593C379.252 530.794 384.531 518.475 410.928 518.475C416.207 520.235 435.565 520.235 435.565 520.235Z" fill="#DCE5E5"/>
<path d="M453.162 580.071C453.162 580.071 463.721 583.591 493.637 583.591C502.436 583.591 546.431 585.35 546.431 537.836C546.431 493.842 504.196 502.641 504.196 485.043C504.196 476.244 511.235 472.724 523.554 472.724C528.833 472.724 548.191 474.484 548.191 474.484L553.47 442.808C553.47 442.808 541.151 439.289 520.034 439.289C493.637 439.289 484.838 449.847 484.838 485.043C484.838 525.518 511.235 521.998 511.235 537.836C511.235 548.395 498.917 550.155 490.118 550.155" fill="#DCE5E5"/>
<path d="M1186.99 460.399C1186.99 460.399 1172.91 442.802 1153.56 442.802C1121.88 442.802 1111.32 481.517 1111.32 527.271C1111.32 555.427 1107.8 585.344 1137.72 585.344C1158.83 585.344 1171.15 571.265 1171.15 571.265L1169.39 583.584H1204.59L1230.99 414.645L1186.99 460.399ZM1185.23 506.154C1185.23 525.511 1169.39 550.148 1150.04 550.148C1137.72 550.148 1130.68 539.589 1130.68 521.992C1130.68 493.835 1143 476.237 1158.83 476.237C1171.15 476.237 1185.23 485.036 1185.23 506.154Z" fill="#DCE5E5"/>
<path d="M219.112 581.831L240.229 455.127L243.749 581.831H268.385L314.14 455.127L294.782 581.831H331.738L359.894 412.893H315.899L266.626 516.72L264.866 412.893H245.508L185.676 581.831H219.112Z" fill="#DCE5E5"/>
<path d="M727.688 581.827H764.643C775.202 523.755 776.962 476.24 801.598 485.039C805.118 462.162 810.397 453.363 813.917 444.564C813.917 444.564 812.157 444.564 806.878 444.564C791.04 444.564 778.721 465.682 778.721 465.682L782.241 446.324" fill="#DCE5E5"/>
<path d="M935.342 479.76C935.342 479.76 951.18 472.721 974.057 472.721C986.375 472.721 996.934 474.481 996.934 485.039C996.934 492.078 995.174 493.838 995.174 493.838C995.174 493.838 984.616 493.838 979.336 493.838C949.42 493.838 915.984 506.157 915.984 546.632C915.984 578.308 937.102 585.347 949.42 585.347C974.057 585.347 984.616 569.509 986.376 569.509L984.616 583.587H1016.29L1030.37 486.799C1030.37 446.324 995.174 444.564 981.096 444.564L935.342 479.76ZM1007.49 520.235C1007.49 525.514 986.375 553.671 965.258 553.671C954.699 553.671 951.18 544.872 951.18 539.593C951.18 530.794 956.459 518.475 982.856 518.475C989.895 520.235 1007.49 520.235 1007.49 520.235Z" fill="#DCE5E5"/>
<path d="M1023.33 581.827H1060.29C1070.84 523.755 1072.6 476.24 1097.24 485.039C1100.76 462.162 1106.04 453.363 1109.56 444.564C1109.56 444.564 1107.8 444.564 1102.52 444.564C1086.68 444.564 1074.36 465.682 1074.36 465.682L1077.88 446.324" fill="#DCE5E5"/>
<circle cx="1231" cy="568" r="14.5" stroke="black" stroke-width="3"/>
<path d="M1224.19 575.881V559.043H1231.34C1233.14 559.043 1234.45 559.196 1235.26 559.502C1236.08 559.801 1236.73 560.337 1237.22 561.11C1237.71 561.884 1237.96 562.768 1237.96 563.764C1237.96 565.027 1237.58 566.072 1236.84 566.899C1236.1 567.718 1234.99 568.235 1233.51 568.45C1234.25 568.878 1234.85 569.349 1235.33 569.862C1235.81 570.375 1236.46 571.287 1237.27 572.596L1239.32 575.881H1235.26L1232.8 572.217C1231.93 570.908 1231.33 570.084 1231.01 569.747C1230.69 569.403 1230.35 569.169 1229.99 569.047C1229.63 568.917 1229.05 568.852 1228.27 568.852H1227.58V575.881H1224.19ZM1227.58 566.164H1230.1C1231.73 566.164 1232.75 566.095 1233.16 565.957C1233.56 565.819 1233.88 565.582 1234.11 565.245C1234.34 564.908 1234.45 564.487 1234.45 563.982C1234.45 563.415 1234.3 562.96 1233.99 562.615C1233.7 562.263 1233.27 562.041 1232.72 561.949C1232.44 561.911 1231.62 561.891 1230.24 561.891H1227.58V566.164Z" fill="black"/>
</svg>
