<svg width="2533" height="816" viewBox="0 0 2533 816" fill="none" xmlns="http://www.w3.org/2000/svg">
<path d="M307.149 816C279.235 816.002 254.067 799.195 243.372 773.411L5.2649 198.603C-9.30253 163.433 7.39681 123.112 42.5657 108.54L291.959 5.24994C308.847 -1.74846 327.823 -1.75004 344.712 5.24557C361.601 12.2412 375.018 25.6607 382.011 42.5507L620.118 617.382C634.662 652.543 617.967 692.838 582.817 707.41L333.424 810.747C325.096 814.208 316.167 815.993 307.149 816ZM318.34 37.0851C314.161 37.092 310.024 37.9242 306.167 39.534L56.7619 142.824C48.9659 146.053 42.7723 152.247 39.5441 160.044C36.3159 167.84 36.3177 176.6 39.5489 184.395L277.656 759.239C284.396 775.458 302.992 783.163 319.228 776.463L568.621 673.103C576.417 669.873 582.611 663.679 585.839 655.882C589.067 648.086 589.065 639.326 585.834 631.531L347.727 56.747C342.798 44.8622 331.207 37.1066 318.34 37.0851Z" fill="white"/>
<path style="mix-blend-mode:multiply" opacity="0.7" d="M397.734 80.4572L363.448 94.6592L457.723 322.26L492.009 308.058L397.734 80.4572Z" fill="url(#paint0_linear)"/>
<path style="mix-blend-mode:multiply" opacity="0.7" d="M569.992 593.358L604.278 579.156L497.562 321.52L463.276 335.722L569.992 593.358Z" fill="url(#paint1_linear)"/>
<path d="M526.695 422.587C455.37 452.163 395.817 492.93 356.824 542.073L256.291 299.269C302.149 245.991 360.519 204.934 426.161 179.783C497.486 150.208 569.544 135.893 630.765 144.233L731.323 387.026C661.221 381.746 590.905 393.966 526.695 422.587Z" fill="white"/>
<g style="mix-blend-mode:multiply" opacity="0.4">
<rect width="475.031" height="400.19" transform="translate(256.291 141.882)" fill="white"/>
<path style="mix-blend-mode:multiply" opacity="0.9" d="M526.695 422.587C455.37 452.163 395.817 492.93 356.824 542.073L256.291 299.269C302.149 245.991 360.519 204.934 426.161 179.783C497.486 150.208 569.544 135.893 630.765 144.233L731.323 387.026C661.221 381.746 590.905 393.966 526.695 422.587Z" fill="url(#paint2_linear)"/>
<path style="mix-blend-mode:multiply" opacity="0.7" d="M526.695 422.587C455.37 452.163 395.817 492.93 356.824 542.073L256.291 299.269C302.149 245.991 360.519 204.934 426.161 179.783C497.486 150.208 569.544 135.893 630.765 144.233L731.323 387.026C661.221 381.746 590.905 393.966 526.695 422.587Z" fill="url(#paint3_linear)"/>
</g>
<path d="M559.454 496.608C482.25 496.608 411.576 511.526 356.802 541.977V296.476C419.555 264.809 489.189 249.22 559.454 251.107C636.658 251.107 708.716 265.422 762.094 296.535V542.036C699.352 510.344 629.721 494.734 559.454 496.608ZM953.85 496.833L1016.31 299.386C1016.97 296.651 1019.31 294.647 1022.11 294.418H1053.46C1056.27 294.812 1058.64 296.722 1059.61 299.386L1108.24 423.959C1109.18 426.443 1111.67 426.68 1112.49 423.959L1160.76 299.386C1161.74 296.722 1164.1 294.812 1166.91 294.418H1198.26C1201.07 294.647 1203.4 296.651 1204.06 299.386L1265.81 496.833C1266.53 498.353 1266.39 500.141 1265.44 501.528C1264.49 502.916 1262.88 503.696 1261.2 503.576H1223.93C1221.29 503.696 1218.95 501.9 1218.37 499.317L1178.74 371.078C1178.15 368.593 1175.31 368.593 1174.48 371.078L1127.16 498.371C1126.36 501.436 1123.59 503.573 1120.42 503.576H1098.53C1095.1 503.576 1093.33 501.684 1092.03 498.371L1043.76 371.078C1042.81 368.593 1040.33 368.593 1039.74 371.078L999.16 499.317C998.53 501.964 996.077 503.766 993.363 503.576H957.873C956.273 503.552 954.8 502.701 953.981 501.327C953.161 499.953 953.112 498.252 953.85 496.833ZM1277.64 425.852C1276.97 392.215 1296.72 361.514 1327.6 348.173C1358.49 334.832 1394.37 341.502 1418.4 365.05C1442.43 388.598 1449.82 424.343 1437.11 455.492C1424.39 486.64 1394.1 507 1360.46 507.007C1338.56 507.753 1317.32 499.498 1301.67 484.165C1286.02 468.831 1277.34 447.757 1277.64 425.852ZM1400.68 425.852C1399.2 403.73 1380.28 386.866 1358.13 387.925C1335.98 388.983 1318.76 407.575 1319.39 429.737C1320.03 451.9 1338.29 469.477 1360.46 469.269C1383.48 468.308 1401.38 448.878 1400.44 425.852H1400.68ZM1516.14 490.8C1513.07 488.315 1510.34 489.262 1510.34 493.521V497.543C1510.35 500.654 1507.89 503.213 1504.78 503.34H1475.92C1472.77 503.218 1470.24 500.693 1470.12 497.543V300.096C1470.24 296.946 1472.77 294.421 1475.92 294.299H1506.32C1509.43 294.426 1511.89 296.985 1511.88 300.096V356.408C1511.88 360.43 1514.6 361.613 1518.98 358.538C1530.62 349.815 1544.77 345.085 1559.32 345.051C1601.44 345.051 1633.73 380.542 1633.73 426.207C1634.7 447.072 1627.2 467.444 1612.96 482.717C1598.71 497.99 1578.9 506.875 1558.02 507.362C1542.5 507.196 1527.58 501.297 1516.14 490.8ZM1591.86 426.207C1593.02 410.97 1585.55 396.365 1572.51 388.391C1559.48 380.416 1543.08 380.416 1530.04 388.391C1517 396.365 1509.54 410.97 1510.7 426.207C1510.29 437.247 1514.33 447.991 1521.91 456.022C1529.5 464.054 1539.99 468.699 1551.04 468.914C1562.18 468.667 1572.76 463.978 1580.42 455.891C1588.09 447.804 1592.21 436.989 1591.86 425.852V426.207ZM1659.17 308.732C1659.17 295.665 1669.76 285.072 1682.83 285.072C1695.9 285.072 1706.49 295.665 1706.49 308.732C1706.49 321.8 1695.9 332.393 1682.83 332.393C1669.76 332.393 1659.17 321.8 1659.17 308.732ZM1661.3 498.016V354.87C1661.3 351.759 1663.75 349.2 1666.86 349.073H1697.26C1698.86 349.009 1700.42 349.584 1701.6 350.672C1702.78 351.759 1703.47 353.27 1703.53 354.87V497.543C1703.41 500.693 1700.89 503.218 1697.74 503.34H1666.86C1663.75 503.213 1661.3 500.654 1661.3 497.543V498.016ZM1737.37 451.168V300.096C1737.36 296.985 1739.82 294.426 1742.93 294.299H1773.33C1776.48 294.421 1779.01 296.946 1779.13 300.096V452.115C1779.13 461.934 1783.39 468.44 1794.15 468.44C1795.69 468.44 1797.16 469.051 1798.25 470.138C1799.34 471.225 1799.95 472.7 1799.95 474.237V499.436C1799.82 502.544 1797.26 504.999 1794.15 504.996C1753.69 504.996 1737.37 491.746 1737.37 451.168ZM1811.31 426.798C1811.41 398.227 1826.75 371.882 1851.55 357.688C1876.35 343.494 1906.83 343.606 1931.52 357.984C1956.21 372.361 1971.36 398.818 1971.25 427.39C1971.25 432.95 1969.71 437.564 1964.15 437.564H1858.39C1855.67 437.564 1854.72 439.102 1854.96 441.586C1857.59 460.117 1874.15 473.423 1892.82 471.99C1904.05 472.156 1914.76 467.297 1922.04 458.74C1924.29 455.569 1927.97 453.711 1931.86 453.771H1960.13C1965.1 453.771 1967.23 457.202 1965.34 462.052C1948.75 495.866 1911.06 513.796 1874.36 505.327C1837.66 496.859 1811.63 464.223 1811.54 426.561L1811.31 426.798ZM1923.58 412.602C1925.7 412.602 1926.65 411.655 1926.3 409.171C1923.07 392.191 1908.09 380.002 1890.81 380.305C1873.9 380.289 1859.21 391.897 1855.31 408.343C1854.72 410.472 1855.31 412.602 1857.8 412.602H1923.58ZM1996.8 497.543V300.096C1996.8 296.985 1999.26 294.426 2002.36 294.299H2099.25C2143.5 294.299 2173.67 320.089 2173.67 363.506C2173.67 406.923 2139.48 433.66 2097.12 433.66H2045.78C2044.22 433.497 2042.67 434.065 2041.58 435.198C2040.5 436.331 2039.99 437.903 2040.22 439.456V497.543C2040.1 500.693 2037.57 503.218 2034.42 503.34H2002.48C1999.33 503.275 1996.8 500.699 1996.8 497.543ZM2097.12 397.932C2115.46 397.353 2129.89 382.08 2129.42 363.743C2129.68 355.057 2126.36 346.646 2120.23 340.491C2114.09 334.335 2105.69 330.978 2097.01 331.21H2045.31C2041.64 331.21 2040.1 333.103 2040.1 336.77V392.727C2040.1 396.394 2041.64 398.287 2045.31 398.287L2097.12 397.932ZM2188.57 425.852C2187.78 404.929 2195.4 384.561 2209.74 369.307C2224.09 354.053 2243.95 345.188 2264.88 344.696C2279.98 344.779 2294.54 350.374 2305.81 360.43C2308.53 362.915 2311.61 362.56 2311.61 358.892V354.87C2311.61 351.799 2314.1 349.31 2317.17 349.31H2346.03C2349.18 349.431 2351.71 351.957 2351.83 355.107V456.61C2351.83 464.3 2354.55 467.731 2359.87 468.44C2362.64 468.496 2364.9 470.654 2365.08 473.409V500.146C2365.08 503.02 2362.75 505.351 2359.87 505.351C2339.53 505.351 2327.58 499.554 2320.83 487.842C2318.94 484.766 2316.81 484.175 2313.74 487.251C2300.74 500.628 2282.82 508.072 2264.17 507.835C2243.19 507.227 2223.34 498.185 2209.11 482.755C2194.89 467.326 2187.48 446.811 2188.57 425.852ZM2311.61 425.852C2312.77 410.658 2305.32 396.094 2292.32 388.142C2279.33 380.19 2262.97 380.19 2249.97 388.142C2236.97 396.094 2229.53 410.658 2230.69 425.852C2229.53 441.045 2236.97 455.609 2249.97 463.561C2262.97 471.514 2279.33 471.514 2292.32 463.561C2305.32 455.609 2312.77 441.045 2311.61 425.852ZM2379.39 557.522V532.324C2379.52 529.215 2382.08 526.761 2385.19 526.764C2404.98 528.246 2423.24 516.044 2429.44 497.188C2430.48 493.23 2430.06 489.031 2428.25 485.358L2371.7 357.355C2370.73 355.614 2370.76 353.483 2371.79 351.772C2372.81 350.06 2374.68 349.03 2376.67 349.073H2407.08C2410.15 349.073 2412.05 351.558 2413.23 354.634L2448.72 436.499C2451.2 443.006 2455.23 442.651 2457.95 436.499L2491.78 354.397C2492.97 351.321 2494.5 349.428 2497.58 349.428H2526.8C2528.62 349.333 2530.36 350.176 2531.42 351.664C2532.48 353.151 2532.7 355.075 2532 356.763L2473.8 494.467C2452.62 544.627 2430.15 563.319 2385.19 563.319C2382.04 563.198 2379.52 560.672 2379.39 557.522Z" fill="white"/>
<defs>
<linearGradient id="paint0_linear" x1="451.811" y1="260.718" x2="436.418" y2="81.1285" gradientUnits="userSpaceOnUse">
<stop stop-color="#504678"/>
<stop offset="0.302" stop-color="#504678" stop-opacity="0.616"/>
<stop offset="0.608" stop-color="#504678" stop-opacity="0.283"/>
<stop offset="0.852" stop-color="#504678" stop-opacity="0.076"/>
<stop offset="1" stop-color="#504678" stop-opacity="0"/>
</linearGradient>
<linearGradient id="paint1_linear" x1="506.46" y1="390.27" x2="516.113" y2="591.498" gradientUnits="userSpaceOnUse">
<stop stop-color="#504678"/>
<stop offset="0.302" stop-color="#504678" stop-opacity="0.616"/>
<stop offset="0.608" stop-color="#504678" stop-opacity="0.283"/>
<stop offset="0.852" stop-color="#504678" stop-opacity="0.076"/>
<stop offset="1" stop-color="#504678" stop-opacity="0"/>
</linearGradient>
<linearGradient id="paint2_linear" x1="321.38" y1="407.373" x2="509.763" y2="278.948" gradientUnits="userSpaceOnUse">
<stop stop-color="#504678"/>
<stop offset="0.179" stop-color="#504678" stop-opacity="0.872"/>
<stop offset="0.526" stop-color="#504678" stop-opacity="0.536"/>
<stop offset="1" stop-color="#504678" stop-opacity="0"/>
</linearGradient>
<linearGradient id="paint3_linear" x1="482.995" y1="281.833" x2="474.639" y2="214.999" gradientUnits="userSpaceOnUse">
<stop stop-color="#504678"/>
<stop offset="0.643" stop-color="#504678" stop-opacity="0.332"/>
<stop offset="1" stop-color="#504678" stop-opacity="0"/>
</linearGradient>
</defs>
</svg>
