<svg width="1416" height="991" viewBox="0 0 1416 991" fill="none" xmlns="http://www.w3.org/2000/svg">
<path d="M1334.64 0H81.062C36.3381 0 0 36.3381 0 81.062V909.938C0 954.662 36.3381 991 81.062 991H1334.64C1379.36 991 1415.7 954.662 1415.7 909.938V80.9746C1415.7 36.3381 1379.36 0 1334.64 0ZM1332.54 907.754L83.1584 909.851L81.062 83.071L1332.54 80.9746V907.754Z" fill="white"/>
<path d="M214.619 381.218L256.635 682.23H359.797L552.144 309.502H443.741L362.068 482.371C350.537 506.916 340.492 529.104 331.844 549.456C330.272 528.23 328.525 507.615 326.429 486.563L309.919 309.59H145L316.47 445.246L214.619 381.218Z" fill="white"/>
<path d="M626.216 682.315L696.883 309.587H599.836L529.081 682.315H626.216Z" fill="white"/>
<path d="M683.084 660.306C705.796 677.339 745.802 687.472 790.089 687.472C881.896 687.472 943.566 635.585 943.566 558.454C943.566 516.264 918.933 482.808 868.356 456.341C840.054 440.443 822.846 429.786 822.846 416.334C822.846 403.755 836.036 390.216 867.308 390.216C897.794 390.216 921.029 402.183 925.484 404.541L936.49 410.569L967.5 327.585L959.376 323.043C936.141 310.202 907.315 304 871.239 304C783.363 304 721.956 355.363 721.956 428.912C721.956 482.197 763.884 511.809 800.746 531.725C835.337 549.719 842.151 559.939 842.151 571.557C842.151 593.919 818.042 601.868 797.34 601.868C770.348 601.868 742.221 594.268 720.121 580.991L709.202 574.527L676.358 655.414L683.084 660.306Z" fill="white"/>
<path d="M1037.2 682.315L1078.87 591.207H1162.9L1170.24 682.315H1271.04L1227.36 309.587H1114.59L933.251 682.315H1037.2ZM1138.53 452.057C1142.37 443.671 1146.3 434.062 1150.32 424.192C1151.02 433.014 1151.63 441.313 1152.15 448.475L1157.83 512.154H1110.66L1138.53 452.057Z" fill="white"/>
</svg>
