<svg width="44" height="18" viewBox="0 0 44 18" fill="none" xmlns="http://www.w3.org/2000/svg">
<path fill-rule="evenodd" clip-rule="evenodd" d="M5.78207 3.34005C6.59428 3.40857 7.40649 2.92897 7.91412 2.32091C8.41329 1.69572 8.74325 0.856424 8.65864 0C7.9395 0.034257 7.05115 0.479598 6.54352 1.10479C6.07819 1.64433 5.68055 2.51789 5.78207 3.34005ZM15.4438 14.369V1.0189H20.3932C22.9482 1.0189 24.7334 2.80006 24.7334 5.40328C24.7334 8.00651 22.9144 9.80479 20.3255 9.80479H17.4912V14.369H15.4438ZM8.65012 3.50223C7.93458 3.46054 7.28168 3.72003 6.75432 3.92963C6.41495 4.0645 6.12756 4.17872 5.90892 4.17872C5.66357 4.17872 5.36432 4.0584 5.02832 3.9233C4.58807 3.74628 4.08473 3.54389 3.5569 3.55361C2.34705 3.57073 1.22181 4.26435 0.604193 5.36901C-0.664881 7.57833 0.274234 10.8495 1.50101 12.6478C2.1017 13.5384 2.82084 14.5146 3.76842 14.4803C4.18529 14.4644 4.48517 14.3356 4.79551 14.2023C5.1528 14.0489 5.52397 13.8894 6.10351 13.8894C6.66297 13.8894 7.0179 14.0447 7.35861 14.1937C7.68257 14.3354 7.99368 14.4715 8.45553 14.4632C9.43695 14.4461 10.0546 13.5726 10.6553 12.682C11.3035 11.7262 11.5884 10.7934 11.6316 10.6518L11.6367 10.6354C11.6356 10.6344 11.6276 10.6307 11.6135 10.6241L11.6135 10.6241C11.3968 10.5237 9.74049 9.75623 9.7246 7.69822C9.70865 5.97082 11.0384 5.09561 11.2477 4.95784C11.2604 4.94945 11.269 4.9438 11.2729 4.94085C10.4268 3.67349 9.10699 3.53648 8.65012 3.50223ZM28.4732 14.4719C29.7592 14.4719 30.9521 13.8126 31.4936 12.7678H31.5359V14.3692H33.4311V7.72409C33.4311 5.79736 31.9082 4.55568 29.5646 4.55568C27.3903 4.55568 25.7828 5.81448 25.7236 7.54426H27.568C27.7202 6.72219 28.4732 6.1827 29.5054 6.1827C30.7576 6.1827 31.4598 6.77357 31.4598 7.8611V8.59754L28.9047 8.75167C26.5273 8.89725 25.2413 9.88202 25.2413 11.5947C25.2413 13.3244 26.5696 14.4719 28.4732 14.4719ZM29.0229 12.888C27.9315 12.888 27.2378 12.357 27.2378 11.5434C27.2378 10.7041 27.9061 10.2159 29.1837 10.1389L31.4595 9.99327V10.7469C31.4595 11.9973 30.4104 12.888 29.0229 12.888ZM39.7171 14.8916C38.8965 17.2294 37.9573 18.0001 35.9607 18.0001C35.8084 18.0001 35.3007 17.9829 35.1823 17.9487V16.3474C35.3092 16.3645 35.6222 16.3816 35.783 16.3816C36.6883 16.3816 37.1959 15.9963 37.5089 14.9944L37.6951 14.4035L34.2263 4.68422H36.3668L38.778 12.571H38.8203L41.2316 4.68422H43.3128L39.7171 14.8916ZM17.4915 2.76603H19.8519C21.6286 2.76603 22.6439 3.72522 22.6439 5.41238C22.6439 7.09953 21.6286 8.06729 19.8435 8.06729H17.4915V2.76603Z" fill="black"/>
</svg>
