<svg width="51" height="21" viewBox="0 0 51 21" fill="none" xmlns="http://www.w3.org/2000/svg">
<path fill-rule="evenodd" clip-rule="evenodd" d="M6.69232 3.86592C7.6324 3.94522 8.57248 3.39011 9.16003 2.68632C9.73779 1.9627 10.1197 0.99126 10.0218 0C9.18941 0.0396504 8.16119 0.555106 7.57364 1.27873C7.03505 1.90322 6.57481 2.91431 6.69232 3.86592ZM17.8755 16.6316V1.17969H23.6041C26.5615 1.17969 28.6277 3.24127 28.6277 6.25435C28.6277 9.26743 26.5223 11.3488 23.5258 11.3488H20.2453V16.6316H17.8755ZM10.012 4.05398C9.18381 4.00573 8.42812 4.30608 7.81772 4.54867C7.42492 4.70478 7.09229 4.83698 6.83923 4.83698C6.55524 4.83698 6.20888 4.69772 5.81999 4.54135C5.31042 4.33646 4.72784 4.10221 4.11691 4.11345C2.71658 4.13327 1.41417 4.9361 0.699318 6.21468C-0.76956 8.77183 0.317409 12.558 1.73732 14.6394C2.43259 15.6702 3.26496 16.8001 4.36172 16.7605C4.84423 16.742 5.19132 16.593 5.55052 16.4387C5.96406 16.2611 6.39367 16.0766 7.06446 16.0766C7.71199 16.0766 8.1228 16.2563 8.51716 16.4288C8.89213 16.5928 9.25221 16.7503 9.78678 16.7406C10.9227 16.7208 11.6376 15.7098 12.3328 14.6791C13.0831 13.5727 13.4129 12.493 13.4629 12.3292L13.4688 12.3102C13.4676 12.309 13.4583 12.3047 13.4421 12.2972L13.442 12.2971L13.4419 12.2971C13.1911 12.1809 11.274 11.2926 11.2557 8.91059C11.2372 6.91123 12.7762 5.89823 13.0185 5.73877C13.0332 5.72906 13.0432 5.72252 13.0477 5.7191C12.0684 4.25221 10.5408 4.09363 10.012 4.05398ZM32.9561 16.7504C34.4445 16.7504 35.8253 15.9872 36.452 14.778H36.501V16.6314H38.6945V8.94013C38.6945 6.71005 36.9318 5.27289 34.2193 5.27289C31.7026 5.27289 29.842 6.72988 29.7735 8.73199H31.9083C32.0845 7.78049 32.9561 7.15607 34.1508 7.15607C35.6 7.15607 36.4128 7.83996 36.4128 9.09871V9.9511L33.4555 10.1295C30.7038 10.298 29.2153 11.4378 29.2153 13.4201C29.2153 15.4222 30.7528 16.7504 32.9561 16.7504ZM33.5926 14.9173C32.3294 14.9173 31.5264 14.3028 31.5264 13.3611C31.5264 12.3896 32.3 11.8246 33.7786 11.7354L36.4128 11.5669V12.4392C36.4128 13.8864 35.1986 14.9173 33.5926 14.9173ZM45.9701 17.2358C45.0202 19.9417 43.9333 20.8337 41.6222 20.8337C41.4459 20.8337 40.8584 20.8139 40.7213 20.7742V18.9208C40.8682 18.9406 41.2305 18.9604 41.4166 18.9604C42.4644 18.9604 43.0519 18.5144 43.4142 17.3548L43.6297 16.6709L39.6147 5.42139H42.0923L44.8831 14.5498H44.9321L47.723 5.42139H50.1319L45.9701 17.2358ZM20.2451 3.20117H22.9772C25.0337 3.20117 26.2088 4.31138 26.2088 6.26416C26.2088 8.21695 25.0337 9.33707 22.9674 9.33707H20.2451V3.20117Z" fill="black"/>
</svg>
