<svg width="50" height="22" viewBox="0 0 50 22" fill="none" xmlns="http://www.w3.org/2000/svg">
<path fill-rule="evenodd" clip-rule="evenodd" d="M23.0603 16.9361V10.8949H26.1786C27.4564 10.8949 28.535 10.4668 29.4142 9.62241L29.6252 9.40835C31.2313 7.66021 31.1258 4.93691 29.4142 3.31958C28.5584 2.46334 27.3861 1.99955 26.1786 2.02333H21.1729V16.9361H23.0603ZM23.0605 9.06386V3.85449H26.2263C26.9063 3.85449 27.5512 4.11615 28.0319 4.59189C29.052 5.59095 29.0755 7.25604 28.0906 8.29078C27.6098 8.8022 26.9298 9.08764 26.2263 9.06386H23.0605ZM38.4296 7.52917C37.6207 6.77996 36.5187 6.39941 35.1237 6.39941C33.33 6.39941 31.9819 7.06537 31.0909 8.3854L32.7556 9.4438C33.3652 8.54 34.1976 8.0881 35.2526 8.0881C35.9209 8.0881 36.5656 8.33783 37.0697 8.78974C37.5621 9.21785 37.8434 9.83625 37.8434 10.4903V10.9303C37.1166 10.526 36.2022 10.3119 35.0768 10.3119C33.7638 10.3119 32.7087 10.6211 31.9233 11.2514C31.1378 11.8817 30.7392 12.7141 30.7392 13.7725C30.7158 14.7358 31.1261 15.6515 31.8529 16.2699C32.5915 16.9359 33.5293 17.2688 34.6313 17.2688C35.9326 17.2688 36.9642 16.6861 37.7497 15.5207H37.8317V16.9359H39.6371V10.6449C39.6371 9.32488 39.2385 8.27837 38.4296 7.52917ZM33.307 15.0572C32.92 14.7718 32.6855 14.3079 32.6855 13.8084C32.6855 13.2494 32.9435 12.7855 33.4477 12.4168C33.9636 12.0481 34.6084 11.8578 35.3706 11.8578C36.4258 11.846 37.2466 12.0838 37.8328 12.5596C37.8328 13.3683 37.5162 14.07 36.8948 14.6647C36.332 15.2356 35.5699 15.5567 34.7726 15.5567C34.245 15.5686 33.7291 15.3902 33.307 15.0572ZM43.6928 21.4192L49.9998 6.73242H47.9483L45.0292 14.058H44.9941L42.0047 6.73242H39.9531L44.0914 16.2818L41.7468 21.4192H43.6928Z" fill="#3C4043"/>
<path d="M16.544 9.58704C16.544 9.00426 16.4971 8.42147 16.4034 7.85059H8.44336V11.1451H13.0037C12.8161 12.2036 12.2065 13.1551 11.3155 13.7498V15.8906H14.0353C15.6296 14.4039 16.544 12.2036 16.544 9.58704Z" fill="#4285F4"/>
<path d="M8.44421 17.9596C10.7185 17.9596 12.6411 17.1984 14.0361 15.8902L11.3164 13.7493C10.5544 14.2726 9.58136 14.57 8.44421 14.57C6.24027 14.57 4.37629 13.0595 3.70807 11.0376H0.90625V13.2498C2.33647 16.1399 5.25553 17.9596 8.44421 17.9596Z" fill="#34A853"/>
<path d="M3.70803 11.0381C3.35628 9.97957 3.35628 8.82589 3.70803 7.75548V5.55518H0.905755C-0.301918 7.96956 -0.301918 10.824 0.905755 13.2384L3.70803 11.0381Z" fill="#FBBC04"/>
<path d="M8.44421 4.22367C9.65169 4.19988 10.8123 4.66373 11.6798 5.50817L14.0948 3.0581C12.559 1.60709 10.5427 0.810227 8.44421 0.834014C5.25553 0.834014 2.33647 2.66562 0.90625 5.55574L3.70807 7.76794C4.37629 5.73415 6.24027 4.22367 8.44421 4.22367Z" fill="#EA4335"/>
</svg>
