<svg width="44" height="18" viewBox="0 0 44 18" fill="none" xmlns="http://www.w3.org/2000/svg">
<path fill-rule="evenodd" clip-rule="evenodd" d="M20.1635 14.0798V8.79743H22.8901C24.0074 8.79743 24.9505 8.42309 25.7193 7.68481L25.9038 7.49764C27.3081 5.9691 27.2158 3.58789 25.7193 2.17373C24.971 1.42505 23.9459 1.01952 22.8901 1.04031H18.5132V14.0798H20.1635ZM20.1637 7.19669V2.64172H22.9318C23.5264 2.64172 24.0903 2.87051 24.5106 3.28649C25.4026 4.16004 25.4231 5.61597 24.5619 6.52072C24.1415 6.9679 23.5469 7.21749 22.9318 7.19669H20.1637ZM33.6018 5.8548C32.8945 5.1997 31.931 4.86696 30.7112 4.86696C29.1429 4.86696 27.9641 5.44926 27.185 6.60347L28.6406 7.52892C29.1736 6.73865 29.9014 6.34352 30.8239 6.34352C31.4082 6.34352 31.972 6.56188 32.4128 6.95701C32.8433 7.33135 33.0893 7.87206 33.0893 8.44397V8.8287C32.4538 8.47516 31.6542 8.28799 30.6702 8.28799C29.5221 8.28799 28.5996 8.55835 27.9128 9.10946C27.226 9.66057 26.8775 10.3884 26.8775 11.3139C26.857 12.1562 27.2158 12.9568 27.8513 13.4975C28.4971 14.0798 29.3171 14.371 30.2807 14.371C31.4185 14.371 32.3205 13.8615 33.0073 12.8424H33.0791V14.0798H34.6576V8.57915C34.6576 7.42494 34.3091 6.50989 33.6018 5.8548ZM29.1227 12.4372C28.7844 12.1876 28.5793 11.782 28.5793 11.3452C28.5793 10.8565 28.8049 10.4509 29.2457 10.1285C29.6968 9.80611 30.2607 9.63971 30.9271 9.63971C31.8498 9.62931 32.5674 9.8373 33.08 10.2533C33.08 10.9604 32.8032 11.574 32.2598 12.094C31.7677 12.5932 31.1014 12.874 30.4042 12.874C29.9429 12.8844 29.4918 12.7284 29.1227 12.4372ZM38.2042 18L43.719 5.15813H41.9251L39.3727 11.5635H39.342L36.7281 5.15813H34.9343L38.5527 13.5079L36.5026 18H38.2042Z" fill="#3C4043"/>
<path d="M14.4659 7.65382C14.4659 7.14425 14.4249 6.63467 14.3429 6.1355H7.38281V9.01615H11.3702C11.2062 9.94171 10.6732 10.7737 9.89418 11.2936V13.1655H12.2723C13.6664 11.8656 14.4659 9.94171 14.4659 7.65382Z" fill="#4285F4"/>
<path d="M7.38305 14.9746C9.37164 14.9746 11.0527 14.309 12.2725 13.1651L9.89442 11.2932C9.22814 11.7508 8.37735 12.0108 7.38305 12.0108C5.45596 12.0108 3.82613 10.69 3.24186 8.92212H0.791992V10.8564C2.04255 13.3835 4.59492 14.9746 7.38305 14.9746Z" fill="#34A853"/>
<path d="M3.24223 8.92282C2.93467 7.99727 2.93467 6.98852 3.24223 6.05257V4.12866H0.791976C-0.263992 6.23976 -0.263992 8.73563 0.791976 10.8467L3.24223 8.92282Z" fill="#FBBC04"/>
<path d="M7.38305 2.9643C8.43885 2.94351 9.45365 3.34909 10.2122 4.08745L12.3238 1.94516C10.981 0.676419 9.21789 -0.0203464 7.38305 0.000452595C4.59492 0.000452595 2.04255 1.60197 0.791992 4.12905L3.24186 6.06335C3.82613 4.28504 5.45596 2.9643 7.38305 2.9643Z" fill="#EA4335"/>
</svg>
