<svg width="44" height="26" viewBox="0 0 44 26" fill="none" xmlns="http://www.w3.org/2000/svg">
<path fill-rule="evenodd" clip-rule="evenodd" d="M30.4162 26L31.0872 25.9814L31.749 25.9327L32.3991 25.8491L33.0422 25.7353L33.6691 25.5914L34.2891 25.4149L34.8927 25.2106L35.4848 24.9784L36.0653 24.7137L36.6248 24.4281L37.1682 24.1147L37.6999 23.7757L38.2083 23.4111L38.6982 23.0257L39.1719 22.6194L39.6247 22.1852L40.0588 21.7325L40.4675 21.2588L40.8529 20.7689L41.2175 20.2581L41.5541 19.7287L41.8699 19.1854L42.1555 18.6235L42.4178 18.0454L42.65 17.4533L42.8567 16.8473L43.0308 16.2297L43.1771 15.6028L43.2909 14.9573L43.3744 14.3095L43.4232 13.6455L43.4395 12.9768L43.4232 12.3081L43.3744 11.651L43.2909 11.0032L43.1771 10.367L43.0308 9.74013L42.8567 9.12484L42.65 8.52116L42.4178 7.93374L42.1555 7.35792L41.8699 6.79604L41.5541 6.25737L41.2175 5.72799L40.8529 5.2195L40.4675 4.73192L40.0588 4.25826L39.6247 3.8055L39.1719 3.37596L38.6982 2.96964L38.2083 2.58189L37.6999 2.21968L37.1682 1.88069L36.6248 1.56957L36.0653 1.28398L35.4848 1.02161L34.8927 0.789427L34.2891 0.582783L33.6691 0.408645L33.0422 0.262369L32.3991 0.148598L31.749 0.0650113L31.0872 0.0185752L30.4162 0L29.7499 0.0185752L29.0881 0.0650113L28.438 0.148598L27.7972 0.262369L27.1703 0.408645L26.5527 0.582783L25.9513 0.789427L25.3593 1.02161L24.7858 1.28398L24.2285 1.56957L23.6852 1.88069L23.1582 2.21968L22.6497 2.58189L22.1598 2.96964L21.6907 3.37596L21.238 3.8055L20.8084 4.25826L20.3998 4.73192L20.0144 5.2195L19.6545 5.72799L19.3178 6.25737L19.0067 6.79604L18.7165 7.35792L18.4587 7.93374L18.2266 8.52116L18.0246 9.12484L17.8481 9.74013L17.7041 10.367L17.5904 11.0032L17.5068 11.651L17.458 12.3081L17.4395 12.9768L17.458 13.6455L17.5068 14.3095L17.5904 14.9573L17.7041 15.6028L17.8481 16.2297L18.0246 16.8473L18.2266 17.4533L18.4587 18.0454L18.7165 18.6235L19.0067 19.1854L19.3178 19.7287L19.6545 20.2581L20.0144 20.7689L20.3998 21.2588L20.8084 21.7325L21.238 22.1852L21.6907 22.6194L22.1598 23.0257L22.6497 23.4111L23.1582 23.7757L23.6852 24.1147L24.2285 24.4281L24.7858 24.7137L25.3593 24.9784L25.9513 25.2106L26.5527 25.4149L27.1703 25.5914L27.7972 25.7353L28.438 25.8491L29.0881 25.9327L29.7499 25.9814L30.4162 26Z" fill="#FCB331"/>
<path fill-rule="evenodd" clip-rule="evenodd" d="M13.0255 26L13.6919 25.9814L14.3536 25.9327L15.0014 25.8491L15.6423 25.7353L16.2692 25.5914L16.8868 25.4149L17.4881 25.2106L18.0802 24.9784L18.656 24.7137L19.2133 24.4281L19.7566 24.1147L20.2813 23.7757L20.7898 23.4111L21.282 23.0257L21.751 22.6194L22.2015 22.1852L22.6333 21.7325L23.0396 21.2588L23.4251 20.7689L23.785 20.2581L24.124 19.7287L24.4351 19.1854L24.723 18.6235L24.983 18.0454L25.2152 17.4533L25.4172 16.8473L25.5914 16.2297L25.7376 15.6028L25.8514 14.9573L25.935 14.3095L25.9814 13.6455L26 12.9768L25.9814 12.3081L25.935 11.651L25.8514 11.0032L25.7376 10.367L25.5914 9.74013L25.4172 9.12484L25.2152 8.52116L24.983 7.93374L24.723 7.35792L24.4351 6.79604L24.124 6.25737L23.785 5.72799L23.4251 5.2195L23.0396 4.73192L22.6333 4.25826L22.2015 3.8055L21.751 3.37596L21.282 2.96964L20.7898 2.58189L20.2813 2.21968L19.7566 1.88069L19.2133 1.56957L18.656 1.28398L18.0802 1.02161L17.4881 0.789427L16.8868 0.582783L16.2692 0.408645L15.6423 0.262369L15.0014 0.148598L14.3536 0.0650113L13.6919 0.0185752L13.0255 0L12.3545 0.0185752L11.6928 0.0650113L11.0427 0.148598L10.3972 0.262369L9.77032 0.408645L9.15271 0.582783L8.5467 0.789427L7.95464 1.02161L7.3765 1.28398L6.81461 1.56957L6.2713 1.88069L5.74192 2.21968L5.23343 2.58189L4.7412 2.96964L4.26755 3.37596L3.81711 3.8055L3.38293 4.25826L2.97428 4.73192L2.58886 5.2195L2.22433 5.72799L1.88766 6.25737L1.57189 6.79604L1.2863 7.35792L1.02393 7.93374L0.789427 8.52116L0.585104 9.12484L0.408644 9.74013L0.26469 10.367L0.15092 11.0032L0.0673334 11.651L0.0185748 12.3081L0 12.9768L0.0185748 13.6455L0.0673334 14.3095L0.15092 14.9573L0.26469 15.6028L0.408644 16.2297L0.585104 16.8473L0.789427 17.4533L1.02393 18.0454L1.2863 18.6235L1.57189 19.1854L1.88766 19.7287L2.22433 20.2581L2.58886 20.7689L2.97428 21.2588L3.38293 21.7325L3.81711 22.1852L4.26755 22.6194L4.7412 23.0257L5.23343 23.4111L5.74192 23.7757L6.2713 24.1147L6.81461 24.4281L7.3765 24.7137L7.95464 24.9784L8.5467 25.2106L9.15271 25.4149L9.77032 25.5914L10.3972 25.7353L11.0427 25.8491L11.6928 25.9327L12.3545 25.9814L13.0255 26Z" fill="#ED1B2E"/>
<path fill-rule="evenodd" clip-rule="evenodd" d="M20.1973 4.98489H27.1047V4.27905H20.794L20.1973 4.98489Z" fill="#FCB331"/>
<path fill-rule="evenodd" clip-rule="evenodd" d="M19.1641 6.55679H27.1048V5.84863H19.5797L19.1641 6.55679Z" fill="#FCB331"/>
<path fill-rule="evenodd" clip-rule="evenodd" d="M18.3906 8.12186H27.1045V7.41602H18.6994L18.3906 8.12186Z" fill="#FCB331"/>
<path fill-rule="evenodd" clip-rule="evenodd" d="M17.8613 9.69144H27.1046V8.9856H18.0796L17.8613 9.69144Z" fill="#FCB331"/>
<path fill-rule="evenodd" clip-rule="evenodd" d="M18.1694 17.2769H27.1294V16.571H17.9512L18.1694 17.2769Z" fill="#FCB331"/>
<path fill-rule="evenodd" clip-rule="evenodd" d="M18.8293 18.8465H27.1276V18.1406H18.502L18.8293 18.8465Z" fill="#FCB331"/>
<path fill-rule="evenodd" clip-rule="evenodd" d="M19.7618 20.4136H27.129V19.7078H19.3184L19.7618 20.4136Z" fill="#FCB331"/>
<path fill-rule="evenodd" clip-rule="evenodd" d="M21.0414 21.9832H27.1293V21.2727H20.4238L21.0414 21.9832Z" fill="#FCB331"/>
<path fill-rule="evenodd" clip-rule="evenodd" d="M17.5508 11.2564H27.1052V10.5505H17.6854L17.5508 11.2564Z" fill="#FCB331"/>
<path fill-rule="evenodd" clip-rule="evenodd" d="M23.373 15.7119H27.016V15.0061H23.5031L23.373 15.7119Z" fill="#FCB331"/>
<path fill-rule="evenodd" clip-rule="evenodd" d="M23.6621 14.147H27.0172V13.4365H23.7945L23.6621 14.147Z" fill="#FCB331"/>
<path fill-rule="evenodd" clip-rule="evenodd" d="M17.3105 13.4365H18.2579V14.147H17.3547L17.3105 13.4365Z" fill="#FCB331"/>
<path fill-rule="evenodd" clip-rule="evenodd" d="M15.5422 12.5821L15.4795 12.5775L15.4191 12.5682L15.3611 12.5589L15.3054 12.5496L15.252 12.5427L15.1962 12.5334L15.1382 12.5241L15.0778 12.5148L15.0151 12.5055L14.9455 12.5009L14.8665 12.4985L14.7829 12.4939H14.6901L14.5902 12.4985L14.4765 12.5055L14.3488 12.5148L14.2605 12.5287L14.1769 12.5427L14.1026 12.5682L14.0376 12.5937L13.9749 12.6239L13.9192 12.6611L13.8751 12.7029L13.8356 12.7423L13.8101 12.7911L13.7869 12.8399L13.7776 12.8933V12.9443L13.7915 13.0024L13.8101 13.0581L13.8449 13.1162L13.889 13.1719L13.9749 13.2555L14.0817 13.3228L14.2048 13.3785L14.3348 13.4273L14.4765 13.4714L14.6204 13.5202L14.7644 13.5712L14.906 13.6293L15.036 13.7036L15.1591 13.7965L15.2705 13.9056L15.3611 14.0402L15.4331 14.2074L15.4749 14.4048L15.4934 14.6416L15.4749 14.9179L15.4447 15.1245L15.3936 15.3033L15.3216 15.4705L15.2334 15.6145L15.1335 15.7422L15.0198 15.8513L14.8967 15.9488L14.762 16.0324L14.6204 16.0974L14.4765 16.1554L14.3279 16.1996L14.1746 16.2344L14.0237 16.2599L13.8797 16.2739L13.7358 16.2831L13.5988 16.2855H13.4107L13.2343 16.2831H13.081L12.9371 16.2785L12.8047 16.2739L12.6863 16.2646L12.5818 16.2553L12.482 16.2414L12.3891 16.2344L12.3055 16.2158L12.222 16.2019L12.1477 16.181L12.0734 16.1624L12.0037 16.1369L11.9317 16.1113L11.8574 16.0858L12.0548 15.1153L12.0942 15.1245L12.143 15.1362L12.2057 15.1547L12.28 15.1733L12.3589 15.1896L12.4448 15.2081L12.5424 15.229L12.6468 15.2476L12.756 15.2639L12.8721 15.2824L12.9882 15.2964L13.1112 15.308L13.2389 15.3126L13.3666 15.3173H13.4943L13.6197 15.3126L13.7474 15.2871L13.8496 15.2522L13.9285 15.2035L13.9889 15.1408L14.033 15.0804L14.0678 15.0108L14.091 14.9388L14.1073 14.8738L14.1166 14.7461L14.0771 14.637L14.0028 14.5487L13.8937 14.4744L13.7613 14.4094L13.6081 14.3444L13.4363 14.2817L13.2668 14.2121L13.0903 14.1331L12.9231 14.0402L12.7699 13.9265L12.6306 13.7918L12.5191 13.6246L12.4402 13.4273L12.4007 13.1905L12.4054 12.9095L12.4286 12.7377L12.4588 12.5775L12.5029 12.4266L12.5563 12.2873L12.626 12.1549L12.7049 12.0411L12.7954 11.932L12.9069 11.8345L13.0323 11.7509L13.1739 11.6813L13.3318 11.6162L13.5059 11.5675L13.7033 11.528L13.9192 11.4978L14.156 11.4793L14.4138 11.4746H14.5763L14.7249 11.4793L14.8619 11.4839L14.9849 11.4885L15.0941 11.4978L15.1962 11.5071L15.2821 11.5141L15.3611 11.5234L15.4354 11.5327L15.4981 11.5466L15.5538 11.5559L15.6072 11.5628L15.6513 11.5721L15.6908 11.5768L15.7303 11.5861L15.7651 11.5907L15.5422 12.5821Z" fill="white"/>
<path d="M15.5422 12.5821L15.4795 12.5775L15.4191 12.5682L15.3611 12.5589L15.3054 12.5496L15.252 12.5427L15.1962 12.5334L15.1382 12.5241L15.0778 12.5148L15.0151 12.5055L14.9455 12.5009L14.8665 12.4985L14.7829 12.4939H14.6901L14.5902 12.4985L14.4765 12.5055L14.3488 12.5148L14.2605 12.5287L14.1769 12.5427L14.1026 12.5682L14.0376 12.5937L13.9749 12.6239L13.9192 12.6611L13.8751 12.7029L13.8356 12.7423L13.8101 12.7911L13.7869 12.8399L13.7776 12.8933V12.9443L13.7915 13.0024L13.8101 13.0581L13.8449 13.1162L13.889 13.1719L13.9749 13.2555L14.0817 13.3228L14.2048 13.3785L14.3348 13.4273L14.4765 13.4714L14.6204 13.5202L14.7644 13.5712L14.906 13.6293L15.036 13.7036L15.1591 13.7965L15.2705 13.9056L15.3611 14.0402L15.4331 14.2074L15.4749 14.4048L15.4934 14.6416L15.4749 14.9179L15.4447 15.1245L15.3936 15.3033L15.3216 15.4705L15.2334 15.6145L15.1335 15.7422L15.0198 15.8513L14.8967 15.9488L14.762 16.0324L14.6204 16.0974L14.4765 16.1554L14.3279 16.1996L14.1746 16.2344L14.0237 16.2599L13.8797 16.2739L13.7358 16.2831L13.5988 16.2855H13.4107L13.2343 16.2831H13.081L12.9371 16.2785L12.8047 16.2739L12.6863 16.2646L12.5818 16.2553L12.482 16.2414L12.3891 16.2344L12.3055 16.2158L12.222 16.2019L12.1477 16.181L12.0734 16.1624L12.0037 16.1369L11.9317 16.1113L11.8574 16.0858L12.0548 15.1153L12.0942 15.1245L12.143 15.1362L12.2057 15.1547L12.28 15.1733L12.3589 15.1896L12.4448 15.2081L12.5424 15.229L12.6468 15.2476L12.756 15.2639L12.8721 15.2824L12.9882 15.2964L13.1112 15.308L13.2389 15.3126L13.3666 15.3173H13.4943L13.6197 15.3126L13.7474 15.2871L13.8496 15.2522L13.9285 15.2035L13.9889 15.1408L14.033 15.0804L14.0678 15.0108L14.091 14.9388L14.1073 14.8738L14.1166 14.7461L14.0771 14.637L14.0028 14.5487L13.8937 14.4744L13.7613 14.4094L13.6081 14.3444L13.4363 14.2817L13.2668 14.2121L13.0903 14.1331L12.9231 14.0402L12.7699 13.9265L12.6306 13.7918L12.5191 13.6246L12.4402 13.4273L12.4007 13.1905L12.4054 12.9095L12.4286 12.7377L12.4588 12.5775L12.5029 12.4266L12.5563 12.2873L12.626 12.1549L12.7049 12.0411L12.7954 11.932L12.9069 11.8345L13.0323 11.7509L13.1739 11.6813L13.3318 11.6162L13.5059 11.5675L13.7033 11.528L13.9192 11.4978L14.156 11.4793L14.4138 11.4746H14.5763L14.7249 11.4793L14.8619 11.4839L14.9849 11.4885L15.0941 11.4978L15.1962 11.5071L15.2821 11.5141L15.3611 11.5234L15.4354 11.5327L15.4981 11.5466L15.5538 11.5559L15.6072 11.5628L15.6513 11.5721L15.6908 11.5768L15.7303 11.5861L15.7651 11.5907L15.5422 12.5821Z" stroke="white" stroke-width="0.22" stroke-miterlimit="2.61"/>
<path fill-rule="evenodd" clip-rule="evenodd" d="M16.5805 10.5063H17.7948L17.6161 11.5674H18.3474L18.1896 12.5589L17.4187 12.538L16.9985 14.9829L16.9938 15.0711L17.0147 15.1454L17.0588 15.2034L17.1169 15.2522L17.1958 15.2824L17.284 15.3079L17.3792 15.3265L17.4837 15.3358L17.5812 15.3311L17.6695 15.3218L17.7484 15.3079L17.8181 15.2917L17.8738 15.2731L17.9133 15.2592L17.9411 15.2522L17.9504 15.2476L17.7948 16.0625L17.7647 16.0857L17.7345 16.102L17.7043 16.1206L17.6741 16.1368L17.6416 16.1507L17.6068 16.1624L17.5673 16.1763L17.5278 16.1902L17.4837 16.2018L17.4396 16.2111L17.3885 16.2204L17.3351 16.2297L17.2794 16.239L17.2121 16.2459L17.1424 16.2552L17.0681 16.2645H16.7338L16.5596 16.2506L16.4064 16.2343L16.2648 16.2065L16.1463 16.1763L16.0465 16.1368L15.9629 16.0927L15.8886 16.0416L15.8306 15.9836L15.7888 15.9232L15.7563 15.8466L15.7354 15.7723L15.7214 15.691L15.7168 15.5981V15.5006L15.7307 15.4008L15.7447 15.2917L16.5805 10.5063Z" fill="white"/>
<path d="M16.5805 10.5063H17.7948L17.6161 11.5674H18.3474L18.1896 12.5589L17.4187 12.538L16.9985 14.9829L16.9938 15.0711L17.0147 15.1454L17.0588 15.2034L17.1169 15.2522L17.1958 15.2824L17.284 15.3079L17.3792 15.3265L17.4837 15.3358L17.5812 15.3311L17.6695 15.3218L17.7484 15.3079L17.8181 15.2917L17.8738 15.2731L17.9133 15.2592L17.9411 15.2522L17.9504 15.2476L17.7948 16.0625L17.7647 16.0857L17.7345 16.102L17.7043 16.1206L17.6741 16.1368L17.6416 16.1507L17.6068 16.1624L17.5673 16.1763L17.5278 16.1902L17.4837 16.2018L17.4396 16.2111L17.3885 16.2204L17.3351 16.2297L17.2794 16.239L17.2121 16.2459L17.1424 16.2552L17.0681 16.2645H16.7338L16.5596 16.2506L16.4064 16.2343L16.2648 16.2065L16.1463 16.1763L16.0465 16.1368L15.9629 16.0927L15.8886 16.0416L15.8306 15.9836L15.7888 15.9232L15.7563 15.8466L15.7354 15.7723L15.7214 15.691L15.7168 15.5981V15.5006L15.7307 15.4008L15.7447 15.2917L16.5805 10.5063Z" stroke="white" stroke-width="0.22" stroke-miterlimit="2.61"/>
<path fill-rule="evenodd" clip-rule="evenodd" d="M19.3188 14.2121L19.3048 14.2864L19.3002 14.3653L19.3095 14.4489L19.3281 14.5325L19.3582 14.6161L19.3931 14.695L19.4418 14.7786L19.4929 14.8529L19.5556 14.9272L19.6206 14.9922L19.6903 15.0595L19.7692 15.1106L19.8481 15.1594L19.9364 15.1988L20.0246 15.229L20.1128 15.2476L20.2266 15.2639L20.3357 15.2778L20.4495 15.2917L20.5633 15.2987L20.677 15.3033H20.7955L20.9092 15.2987L21.0276 15.2917L21.1461 15.2731L21.2645 15.2522L21.3875 15.2244L21.5059 15.1849L21.629 15.1362L21.7567 15.0851L21.8798 15.0154L22.0075 14.9388L21.831 16.0185L21.7613 16.0533L21.6917 16.0881L21.6197 16.116L21.5547 16.1415L21.4897 16.1624L21.42 16.1856L21.3481 16.2019L21.2738 16.2158L21.1948 16.2297L21.1066 16.239L21.016 16.246L20.9139 16.2553L20.8001 16.2599H20.6817L20.547 16.2646H20.4007L20.1871 16.2599L19.9666 16.239L19.7483 16.2065L19.5301 16.1554L19.3141 16.0881L19.1075 16.0045L18.9101 15.8954L18.7267 15.77L18.5549 15.6191L18.4063 15.4403L18.2786 15.2383L18.1741 15.0061L18.0998 14.7461L18.051 14.4535L18.0371 14.1285L18.0603 13.7686L18.0766 13.6293L18.1044 13.4668L18.1393 13.2949L18.188 13.1115L18.253 12.9234L18.332 12.7354L18.4318 12.5427L18.5549 12.3569L18.6965 12.1828L18.866 12.0156L19.0587 11.867L19.2793 11.7347L19.5324 11.6255L19.818 11.5466L20.1337 11.4932L20.489 11.4746L20.6608 11.4793L20.8396 11.4978L21.0207 11.528L21.1995 11.5721L21.3759 11.6371L21.5454 11.7161L21.7033 11.8229L21.8496 11.9459L21.9796 12.0945L22.0887 12.2687L22.177 12.4707L22.2396 12.7029L22.2745 12.9676L22.2791 13.2648L22.2466 13.5991L22.1816 13.9659L22.1607 14.233H18.9635L19.1655 13.3692H21.0857L21.095 13.2601L21.0903 13.1556L21.081 13.0581L21.0648 12.9699L21.0323 12.8886L21.0021 12.8143L20.958 12.747L20.9139 12.6866L20.8628 12.6332L20.8047 12.5891L20.7397 12.5496L20.6724 12.5148L20.6027 12.4893L20.5331 12.4707L20.4588 12.4591L20.3798 12.4498L20.2963 12.4544L20.2173 12.466L20.143 12.4846L20.0687 12.5102L19.9944 12.545L19.9271 12.5845L19.8621 12.6332L19.8064 12.6866L19.7483 12.747L19.6949 12.8143L19.6461 12.884L19.609 12.9583L19.5695 13.0372L19.537 13.1254L19.5115 13.2113L19.4929 13.3042L19.3188 14.2121Z" fill="white"/>
<path d="M19.3188 14.2121L19.3048 14.2864L19.3002 14.3653L19.3095 14.4489L19.3281 14.5325L19.3582 14.6161L19.3931 14.695L19.4418 14.7786L19.4929 14.8529L19.5556 14.9272L19.6206 14.9922L19.6903 15.0595L19.7692 15.1106L19.8481 15.1594L19.9364 15.1988L20.0246 15.229L20.1128 15.2476L20.2266 15.2639L20.3357 15.2778L20.4495 15.2917L20.5633 15.2987L20.677 15.3033H20.7955L20.9092 15.2987L21.0276 15.2917L21.1461 15.2731L21.2645 15.2522L21.3875 15.2244L21.5059 15.1849L21.629 15.1362L21.7567 15.0851L21.8798 15.0154L22.0075 14.9388L21.831 16.0185L21.7613 16.0533L21.6917 16.0881L21.6197 16.116L21.5547 16.1415L21.4897 16.1624L21.42 16.1856L21.3481 16.2019L21.2738 16.2158L21.1948 16.2297L21.1066 16.239L21.016 16.246L20.9139 16.2553L20.8001 16.2599H20.6817L20.547 16.2646H20.4007L20.1871 16.2599L19.9666 16.239L19.7483 16.2065L19.5301 16.1554L19.3141 16.0881L19.1075 16.0045L18.9101 15.8954L18.7267 15.77L18.5549 15.6191L18.4063 15.4403L18.2786 15.2383L18.1741 15.0061L18.0998 14.7461L18.051 14.4535L18.0371 14.1285L18.0603 13.7686L18.0766 13.6293L18.1044 13.4668L18.1393 13.2949L18.188 13.1115L18.253 12.9234L18.332 12.7354L18.4318 12.5427L18.5549 12.3569L18.6965 12.1828L18.866 12.0156L19.0587 11.867L19.2793 11.7347L19.5324 11.6255L19.818 11.5466L20.1337 11.4932L20.489 11.4746L20.6608 11.4793L20.8396 11.4978L21.0207 11.528L21.1995 11.5721L21.3759 11.6371L21.5454 11.7161L21.7033 11.8229L21.8496 11.9459L21.9796 12.0945L22.0887 12.2687L22.177 12.4707L22.2396 12.7029L22.2745 12.9676L22.2791 13.2648L22.2466 13.5991L22.1816 13.9659L22.1607 14.233H18.9635L19.1655 13.3692H21.0857L21.095 13.2601L21.0903 13.1556L21.081 13.0581L21.0648 12.9699L21.0323 12.8886L21.0021 12.8143L20.958 12.747L20.9139 12.6866L20.8628 12.6332L20.8047 12.5891L20.7397 12.5496L20.6724 12.5148L20.6027 12.4893L20.5331 12.4707L20.4588 12.4591L20.3798 12.4498L20.2963 12.4544L20.2173 12.466L20.143 12.4846L20.0687 12.5102L19.9944 12.545L19.9271 12.5845L19.8621 12.6332L19.8064 12.6866L19.7483 12.747L19.6949 12.8143L19.6461 12.884L19.609 12.9583L19.5695 13.0372L19.537 13.1254L19.5115 13.2113L19.4929 13.3042L19.3188 14.2121Z" stroke="white" stroke-width="0.22" stroke-miterlimit="2.61"/>
<path fill-rule="evenodd" clip-rule="evenodd" d="M29.7746 11.8299L29.7189 11.7997L29.6608 11.7742L29.6005 11.744L29.5331 11.7115L29.4681 11.6859L29.3938 11.6604L29.3195 11.6349L29.2406 11.607L29.157 11.5861L29.0734 11.5675L28.9805 11.5513L28.89 11.5373L28.7878 11.528L28.688 11.5188H28.5835H28.4721H28.3629L28.2492 11.528L28.1307 11.542L28.0077 11.5629L27.8846 11.5977L27.7616 11.6465L27.6385 11.7092L27.5155 11.7881L27.3994 11.8833L27.2833 11.9971L27.1741 12.1387L27.0697 12.3012L26.9721 12.4939L26.8816 12.7122L26.798 12.9583L26.7283 13.2392L26.7005 13.3971L26.6842 13.5504L26.6749 13.7036L26.6796 13.8522L26.6935 14.0008L26.7237 14.1424L26.7632 14.2725L26.8119 14.4048L26.8769 14.5232L26.9559 14.637L27.0464 14.7392L27.1532 14.8297L27.2717 14.9087L27.4063 14.976L27.5572 15.0317L27.7221 15.0712L27.7801 15.0851L27.8452 15.099L27.9241 15.106L28.0123 15.1153L28.1075 15.1246H28.2097H28.3188L28.4279 15.1153L28.544 15.1014L28.6578 15.0805L28.7669 15.0503L28.8761 15.0155L28.9852 14.9667L29.0873 14.9087L29.1779 14.839L29.2661 14.7601L29.0688 15.9303L29.0432 15.9535L29.0177 15.979L28.9805 16.0092L28.9411 16.0371L28.8946 16.0719L28.8319 16.1021L28.7623 16.1323L28.6833 16.1601L28.5835 16.1903L28.4674 16.2112L28.3374 16.2298L28.1841 16.246L28.0123 16.2553L27.815 16.26L27.5921 16.2553L27.346 16.2414L27.144 16.2205L26.942 16.1764L26.74 16.1114L26.538 16.0231L26.3452 15.9187L26.1618 15.7863L25.9854 15.6331L25.8251 15.4566L25.6789 15.2593L25.5558 15.041L25.4513 14.7949L25.3724 14.5279L25.319 14.233L25.3027 13.9219L25.3097 13.5806L25.3585 13.216L25.3933 13.0372L25.4328 12.8608L25.4769 12.6913L25.521 12.5288L25.5697 12.3755L25.6255 12.2223L25.6835 12.076L25.7462 11.9413L25.8112 11.8043L25.8762 11.6766L25.9505 11.5559L26.0295 11.4398L26.1084 11.3307L26.1966 11.2262L26.2849 11.1287L26.3777 11.0381L26.4776 10.9499L26.5774 10.8663L26.6842 10.792L26.7934 10.7224L26.9118 10.655L27.0302 10.5993L27.1532 10.5459L27.2809 10.4972L27.4156 10.4554L27.5526 10.4182L27.6919 10.388L27.8405 10.3625L27.9914 10.3393L28.147 10.323L28.3072 10.3137L28.4721 10.3091L28.6137 10.3137L28.7484 10.323L28.8807 10.3346L29.013 10.3532L29.1338 10.3718L29.2522 10.3973L29.366 10.4182L29.4728 10.4461L29.5726 10.4716L29.6608 10.4972L29.7444 10.525L29.8141 10.5506L29.8768 10.5714L29.9278 10.59L29.9673 10.6086L29.9952 10.6156L29.7746 11.8299Z" fill="white"/>
<path d="M29.7746 11.8299L29.7189 11.7997L29.6608 11.7742L29.6005 11.744L29.5331 11.7115L29.4681 11.6859L29.3938 11.6604L29.3195 11.6349L29.2406 11.607L29.157 11.5861L29.0734 11.5675L28.9805 11.5513L28.89 11.5373L28.7878 11.528L28.688 11.5188H28.5835H28.4721H28.3629L28.2492 11.528L28.1307 11.542L28.0077 11.5629L27.8846 11.5977L27.7616 11.6465L27.6385 11.7092L27.5155 11.7881L27.3994 11.8833L27.2833 11.9971L27.1741 12.1387L27.0697 12.3012L26.9721 12.4939L26.8816 12.7122L26.798 12.9583L26.7283 13.2392L26.7005 13.3971L26.6842 13.5504L26.6749 13.7036L26.6796 13.8522L26.6935 14.0008L26.7237 14.1424L26.7632 14.2725L26.8119 14.4048L26.8769 14.5232L26.9559 14.637L27.0464 14.7392L27.1532 14.8297L27.2717 14.9087L27.4063 14.976L27.5572 15.0317L27.7221 15.0712L27.7801 15.0851L27.8452 15.099L27.9241 15.106L28.0123 15.1153L28.1075 15.1246H28.2097H28.3188L28.4279 15.1153L28.544 15.1014L28.6578 15.0805L28.7669 15.0503L28.8761 15.0155L28.9852 14.9667L29.0873 14.9087L29.1779 14.839L29.2661 14.7601L29.0688 15.9303L29.0432 15.9535L29.0177 15.979L28.9805 16.0092L28.9411 16.0371L28.8946 16.0719L28.8319 16.1021L28.7623 16.1323L28.6833 16.1601L28.5835 16.1903L28.4674 16.2112L28.3374 16.2298L28.1841 16.246L28.0123 16.2553L27.815 16.26L27.5921 16.2553L27.346 16.2414L27.144 16.2205L26.942 16.1764L26.74 16.1114L26.538 16.0231L26.3452 15.9187L26.1618 15.7863L25.9854 15.6331L25.8251 15.4566L25.6789 15.2593L25.5558 15.041L25.4513 14.7949L25.3724 14.5279L25.319 14.233L25.3027 13.9219L25.3097 13.5806L25.3585 13.216L25.3933 13.0372L25.4328 12.8608L25.4769 12.6913L25.521 12.5288L25.5697 12.3755L25.6255 12.2223L25.6835 12.076L25.7462 11.9413L25.8112 11.8043L25.8762 11.6766L25.9505 11.5559L26.0295 11.4398L26.1084 11.3307L26.1966 11.2262L26.2849 11.1287L26.3777 11.0381L26.4776 10.9499L26.5774 10.8663L26.6842 10.792L26.7934 10.7224L26.9118 10.655L27.0302 10.5993L27.1532 10.5459L27.2809 10.4972L27.4156 10.4554L27.5526 10.4182L27.6919 10.388L27.8405 10.3625L27.9914 10.3393L28.147 10.323L28.3072 10.3137L28.4721 10.3091L28.6137 10.3137L28.7484 10.323L28.8807 10.3346L29.013 10.3532L29.1338 10.3718L29.2522 10.3973L29.366 10.4182L29.4728 10.4461L29.5726 10.4716L29.6608 10.4972L29.7444 10.525L29.8141 10.5506L29.8768 10.5714L29.9278 10.59L29.9673 10.6086L29.9952 10.6156L29.7746 11.8299Z" stroke="white" stroke-width="0.22" stroke-miterlimit="2.61"/>
<path fill-rule="evenodd" clip-rule="evenodd" d="M40.5715 16.2645H39.3572L39.4454 15.7769V15.7328L39.3734 15.821L39.2991 15.9L39.2248 15.9696L39.1459 16.0323L39.0669 16.088L38.988 16.1368L38.909 16.1763L38.8254 16.2157L38.7419 16.2459L38.6606 16.2691L38.577 16.29L38.4888 16.304L38.4006 16.3179L38.317 16.3249L38.2287 16.3295H38.1428L37.9153 16.3133L37.704 16.2645L37.5113 16.1902L37.3348 16.088L37.1769 15.9627L37.0376 15.8117L36.9146 15.6515L36.8101 15.4658L36.7219 15.2684L36.6522 15.0618L36.6034 14.8482L36.5686 14.6253L36.5547 14.4001L36.5593 14.1725L36.5802 13.9496L36.6197 13.7244L36.687 13.4667L36.766 13.2206L36.8565 12.9977L36.9657 12.7864L37.0817 12.589L37.2118 12.4149L37.3488 12.257L37.4927 12.1107L37.646 11.9853L37.8085 11.8739L37.9757 11.7787L38.1428 11.7044L38.317 11.6417L38.4934 11.6022L38.6676 11.5767L38.8487 11.5674L38.974 11.572L39.0971 11.586L39.2132 11.6069L39.3177 11.6371L39.4175 11.6742L39.5057 11.7114L39.594 11.7601L39.6729 11.8089L39.7426 11.8623L39.8076 11.918L39.8656 11.9761L39.919 12.0318L39.9608 12.0898L40.0026 12.1455L40.0375 12.1989L40.063 12.2524L40.3695 10.5295H41.5629L40.5715 16.2645Z" fill="white"/>
<path d="M40.5715 16.2645H39.3572L39.4454 15.7769V15.7328L39.3734 15.821L39.2991 15.9L39.2248 15.9696L39.1459 16.0323L39.0669 16.088L38.988 16.1368L38.909 16.1763L38.8254 16.2157L38.7419 16.2459L38.6606 16.2691L38.577 16.29L38.4888 16.304L38.4006 16.3179L38.317 16.3249L38.2287 16.3295H38.1428L37.9153 16.3133L37.704 16.2645L37.5113 16.1902L37.3348 16.088L37.1769 15.9627L37.0376 15.8117L36.9146 15.6515L36.8101 15.4658L36.7219 15.2684L36.6522 15.0618L36.6034 14.8482L36.5686 14.6253L36.5547 14.4001L36.5593 14.1725L36.5802 13.9496L36.6197 13.7244L36.687 13.4667L36.766 13.2206L36.8565 12.9977L36.9657 12.7864L37.0817 12.589L37.2118 12.4149L37.3488 12.257L37.4927 12.1107L37.646 11.9853L37.8085 11.8739L37.9757 11.7787L38.1428 11.7044L38.317 11.6417L38.4934 11.6022L38.6676 11.5767L38.8487 11.5674L38.974 11.572L39.0971 11.586L39.2132 11.6069L39.3177 11.6371L39.4175 11.6742L39.5057 11.7114L39.594 11.7601L39.6729 11.8089L39.7426 11.8623L39.8076 11.918L39.8656 11.9761L39.919 12.0318L39.9608 12.0898L40.0026 12.1455L40.0375 12.1989L40.063 12.2524L40.3695 10.5295H41.5629L40.5715 16.2645Z" stroke="white" stroke-width="0.22" stroke-miterlimit="2.61"/>
<path fill-rule="evenodd" clip-rule="evenodd" d="M38.5844 15.2033L38.7075 15.1941L38.8212 15.1685L38.928 15.136L39.0279 15.0896L39.1208 15.0362L39.209 14.9712L39.2926 14.8969L39.3669 14.8179L39.4319 14.7297L39.4922 14.6322L39.5503 14.5323L39.5991 14.4279L39.6432 14.3164L39.678 14.2026L39.7082 14.0842L39.7291 13.9658L39.7523 13.8427L39.7639 13.7174V13.599L39.7616 13.4759L39.7477 13.3621L39.7291 13.2507L39.6989 13.1462L39.6641 13.0464L39.6199 12.9581L39.5689 12.8745L39.5108 12.8049L39.4458 12.7422L39.3715 12.6911L39.2926 12.6563L39.209 12.6331L39.1161 12.6238L38.9977 12.6331L38.8886 12.6516L38.7864 12.6865L38.6866 12.7306L38.5983 12.7863L38.5101 12.8583L38.4358 12.9303L38.3615 13.0138L38.2965 13.1114L38.2338 13.2112L38.1781 13.318L38.1293 13.4318L38.0852 13.5502L38.0504 13.6686L38.0156 13.7963L37.99 13.9217L37.9668 14.1167L37.9761 14.3257L38.0063 14.5416L38.0643 14.7459L38.1525 14.927L38.2663 15.071L38.4103 15.1685L38.5844 15.2033Z" fill="#FCB331"/>
<path fill-rule="evenodd" clip-rule="evenodd" d="M11.6557 15.2917L11.4815 16.2645H10.3763L10.4065 16.0857L10.4297 15.9232L10.446 15.8002L10.4646 15.7328L10.4019 15.8048L10.3322 15.8745L10.2486 15.9395L10.1581 16.0022L10.0513 16.0625L9.94216 16.1159L9.82839 16.167L9.70998 16.2111L9.58227 16.2506L9.45457 16.2831L9.32919 16.3086L9.19685 16.3249L9.06915 16.3342L8.94144 16.3388L8.81839 16.3249L8.69997 16.3086L8.54673 16.2692L8.40742 16.2251L8.28436 16.167L8.17524 16.102L8.07772 16.0323L7.98949 15.9534L7.91983 15.8698L7.85947 15.7816L7.80606 15.691L7.76195 15.5935L7.72712 15.496L7.70158 15.4008L7.68301 15.2986L7.6714 15.1988L7.66211 15.1013V15.0061L7.67372 14.8343L7.70158 14.6717L7.74569 14.5185L7.80142 14.3699L7.87107 14.2306L7.95234 14.1029L8.04289 13.9798L8.14737 13.8707L8.25882 13.7686L8.38188 13.678L8.50726 13.5944L8.63961 13.5248L8.78124 13.4621L8.92519 13.4133L9.07379 13.3738L9.22703 13.3483H9.23632L9.25722 13.3437L9.28972 13.339L9.33616 13.3344L9.38956 13.3251L9.44993 13.3228L9.51726 13.3135L9.59156 13.3042L9.66586 13.2949L9.74016 13.2856L9.8191 13.2833L9.88876 13.274L9.96073 13.2694L10.0257 13.2647L10.0861 13.2601H10.1349H10.2347L10.3415 13.2647L10.4367 13.2694H10.5342L10.6132 13.274L10.6735 13.2786L10.7177 13.2833H10.7316L10.7409 13.2508L10.7664 13.1718L10.7873 13.0813L10.7966 12.9977L10.7803 12.9002L10.7409 12.8143L10.6875 12.7353L10.6178 12.668L10.5342 12.6123L10.4414 12.5728L10.3369 12.5449L10.2231 12.538L10.1 12.5333L9.9677 12.5287H9.83303L9.6914 12.5333L9.54745 12.5426L9.40581 12.5542L9.2665 12.5682L9.13184 12.5844L8.99949 12.603L8.87179 12.6239L8.75802 12.6471L8.65354 12.668L8.55602 12.6959L8.47708 12.7214L8.41671 12.7516L8.36795 12.7771L8.67908 11.7207L8.77659 11.6812L8.87179 11.6464L8.97627 11.6162L9.08308 11.5953L9.18756 11.5721L9.30133 11.5558L9.4151 11.5373L9.53351 11.528L9.65657 11.5187L9.78427 11.514L9.91662 11.5117H10.0513H10.1929H10.3369L10.4901 11.514L10.6434 11.5187L10.7664 11.528L10.8988 11.5512L11.0334 11.5814L11.1751 11.6208L11.3097 11.6742L11.4421 11.7346L11.5721 11.8089L11.6952 11.8925L11.8066 11.99L11.9018 12.0945L11.99 12.2129L12.055 12.3453L12.0992 12.4846L12.1247 12.6332V12.8003L12.0992 12.9768L11.6557 15.2917Z" fill="white"/>
<path d="M11.6557 15.2917L11.4815 16.2645H10.3763L10.4065 16.0857L10.4297 15.9232L10.446 15.8002L10.4646 15.7328L10.4019 15.8048L10.3322 15.8745L10.2486 15.9395L10.1581 16.0022L10.0513 16.0625L9.94216 16.1159L9.82839 16.167L9.70998 16.2111L9.58227 16.2506L9.45457 16.2831L9.32919 16.3086L9.19685 16.3249L9.06915 16.3342L8.94144 16.3388L8.81839 16.3249L8.69997 16.3086L8.54673 16.2692L8.40742 16.2251L8.28436 16.167L8.17524 16.102L8.07772 16.0323L7.98949 15.9534L7.91983 15.8698L7.85947 15.7816L7.80606 15.691L7.76195 15.5935L7.72712 15.496L7.70158 15.4008L7.68301 15.2986L7.6714 15.1988L7.66211 15.1013V15.0061L7.67372 14.8343L7.70158 14.6717L7.74569 14.5185L7.80142 14.3699L7.87107 14.2306L7.95234 14.1029L8.04289 13.9798L8.14737 13.8707L8.25882 13.7686L8.38188 13.678L8.50726 13.5944L8.63961 13.5248L8.78124 13.4621L8.92519 13.4133L9.07379 13.3738L9.22703 13.3483H9.23632L9.25722 13.3437L9.28972 13.339L9.33616 13.3344L9.38956 13.3251L9.44993 13.3228L9.51726 13.3135L9.59156 13.3042L9.66586 13.2949L9.74016 13.2856L9.8191 13.2833L9.88876 13.274L9.96073 13.2694L10.0257 13.2647L10.0861 13.2601H10.1349H10.2347L10.3415 13.2647L10.4367 13.2694H10.5342L10.6132 13.274L10.6735 13.2786L10.7177 13.2833H10.7316L10.7409 13.2508L10.7664 13.1718L10.7873 13.0813L10.7966 12.9977L10.7803 12.9002L10.7409 12.8143L10.6875 12.7353L10.6178 12.668L10.5342 12.6123L10.4414 12.5728L10.3369 12.5449L10.2231 12.538L10.1 12.5333L9.9677 12.5287H9.83303L9.6914 12.5333L9.54745 12.5426L9.40581 12.5542L9.2665 12.5682L9.13184 12.5844L8.99949 12.603L8.87179 12.6239L8.75802 12.6471L8.65354 12.668L8.55602 12.6959L8.47708 12.7214L8.41671 12.7516L8.36795 12.7771L8.67908 11.7207L8.77659 11.6812L8.87179 11.6464L8.97627 11.6162L9.08308 11.5953L9.18756 11.5721L9.30133 11.5558L9.4151 11.5373L9.53351 11.528L9.65657 11.5187L9.78427 11.514L9.91662 11.5117H10.0513H10.1929H10.3369L10.4901 11.514L10.6434 11.5187L10.7664 11.528L10.8988 11.5512L11.0334 11.5814L11.1751 11.6208L11.3097 11.6742L11.4421 11.7346L11.5721 11.8089L11.6952 11.8925L11.8066 11.99L11.9018 12.0945L11.99 12.2129L12.055 12.3453L12.0992 12.4846L12.1247 12.6332V12.8003L12.0992 12.9768L11.6557 15.2917Z" stroke="white" stroke-width="0.22" stroke-miterlimit="2.61"/>
<path fill-rule="evenodd" clip-rule="evenodd" d="M10.5996 14.1471L10.595 14.1238L10.5787 14.1029L10.5508 14.089L10.509 14.0797L10.4603 14.0728L10.4022 14.0681H10.3372H10.2722L10.2002 14.0728L10.1259 14.0797L10.0563 14.089L9.98663 14.0983L9.9193 14.1076L9.85893 14.1192L9.80553 14.1331L9.75909 14.1471L9.72659 14.1563L9.69176 14.168L9.64532 14.1865L9.59656 14.2074L9.53852 14.233L9.48279 14.2655L9.4201 14.2957L9.36438 14.3305L9.30169 14.3746L9.24597 14.4187L9.19256 14.4721L9.1438 14.5232L9.09969 14.5812L9.06951 14.6416L9.04396 14.7113L9.03003 14.7832L9.02539 14.9318L9.04861 15.0503L9.09272 15.1362L9.14845 15.2035L9.21346 15.2476L9.29008 15.2732L9.35974 15.2871L9.42939 15.2917L9.56174 15.2871L9.68015 15.2732L9.79392 15.2546L9.89376 15.229L9.98199 15.1989L10.0656 15.1594L10.1399 15.1199L10.2049 15.0712L10.2629 15.027L10.3163 14.976L10.3581 14.9272L10.393 14.8738L10.4255 14.8204L10.451 14.7693L10.4742 14.7206L10.4858 14.6718L10.5207 14.5464L10.5508 14.4001L10.5787 14.2608L10.5996 14.1471Z" fill="#ED1B2E"/>
<path fill-rule="evenodd" clip-rule="evenodd" d="M2.43171 16.2645H1.23828L2.23435 10.5063H4.30776L4.50511 13.9218L5.94001 10.5063H8.10629L7.087 16.2645H5.8959L6.6505 11.9621H6.60174L4.81624 16.2645H3.46957L3.46261 16.0857L3.4301 15.6074L3.39063 14.9271L3.34884 14.147L3.30472 13.3622L3.26525 12.6726L3.23274 12.1734L3.22578 11.9621H3.21185H3.18631H3.15845L2.43171 16.2645Z" fill="white"/>
<path d="M2.43171 16.2645H1.23828L2.23435 10.5063H4.30776L4.50511 13.9218L5.94001 10.5063H8.10629L7.087 16.2645H5.8959L6.6505 11.9621H6.60174L4.81624 16.2645H3.46957L3.46261 16.0857L3.4301 15.6074L3.39063 14.9271L3.34884 14.147L3.30472 13.3622L3.26525 12.6726L3.23274 12.1734L3.22578 11.9621H3.21185H3.18631H3.15845L2.43171 16.2645Z" stroke="white" stroke-width="0.22" stroke-miterlimit="2.61"/>
<path fill-rule="evenodd" clip-rule="evenodd" d="M33.4219 15.2917L33.2408 16.2645H32.1402L32.1495 16.0857L32.1542 15.9255V15.8071L32.1635 15.756L32.1054 15.8211L32.0404 15.8861L31.9615 15.9488L31.8732 16.0091L31.7803 16.0672L31.6759 16.1206L31.5667 16.1717L31.4576 16.2158L31.3369 16.2506L31.2161 16.2854L31.0931 16.3086L30.97 16.3249L30.8423 16.3342L30.7193 16.3388L30.6009 16.3249L30.4824 16.3086L30.3246 16.2692L30.1852 16.2251L30.0622 16.167L29.9484 16.102L29.8509 16.0323L29.7673 15.9534L29.6977 15.8698L29.6373 15.7816L29.5839 15.691L29.5444 15.5935L29.5096 15.496L29.4864 15.4008L29.4701 15.2986L29.4562 15.1988L29.4492 15.1013V15.0061L29.4562 14.8343L29.484 14.6717L29.5235 14.5185L29.5792 14.3699L29.6443 14.2306L29.7278 14.1029L29.8207 13.9798L29.9206 13.8707L30.0366 13.7686L30.1551 13.678L30.2804 13.5944L30.4174 13.5248L30.5521 13.4621L30.6984 13.4133L30.8423 13.3738L30.9909 13.3483H31.0002L31.0234 13.3437L31.0536 13.339L31.0977 13.3344L31.1535 13.3251L31.2161 13.3228L31.2812 13.3135L31.3508 13.3042L31.4251 13.2949L31.504 13.2856L31.5783 13.2833L31.655 13.274L31.7246 13.2694L31.785 13.2647L31.8477 13.2601H31.8941H32.0009L32.1054 13.2647L32.2052 13.2694H32.3028L32.3863 13.274L32.456 13.2786L32.4955 13.2833H32.5141L32.5233 13.2508L32.5349 13.1718L32.5489 13.0813L32.5582 12.9977L32.5396 12.9002L32.5048 12.8143L32.4467 12.7353L32.3817 12.668L32.3028 12.6123L32.2099 12.5728L32.1147 12.5449L32.0102 12.538L31.8872 12.5333L31.7548 12.5287H31.6178L31.4785 12.5333L31.3346 12.5426L31.1929 12.5542L31.0536 12.5682L30.9166 12.5844L30.7866 12.603L30.6589 12.6239L30.5451 12.6471L30.4383 12.668L30.3431 12.6959L30.2642 12.7214L30.2015 12.7516L30.1551 12.7771L30.4615 11.7207L30.5567 11.6812L30.6589 11.6464L30.7587 11.6162L30.8632 11.5953L30.9747 11.5721L31.0838 11.5558L31.1976 11.5373L31.316 11.528L31.439 11.5187L31.5667 11.514L31.6921 11.5117H31.8291H31.9661H32.1054L32.254 11.514L32.4026 11.5187L32.5257 11.528L32.658 11.5512L32.7927 11.5814L32.9343 11.6208L33.069 11.6742L33.206 11.7346L33.3383 11.8089L33.4614 11.8925L33.5705 11.99L33.6703 12.0945L33.7586 12.2129L33.8236 12.3453L33.8723 12.4846L33.9025 12.6332V12.8003L33.8816 12.9768L33.4219 15.2917Z" fill="white"/>
<path fill-rule="evenodd" clip-rule="evenodd" d="M33.2404 16.2945L33.2659 16.269L33.447 15.2962L33.3936 15.2869L33.2148 16.2597L33.2404 16.2342V16.2945L33.2636 16.2899L33.2659 16.269L33.2404 16.2945Z" fill="white"/>
<path fill-rule="evenodd" clip-rule="evenodd" d="M32.114 16.2646L32.1396 16.2947H33.2401V16.2344H32.1396L32.1674 16.2646H32.114L32.1094 16.2947H32.1396L32.114 16.2646Z" fill="white"/>
<path fill-rule="evenodd" clip-rule="evenodd" d="M32.1829 15.7721L32.1435 15.7373L32.1249 15.807L32.1226 15.9254V16.0856L32.1133 16.2644H32.1667L32.1736 16.0856L32.1829 15.9254L32.1783 15.807V15.7721L32.1388 15.7373L32.1829 15.7721Z" fill="white"/>
<path fill-rule="evenodd" clip-rule="evenodd" d="M30.4766 16.334L30.5996 16.3526L30.718 16.3642L30.8411 16.3619L30.9688 16.3526L31.0965 16.334L31.2196 16.3131L31.3403 16.2783L31.4633 16.2411L31.5725 16.1994L31.6886 16.1459L31.793 16.0925L31.8859 16.0322L31.9765 15.9695L32.0554 15.9091L32.1251 15.8395L32.1831 15.7721L32.139 15.7373L32.0833 15.8046L32.0206 15.865L31.9416 15.9254L31.8581 15.9881L31.7675 16.0415L31.6607 16.0925L31.5562 16.1459L31.4471 16.1901L31.3333 16.2249L31.2103 16.2597L31.0872 16.2829L30.9688 16.2992L30.8411 16.3085L30.718 16.3131L30.5996 16.2992L30.4859 16.2829L30.4766 16.334Z" fill="white"/>
<path fill-rule="evenodd" clip-rule="evenodd" d="M29.416 15.0061L29.4207 15.1013L29.4299 15.1988L29.4439 15.3033L29.4601 15.4055L29.4833 15.5007L29.5182 15.6028L29.5576 15.7027L29.6134 15.7955L29.6761 15.8861L29.7457 15.9697L29.8339 16.0533L29.9338 16.1229L30.0476 16.1949L30.1753 16.2506L30.3192 16.2947L30.4771 16.3342L30.4864 16.2831L30.3285 16.2413L30.1938 16.1995L30.0754 16.1415L29.9616 16.0811L29.8688 16.0091L29.7898 15.9348L29.7202 15.8513L29.6575 15.77L29.6087 15.6771L29.5693 15.5842L29.5344 15.4914L29.5135 15.3962L29.495 15.2963L29.4833 15.1988L29.4741 15.1013L29.4787 15.0061H29.416Z" fill="white"/>
<path fill-rule="evenodd" clip-rule="evenodd" d="M30.9902 13.3228L30.837 13.3483L30.6884 13.3878L30.5444 13.4365L30.4028 13.4969L30.2681 13.5665L30.1358 13.6548L30.0174 13.7477L29.9036 13.8521L29.7991 13.9613L29.7062 14.0843L29.618 14.2167L29.553 14.3606L29.495 14.5115L29.4555 14.6671L29.4299 14.8343L29.416 15.0061H29.4787L29.4833 14.8343L29.5089 14.6764L29.5484 14.5278L29.6064 14.3792L29.6714 14.2422L29.7504 14.1191L29.8409 13.9961L29.9384 13.887L30.0522 13.7918L30.1706 13.6989L30.2937 13.62L30.4307 13.5503L30.5607 13.4876L30.707 13.4412L30.8463 13.4017L30.9902 13.3738V13.3228Z" fill="white"/>
<path fill-rule="evenodd" clip-rule="evenodd" d="M31.8934 13.2297H31.847L31.7843 13.239L31.7239 13.2437L31.6543 13.246L31.5777 13.2553L31.5034 13.2599L31.4244 13.2692L31.3501 13.2785L31.2805 13.2855L31.2155 13.2947L31.1528 13.2994L31.097 13.3087L31.0529 13.3133L31.0181 13.318L30.9995 13.3226H30.9902V13.3737H30.9995L31.0251 13.369L31.0529 13.3644L31.097 13.3621L31.1528 13.3528L31.2155 13.3481L31.2805 13.3389L31.3501 13.3296L31.4244 13.3226L31.5034 13.3133L31.5777 13.3087L31.6543 13.2994L31.7239 13.2947L31.7843 13.2901H31.847H31.8934V13.2297Z" fill="white"/>
<path fill-rule="evenodd" clip-rule="evenodd" d="M32.4846 13.2785L32.5125 13.2553H32.4939L32.4545 13.2506L32.3848 13.246L32.3012 13.239H32.2037H32.1039L31.9994 13.2297H31.8926V13.2901H31.9994H32.1039L32.2037 13.2994H32.3012H32.3848L32.4545 13.304L32.4939 13.3087H32.5125L32.5381 13.2855L32.5125 13.3087L32.5334 13.3133L32.5381 13.2855L32.4846 13.2785Z" fill="white"/>
<path fill-rule="evenodd" clip-rule="evenodd" d="M32.5285 12.9976H32.5238L32.5215 13.0811L32.5076 13.1694L32.4937 13.246L32.4844 13.2785L32.5378 13.2855L32.5471 13.2553L32.5587 13.1763L32.5726 13.0811L32.5865 12.9976H32.5819H32.5285Z" fill="white"/>
<path fill-rule="evenodd" clip-rule="evenodd" d="M32.0098 12.5634V12.5681L32.1096 12.5727L32.2025 12.5982L32.2884 12.6377L32.365 12.6911L32.4254 12.7515L32.4788 12.8258L32.5136 12.9047L32.5299 12.9976H32.5833L32.5647 12.8954L32.5299 12.8002L32.4695 12.7167L32.3998 12.647L32.3162 12.5843L32.2187 12.5448L32.1189 12.5193L32.0098 12.5054V12.51V12.5634Z" fill="white"/>
<path fill-rule="evenodd" clip-rule="evenodd" d="M30.125 12.7748L30.1691 12.8004L30.2132 12.7772L30.2713 12.747L30.3456 12.7214L30.4408 12.6959L30.5476 12.6727L30.6613 12.6518L30.789 12.6286L30.9144 12.6123L31.0514 12.5937L31.1907 12.5821L31.3324 12.5682L31.4763 12.5589H31.6156H31.7526H31.885L32.008 12.5635V12.5101L31.885 12.5055L31.7526 12.4985H31.6156L31.4763 12.5055L31.3324 12.5148L31.1907 12.5287L31.0514 12.5427L30.9144 12.5589L30.7798 12.5775L30.6521 12.5984L30.5383 12.6216L30.4338 12.6425L30.3363 12.668L30.2527 12.6959L30.1877 12.7261L30.1343 12.7563L30.1784 12.7818L30.125 12.7748Z" fill="white"/>
<path fill-rule="evenodd" clip-rule="evenodd" d="M30.4501 11.6951L30.4338 11.716L30.125 12.7747L30.1784 12.7817L30.4849 11.7253L30.4686 11.7485L30.4501 11.6951L30.4361 11.6997L30.4338 11.716L30.4501 11.6951Z" fill="white"/>
<path fill-rule="evenodd" clip-rule="evenodd" d="M32.4015 11.4932L32.2529 11.4839L32.1043 11.4792H31.965H31.828H31.691L31.5657 11.4885L31.438 11.4932L31.3149 11.5025L31.1965 11.5118L31.0781 11.528L30.9689 11.5466L30.8598 11.5675L30.753 11.5907L30.6485 11.6209L30.5487 11.6557L30.4512 11.6952L30.4697 11.7486L30.5649 11.7091L30.6671 11.6743L30.7623 11.6418L30.8668 11.6209L30.9782 11.5977L31.0874 11.5814L31.1965 11.5628L31.3149 11.5559L31.438 11.5466L31.5657 11.5419H31.691H31.828H31.965H32.1043L32.2529 11.5466H32.4015V11.4932Z" fill="white"/>
<path fill-rule="evenodd" clip-rule="evenodd" d="M33.9049 12.9791L33.9282 12.8004V12.6332L33.8957 12.4799L33.8492 12.336L33.7772 12.199L33.6913 12.0759L33.5845 11.9668L33.4754 11.8716L33.3477 11.788L33.2177 11.7091L33.076 11.6464L32.9414 11.5953L32.7951 11.5559L32.6604 11.5233L32.5234 11.5025L32.4004 11.4932V11.5466L32.5234 11.5559L32.6512 11.5768L32.7881 11.6069L32.9228 11.6464L33.0598 11.6998L33.1898 11.7602L33.3222 11.8298L33.4406 11.9134L33.5497 12.0109L33.6472 12.1108L33.7355 12.2269L33.7958 12.3522L33.8446 12.4892L33.8748 12.6332V12.8004L33.8539 12.9699L33.9049 12.9791Z" fill="white"/>
<path fill-rule="evenodd" clip-rule="evenodd" d="M33.446 15.2962L33.9057 12.979L33.8546 12.9697L33.3926 15.2869L33.446 15.2962Z" fill="white"/>
<path fill-rule="evenodd" clip-rule="evenodd" d="M32.3592 14.1471L32.3499 14.1192L32.3314 14.0983L32.3012 14.0844L32.2571 14.0728L32.2083 14.0681L32.1526 14.0635H32.0876L32.0202 14.0681L31.9506 14.0774L31.8809 14.0844L31.8113 14.0937L31.7439 14.1029L31.6789 14.1169L31.6209 14.1238L31.5651 14.1378L31.521 14.1471L31.4908 14.1517L31.456 14.1633L31.4119 14.1772L31.3631 14.1958L31.3051 14.2214L31.254 14.2469L31.1913 14.2771L31.1356 14.3166L31.0776 14.356L31.0218 14.4048L30.9731 14.4535L30.9243 14.5116L30.8848 14.572L30.8547 14.637L30.8268 14.7066L30.8152 14.7832L30.8105 14.9318L30.8314 15.0503L30.8663 15.1362L30.9197 15.2035L30.9847 15.2476L31.0613 15.2732L31.1356 15.2871L31.2099 15.2917L31.3399 15.2871L31.463 15.2732L31.5768 15.2523L31.6789 15.2198L31.7741 15.1849L31.8577 15.1455L31.9366 15.1013L32.0086 15.0503L32.069 15.0015L32.1224 14.9435L32.1688 14.8924L32.2083 14.8343L32.2408 14.7832L32.2617 14.7298L32.2803 14.6764L32.2919 14.6277L32.3105 14.5069L32.3314 14.3792L32.3499 14.2562L32.3592 14.1471Z" fill="#FCB331"/>
<path fill-rule="evenodd" clip-rule="evenodd" d="M41.3906 15.6631L41.3999 15.5633L41.4347 15.4449L41.4974 15.3381L41.5717 15.2475L41.6623 15.1732L41.7691 15.1198L41.8829 15.085L42.0059 15.071L42.1266 15.085L42.2404 15.1198L42.3472 15.1732L42.4401 15.2475L42.5144 15.3381L42.5748 15.4449L42.6096 15.5633L42.6189 15.6631H42.4865L42.4819 15.5842L42.4564 15.489L42.4122 15.4007L42.3565 15.3264L42.2845 15.2638L42.2009 15.2196L42.1057 15.1895L42.0059 15.1802L41.9038 15.1895L41.8086 15.2196L41.725 15.2638L41.6553 15.3264L41.5973 15.4007L41.5532 15.489L41.5276 15.5842L41.5183 15.6631H41.3906Z" fill="white"/>
<path fill-rule="evenodd" clip-rule="evenodd" d="M41.7871 15.6632V15.4009H42.0286L42.082 15.4055L42.1284 15.4148L42.1656 15.4264L42.1958 15.445L42.2166 15.4705L42.2352 15.4961L42.2422 15.5286L42.2468 15.5588L42.2422 15.5982L42.2352 15.6284L42.2213 15.654L42.212 15.6632H42.0286L42.0472 15.6586L42.0773 15.654L42.1029 15.647L42.1238 15.6377L42.1424 15.6238L42.1516 15.6122L42.1609 15.5889V15.5588L42.1563 15.5355L42.147 15.5193L42.1331 15.51L42.1215 15.5007L42.0982 15.4961L42.0773 15.4914H42.0541H42.0286H41.8962V15.6632H41.7871Z" fill="white"/>
<path fill-rule="evenodd" clip-rule="evenodd" d="M41.3914 15.6631L41.3867 15.6909L41.4006 15.8163L41.4355 15.9347L41.4982 16.0415L41.5725 16.1275L41.663 16.2018L41.7698 16.2598L41.8836 16.2946L42.0067 16.3086L42.1274 16.2946L42.2412 16.2598L42.348 16.2018L42.4408 16.1275L42.5151 16.0415L42.5755 15.9347L42.6103 15.8163L42.6243 15.6909L42.6196 15.6631H42.4873L42.4919 15.6909L42.4826 15.7954L42.4571 15.8906L42.413 15.9742L42.3572 16.0485L42.2853 16.1112L42.2017 16.16L42.1065 16.1901L42.0067 16.1994L41.9045 16.1901L41.8093 16.16L41.7257 16.1112L41.6561 16.0485L41.598 15.9742L41.5539 15.8906L41.5284 15.7954L41.5191 15.6909V15.6631H41.3914Z" fill="white"/>
<path fill-rule="evenodd" clip-rule="evenodd" d="M41.7871 15.6631V15.9301H41.8962V15.7118H42.0077L42.1377 15.9301H42.2259L42.0936 15.7118H42.1238L42.1563 15.7026L42.1818 15.6933L42.2027 15.677L42.212 15.6631H42.0286L42.0077 15.6677H41.8962V15.6631H41.7871Z" fill="white"/>
<path d="M41.3867 15.6979L41.4007 15.5726L41.4355 15.4541L41.4958 15.3473L41.5725 15.2568L41.663 15.1825L41.7698 15.1291L41.8836 15.0943L42.0067 15.0803L42.1274 15.0943L42.2435 15.1291L42.348 15.1825L42.4408 15.2568L42.5151 15.3473L42.5755 15.4541L42.6103 15.5726L42.6243 15.6979L42.6103 15.8256L42.5755 15.944L42.5151 16.0509L42.4408 16.1368L42.348 16.2111L42.2435 16.2691L42.1274 16.3039L42.0067 16.3179L41.8836 16.3039L41.7698 16.2691L41.663 16.2111L41.5725 16.1368L41.4958 16.0509L41.4355 15.944L41.4007 15.8256L41.3867 15.6979ZM41.8952 15.9301H41.7861V15.4007H42.0183H42.0717H42.1181L42.1553 15.4123L42.1854 15.4309L42.2063 15.4565L42.2249 15.482V15.5145V15.5447V15.5842V15.6144L42.211 15.6399L42.1947 15.6631L42.1715 15.6794H42.146H42.1158H42.0833L42.2156 15.8976H42.1274L41.9974 15.6794H41.8859V15.9301H41.8952ZM41.9974 15.6677H42.0368H42.067H42.0926H42.1158L42.132 15.6538V15.6399V15.619V15.5888V15.5656V15.5493H42.1181H42.1065H42.0833H41.8813V15.7235H41.9927L41.9974 15.6677ZM41.9927 16.2552H42.0926L42.1901 16.225L42.2713 16.1762L42.3433 16.1135L42.399 16.0392L42.4432 15.9557L42.4687 15.8605V15.7537V15.6492L42.4432 15.554L42.399 15.4657L42.3433 15.3914L42.2713 15.3288L42.1901 15.2846L42.0926 15.2545H41.9927H41.8906L41.7954 15.2846L41.7118 15.3288L41.6398 15.3914L41.5841 15.4657L41.54 15.554L41.5144 15.6492V15.7537V15.8605L41.54 15.9557L41.5841 16.0392L41.6398 16.1135L41.7118 16.1762L41.7954 16.225L41.8906 16.2552H41.9927Z" stroke="white" stroke-width="0.22" stroke-miterlimit="2.61"/>
<path fill-rule="evenodd" clip-rule="evenodd" d="M33.748 16.2644H34.9856L35.4291 13.7684L35.4453 13.6732L35.4709 13.5757L35.4987 13.4805L35.5335 13.383L35.5777 13.2855L35.6287 13.1949L35.6868 13.1067L35.7564 13.0231L35.8354 12.9488L35.9236 12.8792L36.0258 12.8141L36.1395 12.7607L36.2649 12.7166L36.4066 12.6818L36.5598 12.6563L36.7316 12.647H36.792H36.8268H36.8407L37.0381 11.5186L36.915 11.5278L36.7966 11.5418L36.6875 11.5627L36.5807 11.5952L36.4855 11.63L36.3926 11.6741L36.3044 11.7206L36.2231 11.774L36.1442 11.8343L36.0676 11.897L35.9979 11.9667L35.9283 12.0363L35.8632 12.1106L35.7959 12.1942L35.7309 12.2732L35.6705 12.3614L35.8006 11.5673H34.5677L33.748 16.2644Z" fill="white"/>
<path d="M33.748 16.2644H34.9856L35.4291 13.7684L35.4453 13.6732L35.4709 13.5757L35.4987 13.4805L35.5335 13.383L35.5777 13.2855L35.6287 13.1949L35.6868 13.1067L35.7564 13.0231L35.8354 12.9488L35.9236 12.8792L36.0258 12.8141L36.1395 12.7607L36.2649 12.7166L36.4066 12.6818L36.5598 12.6563L36.7316 12.647H36.792H36.8268H36.8407L37.0381 11.5186L36.915 11.5278L36.7966 11.5418L36.6875 11.5627L36.5807 11.5952L36.4855 11.63L36.3926 11.6741L36.3044 11.7206L36.2231 11.774L36.1442 11.8343L36.0676 11.897L35.9979 11.9667L35.9283 12.0363L35.8632 12.1106L35.7959 12.1942L35.7309 12.2732L35.6705 12.3614L35.8006 11.5673H34.5677L33.748 16.2644Z" stroke="white" stroke-width="0.22" stroke-miterlimit="2.61"/>
<path fill-rule="evenodd" clip-rule="evenodd" d="M22.1367 16.2644H23.3743H23.3952L23.8177 13.7684L23.834 13.6732L23.8572 13.5804L23.8781 13.4875L23.9083 13.4016L23.9431 13.3133L23.9872 13.2298L24.0406 13.1508L24.101 13.0765L24.173 13.0092L24.2519 12.9442L24.3471 12.8931L24.4516 12.8443L24.5747 12.8049L24.7116 12.77L24.8602 12.7468L25.0321 12.7352H25.0437L25.0622 12.7375L25.0831 12.7422H25.1064L25.1273 12.7468L25.1458 12.7515L25.1574 12.7561H25.1621L25.1667 12.7375L25.1807 12.6864L25.1969 12.6075L25.2201 12.51L25.2503 12.3962L25.2805 12.2732L25.32 12.1501L25.3594 12.027L25.3943 11.9458L25.4384 11.8622L25.4825 11.7786L25.5266 11.7043L25.5661 11.637L25.5963 11.5859L25.6195 11.5557L25.6264 11.5418H25.6241L25.6056 11.5371L25.5847 11.5325L25.5522 11.5278H25.522L25.4871 11.5232L25.457 11.5186H25.4268L25.2898 11.5278L25.1667 11.5418L25.053 11.5627L24.9485 11.5905L24.8463 11.6254L24.7558 11.6695L24.6722 11.7113L24.5932 11.7647L24.5189 11.8227L24.4493 11.8877L24.3819 11.9527L24.3169 12.027L24.2519 12.1037L24.1892 12.1872L24.1242 12.2732L24.0569 12.3614L24.2148 11.5673H22.9563L22.1367 16.2644Z" fill="white"/>
<path d="M22.1367 16.2644H23.3743H23.3952L23.8177 13.7684L23.834 13.6732L23.8572 13.5804L23.8781 13.4875L23.9083 13.4016L23.9431 13.3133L23.9872 13.2298L24.0406 13.1508L24.101 13.0765L24.173 13.0092L24.2519 12.9442L24.3471 12.8931L24.4516 12.8443L24.5747 12.8049L24.7116 12.77L24.8602 12.7468L25.0321 12.7352H25.0437L25.0622 12.7375L25.0831 12.7422H25.1064L25.1273 12.7468L25.1458 12.7515L25.1574 12.7561H25.1621L25.1667 12.7375L25.1807 12.6864L25.1969 12.6075L25.2201 12.51L25.2503 12.3962L25.2805 12.2732L25.32 12.1501L25.3594 12.027L25.3943 11.9458L25.4384 11.8622L25.4825 11.7786L25.5266 11.7043L25.5661 11.637L25.5963 11.5859L25.6195 11.5557L25.6264 11.5418H25.6241L25.6056 11.5371L25.5847 11.5325L25.5521 11.5278H25.522L25.4871 11.5232L25.457 11.5186H25.4268L25.2898 11.5278L25.1667 11.5418L25.053 11.5627L24.9485 11.5905L24.8463 11.6254L24.7558 11.6695L24.6722 11.7113L24.5932 11.7647L24.5189 11.8227L24.4493 11.8877L24.3819 11.9527L24.3169 12.027L24.2519 12.1037L24.1892 12.1872L24.1242 12.2732L24.0569 12.3614L24.2148 11.5673H22.9563L22.1367 16.2644Z" stroke="white" stroke-width="0.22" stroke-miterlimit="2.61"/>
<path fill-rule="evenodd" clip-rule="evenodd" d="M41.4004 20.878V20.8594L41.4352 20.7456L41.4979 20.6458L41.5722 20.5576L41.6628 20.4879L41.7696 20.4345L41.8833 20.4043L42.0064 20.3904L42.1271 20.4043L42.2409 20.4345L42.3477 20.4879L42.4406 20.5576L42.5149 20.6458L42.5752 20.7456L42.6101 20.8594V20.878H42.4824L42.4568 20.7851L42.4127 20.7015L42.357 20.6272L42.285 20.5668L42.2014 20.5181L42.1062 20.4879L42.0064 20.4786L41.9042 20.4879L41.809 20.5181L41.7254 20.5668L41.6558 20.6272L41.5977 20.7015L41.5536 20.7851L41.5281 20.878H41.4004Z" fill="#FCB331"/>
<path fill-rule="evenodd" clip-rule="evenodd" d="M41.7871 20.8779V20.7246H42.0286H42.082L42.1284 20.7316L42.1656 20.7409L42.1958 20.7594L42.2166 20.7803L42.2352 20.8059L42.2422 20.8384L42.2468 20.8779H42.1609V20.8546L42.1563 20.8337L42.147 20.8152L42.1331 20.8059L42.1215 20.7989L42.0982 20.7943L42.0773 20.7896H42.0541H42.0286H41.8962V20.8779H41.7871Z" fill="#FCB331"/>
<path fill-rule="evenodd" clip-rule="evenodd" d="M41.3867 20.9731L41.4006 20.8779H41.5284V20.8826L41.5191 20.9731H41.3867Z" fill="#FCB331"/>
<path fill-rule="evenodd" clip-rule="evenodd" d="M41.7871 20.9731V20.8779H41.8962V20.9662H42.0077L42.0472 20.9569L42.0773 20.9522L42.1029 20.9429L42.1238 20.9337L42.1424 20.922L42.1516 20.9081L42.1609 20.8849V20.8779H42.2468L42.2422 20.9081L42.2352 20.9337L42.2213 20.9569L42.2027 20.9731H41.7871Z" fill="#FCB331"/>
<path fill-rule="evenodd" clip-rule="evenodd" d="M42.4917 20.9731L42.4824 20.8826V20.8779H42.6101L42.6241 20.9731H42.4917Z" fill="#FCB331"/>
<path fill-rule="evenodd" clip-rule="evenodd" d="M41.3867 20.9731V20.9871L41.4006 21.1148L41.4355 21.2332L41.4982 21.3377L41.5725 21.4305L41.663 21.5048L41.7698 21.5583L41.8836 21.5931L42.0067 21.6047L42.1274 21.5931L42.2412 21.5583L42.348 21.5048L42.4408 21.4305L42.5151 21.3377L42.5755 21.2332L42.6103 21.1148L42.6243 20.9871V20.9731H42.4919V20.9871L42.4826 21.0916L42.4571 21.1891L42.413 21.2727L42.3572 21.347L42.2853 21.4073L42.2017 21.4561L42.1065 21.4863L42.0067 21.4956L41.9045 21.4863L41.8093 21.4561L41.7257 21.4073L41.6561 21.347L41.598 21.2727L41.5539 21.1891L41.5284 21.0916L41.5191 20.9871V20.9731H41.3867Z" fill="#FCB331"/>
<path fill-rule="evenodd" clip-rule="evenodd" d="M41.7871 20.9731V21.2285H41.8962V21.008H42.0077L42.1377 21.2285H42.2259L42.0936 21.008H42.1238L42.1563 21.001L42.1818 20.9917L42.2027 20.9731H41.7871Z" fill="#FCB331"/>
</svg>
