<svg width="106" height="34" viewBox="0 0 106 34" fill="none" xmlns="http://www.w3.org/2000/svg">
<path d="M12.8018 33.9905C11.6385 33.9906 10.5897 33.2905 10.144 32.2166L0.220879 8.27468C-0.386216 6.80975 0.309726 5.1303 1.77538 4.52334L12.1688 0.221112C12.8726 -0.0703857 13.6634 -0.0704513 14.3673 0.22093C15.0711 0.512311 15.6303 1.07126 15.9217 1.77476L25.8448 25.7177C26.4509 27.1822 25.7551 28.8606 24.2903 29.4675L13.8969 33.7717C13.5498 33.9159 13.1777 33.9902 12.8018 33.9905ZM13.2682 1.54711C13.0941 1.5474 12.9217 1.58206 12.7609 1.64911L2.36701 5.95134C2.04211 6.08585 1.78399 6.34386 1.64946 6.6686C1.51492 6.99334 1.515 7.3582 1.64966 7.68288L11.5727 31.6263C11.8536 32.3018 12.6286 32.6228 13.3052 32.3437L23.6986 28.0385C24.0235 27.904 24.2817 27.646 24.4162 27.3213C24.5507 26.9965 24.5507 26.6317 24.416 26.307L14.4929 2.36607C14.2875 1.87104 13.8044 1.54801 13.2682 1.54711Z" fill="#5A78FF"/>
<path style="mix-blend-mode:multiply" opacity="0.7" d="M16.5768 3.3528L15.1479 3.94434L19.0769 13.4244L20.5057 12.8328L16.5768 3.3528Z" fill="url(#paint0_linear_5259_4889)"/>
<path style="mix-blend-mode:multiply" opacity="0.7" d="M23.7552 24.7165L25.1841 24.125L20.7367 13.394L19.3078 13.9855L23.7552 24.7165Z" fill="url(#paint1_linear_5259_4889)"/>
<path d="M21.9512 17.6036C18.9787 18.8354 16.4968 20.5335 14.8718 22.5804L10.6821 12.4671C12.5932 10.2479 15.0258 8.53783 17.7615 7.49028C20.7339 6.25839 23.7369 5.66216 26.2883 6.00955L30.479 16.1223C27.5575 15.9024 24.6271 16.4114 21.9512 17.6036Z" fill="#5A78FF"/>
<g style="mix-blend-mode:multiply" opacity="0.4">
<path style="mix-blend-mode:multiply" opacity="0.9" d="M21.9512 17.6036C18.9787 18.8354 16.4968 20.5335 14.8718 22.5804L10.6821 12.4671C12.5932 10.2479 15.0258 8.53783 17.7614 7.49028C20.7339 6.25839 23.7369 5.66216 26.2883 6.00955L30.479 16.1223C27.5575 15.9024 24.6271 16.4114 21.9512 17.6036Z" fill="url(#paint2_linear_5259_4889)"/>
<path style="mix-blend-mode:multiply" opacity="0.7" d="M21.9512 17.6036C18.9787 18.8354 16.4968 20.5335 14.8718 22.5804L10.6821 12.4671C12.5932 10.2479 15.0258 8.53783 17.7614 7.49028C20.7339 6.25839 23.7369 5.66216 26.2883 6.00955L30.479 16.1223C27.5575 15.9024 24.6271 16.4114 21.9512 17.6036Z" fill="url(#paint3_linear_5259_4889)"/>
</g>
<path d="M23.3161 20.6866C20.0986 20.6866 17.1533 21.3079 14.8706 22.5763V12.3507C17.4858 11.0317 20.3878 10.3824 23.3161 10.461C26.5336 10.461 29.5366 11.0572 31.7611 12.3531V22.5788C29.1463 21.2587 26.2444 20.6085 23.3161 20.6866ZM39.7525 20.6959L42.3557 12.4719C42.383 12.358 42.4804 12.2745 42.5972 12.2649H43.9038C44.0209 12.2814 44.1194 12.3609 44.1601 12.4719L46.1865 17.6606C46.2259 17.7641 46.3294 17.7739 46.3639 17.6606L48.3755 12.4719C48.4162 12.3609 48.5147 12.2814 48.6319 12.2649H49.9384C50.0552 12.2745 50.1526 12.358 50.1799 12.4719L52.7535 20.6959C52.7835 20.7593 52.7776 20.8337 52.738 20.8915C52.6984 20.9493 52.6311 20.9818 52.5612 20.9768H51.0082C50.8981 20.9818 50.8003 20.907 50.7765 20.7994L49.1249 15.458C49.1002 15.3545 48.9819 15.3545 48.9474 15.458L46.9753 20.76C46.9417 20.8877 46.8263 20.9767 46.6943 20.9768H45.7822C45.6392 20.9768 45.5652 20.898 45.511 20.76L43.4995 15.458C43.46 15.3545 43.3565 15.3545 43.3319 15.458L41.6408 20.7994C41.6145 20.9097 41.5123 20.9847 41.3992 20.9768H39.9201C39.8535 20.9758 39.7921 20.9403 39.7579 20.8831C39.7238 20.8259 39.7217 20.7551 39.7525 20.6959ZM53.2465 17.7394C53.2185 16.3384 54.0413 15.0596 55.3285 14.504C56.6156 13.9483 58.1112 14.2261 59.1126 15.2069C60.114 16.1877 60.4221 17.6766 59.8922 18.974C59.3624 20.2714 58.0998 21.1194 56.6977 21.1197C55.7852 21.1508 54.8999 20.807 54.2478 20.1683C53.5957 19.5296 53.2339 18.6518 53.2465 17.7394ZM58.374 17.7394C58.3122 16.818 57.5237 16.1156 56.6008 16.1597C55.6779 16.2038 54.9601 16.9782 54.9865 17.9013C55.0129 18.8244 55.7738 19.5565 56.6977 19.5478C57.6573 19.5078 58.403 18.6985 58.3641 17.7394H58.374ZM63.1859 20.4446C63.0577 20.3412 62.9443 20.3806 62.9443 20.558V20.7255C62.9444 20.8551 62.8421 20.9617 62.7126 20.967H61.5096C61.3783 20.9619 61.2731 20.8567 61.268 20.7255V12.5015C61.2731 12.3703 61.3783 12.2651 61.5096 12.26H62.7767C62.9062 12.2653 63.0085 12.3719 63.0084 12.5015V14.847C63.0084 15.0145 63.1218 15.0638 63.3042 14.9357C63.7895 14.5724 64.3791 14.3753 64.9854 14.3739C66.7406 14.3739 68.0866 15.8522 68.0866 17.7542C68.1266 18.6233 67.8144 19.4718 67.2206 20.108C66.6268 20.7441 65.8015 21.1142 64.9312 21.1345C64.2842 21.1276 63.6626 20.8819 63.1859 20.4446ZM66.3412 17.7542C66.3898 17.1196 66.0785 16.5113 65.5352 16.1791C64.992 15.8469 64.3084 15.8469 63.7651 16.1791C63.2219 16.5113 62.9106 17.1196 62.9591 17.7542C62.9418 18.2141 63.1102 18.6616 63.4264 18.9961C63.7425 19.3306 64.18 19.5241 64.6403 19.533C65.1046 19.5228 65.5454 19.3275 65.8649 18.9906C66.1843 18.6538 66.3558 18.2033 66.3412 17.7394V17.7542ZM69.1465 12.8612C69.1465 12.3169 69.588 11.8757 70.1326 11.8757C70.6772 11.8757 71.1186 12.3169 71.1186 12.8612C71.1186 13.4054 70.6772 13.8467 70.1326 13.8467C69.588 13.8467 69.1465 13.4054 69.1465 12.8612ZM69.2353 20.7452V14.7829C69.2352 14.6533 69.3375 14.5467 69.467 14.5415H70.7341C70.8008 14.5388 70.8658 14.5627 70.9148 14.608C70.9638 14.6533 70.9928 14.7162 70.9954 14.7829V20.7255C70.9903 20.8567 70.8851 20.9619 70.7538 20.967H69.467C69.3375 20.9617 69.2352 20.8551 69.2353 20.7255V20.7452ZM72.4054 18.7939V12.5015C72.4053 12.3719 72.5076 12.2653 72.6372 12.26H73.9042C74.0355 12.2651 74.1407 12.3703 74.1458 12.5015V18.8333C74.1458 19.2423 74.3233 19.5133 74.7719 19.5133C74.836 19.5133 74.8975 19.5388 74.9428 19.5841C74.9881 19.6293 75.0135 19.6908 75.0135 19.7548V20.8044C75.0082 20.9338 74.9016 21.0361 74.7719 21.0359C73.0858 21.0359 72.4054 20.4841 72.4054 18.7939ZM75.4868 17.7788C75.4912 16.5888 76.1305 15.4915 77.1639 14.9003C78.1973 14.309 79.4678 14.3137 80.4968 14.9126C81.5257 15.5114 82.1569 16.6134 82.1525 17.8035C82.1525 18.0351 82.0884 18.2273 81.8567 18.2273H77.4491C77.3357 18.2273 77.2962 18.2913 77.3061 18.3948C77.4156 19.1667 78.106 19.7209 78.8838 19.6612C79.3518 19.6681 79.7984 19.4657 80.1015 19.1093C80.1956 18.9772 80.3486 18.8998 80.5107 18.9023H81.6891C81.8961 18.9023 81.9849 19.0452 81.906 19.2473C81.2148 20.6557 79.6439 21.4025 78.1145 21.0497C76.5851 20.697 75.5005 19.3377 75.4967 17.769L75.4868 17.7788ZM80.1656 17.1875C80.2544 17.1875 80.2938 17.1481 80.279 17.0446C80.1447 16.3374 79.5201 15.8297 78.7999 15.8423C78.0956 15.8417 77.4832 16.3251 77.3209 17.0102C77.2962 17.0988 77.3209 17.1875 77.4244 17.1875H80.1656ZM83.2174 20.7255V12.5015C83.2173 12.3719 83.3196 12.2653 83.4492 12.26H87.487C89.3309 12.26 90.5881 13.3342 90.5881 15.1426C90.5881 16.951 89.1633 18.0646 87.3983 18.0646H85.2585C85.1935 18.0579 85.1289 18.0815 85.0836 18.1287C85.0383 18.1759 85.0173 18.2414 85.0268 18.3061V20.7255C85.0218 20.8567 84.9165 20.9619 84.7852 20.967H83.4541C83.3226 20.9643 83.2174 20.857 83.2174 20.7255ZM87.3983 16.5765C88.1623 16.5524 88.7636 15.9163 88.7442 15.1525C88.7552 14.7907 88.6166 14.4404 88.361 14.184C88.1054 13.9276 87.7553 13.7877 87.3933 13.7974H85.2388C85.086 13.7974 85.0219 13.8762 85.0219 14.029V16.3597C85.0219 16.5125 85.086 16.5913 85.2388 16.5913L87.3983 16.5765ZM91.2093 17.7394C91.1761 16.868 91.4939 16.0196 92.0916 15.3842C92.6893 14.7489 93.517 14.3796 94.3893 14.3591C95.0189 14.3626 95.6255 14.5956 96.0952 15.0145C96.2086 15.118 96.3368 15.1032 96.3368 14.9504V14.7829C96.3368 14.655 96.4405 14.5513 96.5685 14.5513H97.7715C97.9027 14.5564 98.008 14.6616 98.0131 14.7928V19.0206C98.0131 19.3409 98.1264 19.4838 98.3483 19.5133C98.4634 19.5156 98.5576 19.6055 98.5652 19.7203V20.8339C98.5652 20.9537 98.4681 21.0507 98.3483 21.0507C97.5003 21.0507 97.0024 20.8093 96.7213 20.3215C96.6424 20.1933 96.5537 20.1687 96.4255 20.2968C95.884 20.854 95.1369 21.1641 94.3598 21.1542C93.4855 21.1289 92.6583 20.7523 92.0654 20.1096C91.4725 19.4669 91.1638 18.6124 91.2093 17.7394ZM96.3368 17.7394C96.3852 17.1066 96.0749 16.5 95.5332 16.1687C94.9915 15.8375 94.3098 15.8375 93.7681 16.1687C93.2264 16.5 92.916 17.1066 92.9645 17.7394C92.916 18.3723 93.2264 18.9789 93.7681 19.3101C94.3098 19.6413 94.9915 19.6413 95.5332 19.3101C96.0749 18.9789 96.3852 18.3723 96.3368 17.7394ZM99.1618 23.2238V22.1742C99.1671 22.0447 99.2737 21.9425 99.4034 21.9426C100.228 22.0043 100.989 21.4961 101.247 20.7107C101.291 20.5459 101.273 20.371 101.198 20.218L98.8413 14.8864C98.8006 14.8139 98.8019 14.7251 98.8447 14.6538C98.8875 14.5825 98.9652 14.5397 99.0484 14.5415H100.315C100.444 14.5415 100.523 14.6449 100.572 14.773L102.051 18.1829C102.154 18.4539 102.322 18.4391 102.435 18.1829L103.846 14.7632C103.895 14.6351 103.959 14.5562 104.087 14.5562H105.305C105.381 14.5523 105.453 14.5874 105.497 14.6493C105.541 14.7113 105.551 14.7914 105.522 14.8617L103.096 20.5974C102.214 22.6867 101.277 23.4652 99.4034 23.4652C99.2721 23.4602 99.1669 23.355 99.1618 23.2238Z" fill="#5A78FF"/>
<defs>
<linearGradient id="paint0_linear_5259_4889" x1="18.8305" y1="10.861" x2="18.1897" y2="3.3807" gradientUnits="userSpaceOnUse">
<stop stop-color="#504678"/>
<stop offset="0.302" stop-color="#504678" stop-opacity="0.616"/>
<stop offset="0.608" stop-color="#504678" stop-opacity="0.283"/>
<stop offset="0.852" stop-color="#504678" stop-opacity="0.076"/>
<stop offset="1" stop-color="#504678" stop-opacity="0"/>
</linearGradient>
<linearGradient id="paint1_linear_5259_4889" x1="21.1075" y1="16.2575" x2="21.5094" y2="24.6391" gradientUnits="userSpaceOnUse">
<stop stop-color="#504678"/>
<stop offset="0.302" stop-color="#504678" stop-opacity="0.616"/>
<stop offset="0.608" stop-color="#504678" stop-opacity="0.283"/>
<stop offset="0.852" stop-color="#504678" stop-opacity="0.076"/>
<stop offset="1" stop-color="#504678" stop-opacity="0"/>
</linearGradient>
<linearGradient id="paint2_linear_5259_4889" x1="13.3947" y1="16.9698" x2="21.2428" y2="11.6167" gradientUnits="userSpaceOnUse">
<stop stop-color="#504678"/>
<stop offset="0.179" stop-color="#504678" stop-opacity="0.872"/>
<stop offset="0.526" stop-color="#504678" stop-opacity="0.536"/>
<stop offset="1" stop-color="#504678" stop-opacity="0"/>
</linearGradient>
<linearGradient id="paint3_linear_5259_4889" x1="20.13" y1="11.7408" x2="19.7821" y2="8.95704" gradientUnits="userSpaceOnUse">
<stop stop-color="#504678"/>
<stop offset="0.643" stop-color="#504678" stop-opacity="0.332"/>
<stop offset="1" stop-color="#504678" stop-opacity="0"/>
</linearGradient>
</defs>
</svg>
