<svg width="106" height="34" viewBox="0 0 106 34" fill="none" xmlns="http://www.w3.org/2000/svg">
<path d="M12.8014 33.9903C11.6381 33.9903 10.5892 33.2903 10.1435 32.2164L0.22039 8.27444C-0.386705 6.80951 0.309237 5.13005 1.77489 4.5231L12.1683 0.220872C12.8721 -0.0706261 13.6629 -0.0706916 14.3668 0.22069C15.0706 0.512071 15.6298 1.07102 15.9212 1.77452L25.8443 25.7174C26.4504 27.1819 25.7546 28.8603 24.2898 29.4673L13.8964 33.7715C13.5493 33.9156 13.1772 33.99 12.8014 33.9903ZM13.2678 1.54687C13.0936 1.54716 12.9212 1.58182 12.7604 1.64887L2.36652 5.9511C2.04162 6.08561 1.78351 6.34362 1.64897 6.66836C1.51444 6.9931 1.51451 7.35795 1.64917 7.68264L11.5723 31.626C11.8531 32.3016 12.6281 32.6225 13.3047 32.3435L23.6982 28.0383C24.0231 27.9038 24.2812 27.6458 24.4157 27.321C24.5502 26.9963 24.5502 26.6314 24.4155 26.3068L14.4924 2.36583C14.287 1.8708 13.804 1.54777 13.2678 1.54687Z" fill="#5A78FF"/>
<path style="mix-blend-mode:multiply" opacity="0.7" d="M16.5763 3.35277L15.1475 3.94431L19.0764 13.4243L20.5052 12.8328L16.5763 3.35277Z" fill="url(#paint0_linear)"/>
<path style="mix-blend-mode:multiply" opacity="0.7" d="M23.7547 24.7162L25.1836 24.1246L20.7362 13.3936L19.3073 13.9851L23.7547 24.7162Z" fill="url(#paint1_linear)"/>
<path d="M21.9507 17.6031C18.9782 18.835 16.4964 20.5331 14.8714 22.58L10.6816 12.4667C12.5927 10.2475 15.0253 8.53742 17.761 7.48986C20.7334 6.25798 23.7364 5.66175 26.2878 6.00914L30.4785 16.1219C27.557 15.902 24.6266 16.411 21.9507 17.6031Z" fill="#5A78FF"/>
<g style="mix-blend-mode:multiply" opacity="0.4">
<path style="mix-blend-mode:multiply" opacity="0.9" d="M21.9507 17.6031C18.9782 18.835 16.4964 20.5331 14.8714 22.58L10.6816 12.4667C12.5927 10.2475 15.0253 8.53742 17.761 7.48986C20.7334 6.25798 23.7364 5.66175 26.2878 6.00914L30.4785 16.1219C27.557 15.902 24.6266 16.411 21.9507 17.6031Z" fill="url(#paint2_linear)"/>
<path style="mix-blend-mode:multiply" opacity="0.7" d="M21.9507 17.6031C18.9782 18.835 16.4964 20.5331 14.8714 22.58L10.6816 12.4667C12.5927 10.2475 15.0253 8.53742 17.761 7.48986C20.7334 6.25798 23.7364 5.66175 26.2878 6.00914L30.4785 16.1219C27.557 15.902 24.6266 16.411 21.9507 17.6031Z" fill="url(#paint3_linear)"/>
</g>
<path d="M23.3156 20.6863C20.0981 20.6863 17.1528 21.3076 14.8701 22.576V12.3504C17.4853 11.0314 20.3873 10.3821 23.3156 10.4607C26.5331 10.4607 29.5361 11.0569 31.7606 12.3528V22.5785C29.1459 21.2584 26.244 20.6082 23.3156 20.6863ZM39.752 20.6956L42.3552 12.4716C42.3825 12.3577 42.4799 12.2742 42.5968 12.2646H43.9033C44.0204 12.2811 44.1189 12.3606 44.1596 12.4716L46.186 17.6603C46.2254 17.7638 46.3289 17.7736 46.3635 17.6603L48.375 12.4716C48.4157 12.3606 48.5142 12.2811 48.6314 12.2646H49.9379C50.0547 12.2742 50.1521 12.3577 50.1795 12.4716L52.753 20.6956C52.783 20.759 52.7771 20.8334 52.7375 20.8912C52.6979 20.949 52.6307 20.9815 52.5608 20.9765H51.0077C50.8976 20.9815 50.7999 20.9067 50.776 20.7991L49.1244 15.4577C49.0997 15.3542 48.9814 15.3542 48.9469 15.4577L46.9748 20.7597C46.9412 20.8874 46.8258 20.9764 46.6938 20.9765H45.7817C45.6387 20.9765 45.5648 20.8977 45.5105 20.7597L43.499 15.4577C43.4595 15.3542 43.356 15.3542 43.3314 15.4577L41.6403 20.7991C41.614 20.9094 41.5118 20.9844 41.3987 20.9765H39.9196C39.853 20.9755 39.7916 20.94 39.7574 20.8828C39.7233 20.8256 39.7212 20.7548 39.752 20.6956ZM53.2461 17.7391C53.218 16.3381 54.0409 15.0593 55.328 14.5037C56.6151 13.948 58.1107 14.2258 59.1121 15.2066C60.1135 16.1874 60.4216 17.6763 59.8918 18.9737C59.3619 20.2711 58.0993 21.1191 56.6972 21.1194C55.7848 21.1505 54.8994 20.8067 54.2473 20.168C53.5952 19.5293 53.2334 18.6515 53.2461 17.7391ZM58.3735 17.7391C58.3117 16.8177 57.5233 16.1153 56.6003 16.1594C55.6774 16.2035 54.9596 16.9779 54.986 17.901C55.0124 18.8241 55.7733 19.5562 56.6972 19.5475C57.6568 19.5075 58.4026 18.6982 58.3636 17.7391H58.3735ZM63.1854 20.4443C63.0572 20.3409 62.9438 20.3803 62.9438 20.5577V20.7252C62.9439 20.8548 62.8417 20.9614 62.7121 20.9667H61.5091C61.3779 20.9616 61.2726 20.8564 61.2675 20.7252V12.5012C61.2726 12.37 61.3779 12.2648 61.5091 12.2597H62.7762C62.9058 12.265 63.008 12.3716 63.0079 12.5012V14.8467C63.0079 15.0142 63.1213 15.0635 63.3037 14.9354C63.789 14.5721 64.3786 14.375 64.9849 14.3736C66.7401 14.3736 68.0861 15.8519 68.0861 17.7539C68.1261 18.623 67.8139 19.4715 67.2201 20.1077C66.6263 20.7438 65.801 21.1139 64.9307 21.1342C64.2837 21.1273 63.6621 20.8816 63.1854 20.4443ZM66.3408 17.7539C66.3893 17.1193 66.078 16.5109 65.5347 16.1788C64.9915 15.8466 64.3079 15.8466 63.7646 16.1788C63.2214 16.5109 62.9101 17.1193 62.9586 17.7539C62.9413 18.2138 63.1097 18.6613 63.4259 18.9958C63.742 19.3303 64.1795 19.5238 64.6398 19.5327C65.1041 19.5225 65.545 19.3272 65.8644 18.9903C66.1838 18.6535 66.3553 18.203 66.3408 17.7391V17.7539ZM69.1461 12.8609C69.1461 12.3166 69.5875 11.8754 70.1321 11.8754C70.6767 11.8754 71.1182 12.3166 71.1182 12.8609C71.1182 13.4051 70.6767 13.8464 70.1321 13.8464C69.5875 13.8464 69.1461 13.4051 69.1461 12.8609ZM69.2348 20.7449V14.7826C69.2347 14.653 69.337 14.5464 69.4665 14.5412H70.7336C70.8003 14.5385 70.8653 14.5624 70.9143 14.6077C70.9633 14.653 70.9923 14.7159 70.9949 14.7826V20.7252C70.9898 20.8564 70.8846 20.9616 70.7533 20.9667H69.4665C69.337 20.9614 69.2347 20.8548 69.2348 20.7252V20.7449ZM72.4049 18.7936V12.5012C72.4048 12.3716 72.5071 12.265 72.6367 12.2597H73.9037C74.035 12.2648 74.1403 12.37 74.1453 12.5012V18.833C74.1453 19.242 74.3228 19.513 74.7715 19.513C74.8355 19.513 74.897 19.5385 74.9423 19.5838C74.9876 19.629 75.013 19.6904 75.013 19.7545V20.8041C75.0077 20.9335 74.9011 21.0358 74.7715 21.0356C73.0853 21.0356 72.4049 20.4838 72.4049 18.7936ZM75.4863 17.7785C75.4907 16.5885 76.13 15.4912 77.1634 14.9C78.1968 14.3087 79.4673 14.3134 80.4963 14.9123C81.5253 15.5111 82.1564 16.6131 82.152 17.8032C82.152 18.0348 82.0879 18.227 81.8562 18.227H77.4486C77.3352 18.227 77.2957 18.291 77.3056 18.3945C77.4151 19.1664 78.1055 19.7206 78.8833 19.6609C79.3513 19.6678 79.7979 19.4654 80.101 19.109C80.1951 18.9769 80.3481 18.8995 80.5102 18.902H81.6886C81.8956 18.902 81.9844 19.0449 81.9055 19.247C81.2143 20.6554 79.6434 21.4022 78.114 21.0494C76.5846 20.6967 75.5 19.3374 75.4962 17.7687L75.4863 17.7785ZM80.1651 17.1872C80.2539 17.1872 80.2933 17.1478 80.2785 17.0443C80.1442 16.3371 79.5196 15.8294 78.7995 15.842C78.0951 15.8413 77.4827 16.3248 77.3204 17.0098C77.2957 17.0985 77.3204 17.1872 77.4239 17.1872H80.1651ZM83.2169 20.7252V12.5012C83.2168 12.3716 83.3191 12.265 83.4487 12.2597H87.4865C89.3304 12.2597 90.5876 13.3339 90.5876 15.1423C90.5876 16.9507 89.1628 18.0643 87.3978 18.0643H85.2581C85.193 18.0576 85.1284 18.0812 85.0831 18.1284C85.0378 18.1756 85.0169 18.2411 85.0263 18.3058V20.7252C85.0213 20.8564 84.916 20.9616 84.7848 20.9667H83.4536C83.3221 20.964 83.2169 20.8567 83.2169 20.7252ZM87.3978 16.5762C88.1618 16.5521 88.7631 15.916 88.7437 15.1522C88.7547 14.7904 88.6161 14.4401 88.3605 14.1837C88.1049 13.9273 87.7549 13.7874 87.3928 13.7971H85.2383C85.0855 13.7971 85.0214 13.8759 85.0214 14.0287V16.3594C85.0214 16.5122 85.0855 16.591 85.2383 16.591L87.3978 16.5762ZM91.2088 17.7391C91.1756 16.8677 91.4934 16.0193 92.0911 15.3839C92.6888 14.7486 93.5165 14.3793 94.3888 14.3588C95.0184 14.3623 95.625 14.5953 96.0947 15.0142C96.2081 15.1177 96.3363 15.1029 96.3363 14.9501V14.7826C96.3363 14.6547 96.44 14.551 96.568 14.551H97.771C97.9023 14.5561 98.0075 14.6613 98.0126 14.7925V19.0203C98.0126 19.3406 98.126 19.4835 98.3478 19.513C98.4629 19.5153 98.5571 19.6052 98.5648 19.72V20.8336C98.5648 20.9534 98.4676 21.0504 98.3478 21.0504C97.4998 21.0504 97.0019 20.809 96.7208 20.3212C96.642 20.193 96.5532 20.1684 96.425 20.2965C95.8835 20.8537 95.1364 21.1638 94.3593 21.1539C93.485 21.1286 92.6578 20.752 92.0649 20.1093C91.472 19.4666 91.1634 18.6121 91.2088 17.7391ZM96.3363 17.7391C96.3847 17.1063 96.0744 16.4997 95.5327 16.1684C94.991 15.8372 94.3093 15.8372 93.7676 16.1684C93.2259 16.4997 92.9156 17.1063 92.964 17.7391C92.9156 18.372 93.2259 18.9786 93.7676 19.3098C94.3093 19.641 94.991 19.641 95.5327 19.3098C96.0744 18.9786 96.3847 18.372 96.3363 17.7391ZM99.1613 23.2235V22.1739C99.1666 22.0444 99.2732 21.9422 99.4029 21.9423C100.228 22.004 100.988 21.4958 101.247 20.7104C101.29 20.5456 101.273 20.3707 101.197 20.2177L98.8409 14.8861C98.8001 14.8136 98.8014 14.7248 98.8442 14.6535C98.887 14.5822 98.9647 14.5394 99.0479 14.5412H100.315C100.443 14.5412 100.522 14.6446 100.571 14.7727L102.05 18.1826C102.154 18.4536 102.322 18.4388 102.435 18.1826L103.845 14.7629C103.894 14.6348 103.958 14.5559 104.087 14.5559H105.304C105.38 14.552 105.453 14.5871 105.497 14.649C105.541 14.711 105.55 14.7911 105.521 14.8614L103.096 20.5971C102.213 22.6864 101.276 23.4649 99.4029 23.4649C99.2716 23.4599 99.1664 23.3547 99.1613 23.2235Z" fill="#5A78FF"/>
<defs>
<linearGradient id="paint0_linear" x1="18.83" y1="10.861" x2="18.1892" y2="3.38067" gradientUnits="userSpaceOnUse">
<stop stop-color="#504678"/>
<stop offset="0.302" stop-color="#504678" stop-opacity="0.616"/>
<stop offset="0.608" stop-color="#504678" stop-opacity="0.283"/>
<stop offset="0.852" stop-color="#504678" stop-opacity="0.076"/>
<stop offset="1" stop-color="#504678" stop-opacity="0"/>
</linearGradient>
<linearGradient id="paint1_linear" x1="21.107" y1="16.2572" x2="21.5089" y2="24.6387" gradientUnits="userSpaceOnUse">
<stop stop-color="#504678"/>
<stop offset="0.302" stop-color="#504678" stop-opacity="0.616"/>
<stop offset="0.608" stop-color="#504678" stop-opacity="0.283"/>
<stop offset="0.852" stop-color="#504678" stop-opacity="0.076"/>
<stop offset="1" stop-color="#504678" stop-opacity="0"/>
</linearGradient>
<linearGradient id="paint2_linear" x1="13.3942" y1="16.9694" x2="21.2423" y2="11.6163" gradientUnits="userSpaceOnUse">
<stop stop-color="#504678"/>
<stop offset="0.179" stop-color="#504678" stop-opacity="0.872"/>
<stop offset="0.526" stop-color="#504678" stop-opacity="0.536"/>
<stop offset="1" stop-color="#504678" stop-opacity="0"/>
</linearGradient>
<linearGradient id="paint3_linear" x1="20.1295" y1="11.7404" x2="19.7816" y2="8.95663" gradientUnits="userSpaceOnUse">
<stop stop-color="#504678"/>
<stop offset="0.643" stop-color="#504678" stop-opacity="0.332"/>
<stop offset="1" stop-color="#504678" stop-opacity="0"/>
</linearGradient>
</defs>
</svg>
