<svg width="60" height="24" viewBox="0 0 60 24" fill="none" xmlns="http://www.w3.org/2000/svg">
<g clip-path="url(#clip0_23279_44869)">
<path d="M6.78003 20.5012C6.16395 20.5013 5.60846 20.1305 5.37242 19.5618L0.117178 6.88218C-0.204339 6.10635 0.164231 5.21692 0.940439 4.89548L6.44477 2.61703C6.8175 2.46265 7.23633 2.46262 7.60908 2.61693C7.98183 2.77125 8.27796 3.06726 8.4323 3.43984L13.6875 16.1199C14.0085 16.8956 13.6401 17.7844 12.8643 18.1059L7.35994 20.3854C7.17614 20.4617 6.97907 20.5011 6.78003 20.5012ZM7.02703 3.31927C6.93479 3.31943 6.84348 3.33778 6.75836 3.37329L1.25376 5.65175C1.0817 5.72298 0.945 5.85962 0.873751 6.0316C0.802502 6.20358 0.80254 6.39681 0.873857 6.56876L6.1291 19.2491C6.27786 19.6069 6.68827 19.7769 7.04662 19.6291L12.551 17.3491C12.723 17.2778 12.8597 17.1412 12.931 16.9692C13.0022 16.7972 13.0022 16.604 12.9309 16.4321L7.67562 3.75299C7.56684 3.49083 7.311 3.31975 7.02703 3.31927Z" fill="#5A78FF"/>
<path style="mix-blend-mode:multiply" opacity="0.7" d="M8.7792 4.27534L8.02246 4.58862L10.1032 9.60922L10.8599 9.29594L8.7792 4.27534Z" fill="url(#paint0_linear_23279_44869)"/>
<path style="mix-blend-mode:multiply" opacity="0.7" d="M12.5812 15.5899L13.3379 15.2766L10.9826 9.59348L10.2258 9.90676L12.5812 15.5899Z" fill="url(#paint1_linear_23279_44869)"/>
<path d="M11.6253 11.8229C10.0511 12.4753 8.73669 13.3746 7.87609 14.4586L5.65723 9.10262C6.66935 7.92736 7.95763 7.02169 9.40642 6.46691C10.9806 5.81451 12.571 5.49875 13.9222 5.68272L16.1416 11.0384C14.5944 10.922 13.0425 11.1915 11.6253 11.8229Z" fill="#5A78FF"/>
<g style="mix-blend-mode:multiply" opacity="0.4">
<path style="mix-blend-mode:multiply" opacity="0.9" d="M11.6258 11.8221C10.0516 12.4746 8.73717 13.3738 7.87658 14.4579L5.65771 9.10189C6.66983 7.92663 7.95811 7.02096 9.40691 6.46618C10.9811 5.81378 12.5715 5.49801 13.9227 5.68199L16.1421 11.0377C14.5949 10.9212 13.0429 11.1908 11.6258 11.8221Z" fill="url(#paint2_linear_23279_44869)"/>
<path style="mix-blend-mode:multiply" opacity="0.7" d="M11.6258 11.8221C10.0516 12.4746 8.73717 13.3738 7.87658 14.4579L5.65771 9.10189C6.66983 7.92663 7.95811 7.02096 9.40691 6.46618C10.9811 5.81378 12.5715 5.49801 13.9227 5.68199L16.1421 11.0377C14.5949 10.9212 13.0429 11.1908 11.6258 11.8221Z" fill="url(#paint3_linear_23279_44869)"/>
</g>
<path d="M12.3482 13.4555C10.6442 13.4555 9.0844 13.7845 7.87549 14.4562V9.04078C9.2605 8.34225 10.7974 7.99837 12.3482 8.04C14.0522 8.04 15.6425 8.35576 16.8206 9.04209V14.4576C15.4359 13.7585 13.899 13.4141 12.3482 13.4555ZM21.0529 13.4604L22.4315 9.10498C22.446 9.04465 22.4976 9.00044 22.5595 8.99538H23.2514C23.3134 9.00407 23.3656 9.0462 23.3872 9.10498L24.4603 11.8529C24.4812 11.9077 24.536 11.9129 24.5543 11.8529L25.6196 9.10498C25.6411 9.0462 25.6933 9.00407 25.7554 8.99538H26.4473C26.5092 9.00044 26.5608 9.04465 26.5752 9.10498L27.9382 13.4604C27.9541 13.494 27.9509 13.5334 27.93 13.564C27.909 13.5946 27.8734 13.6118 27.8364 13.6092H27.0139C26.9556 13.6118 26.9038 13.5722 26.8912 13.5152L26.0165 10.6864C26.0034 10.6316 25.9408 10.6316 25.9225 10.6864L24.8781 13.4943C24.8603 13.5619 24.7992 13.6091 24.7292 13.6092H24.2462C24.1705 13.6092 24.1313 13.5674 24.1026 13.4943L23.0373 10.6864C23.0164 10.6316 22.9616 10.6316 22.9485 10.6864L22.0529 13.5152C22.039 13.5736 21.9849 13.6134 21.925 13.6092H21.1417C21.1064 13.6086 21.0738 13.5898 21.0558 13.5595C21.0377 13.5292 21.0366 13.4917 21.0529 13.4604ZM28.1993 11.8947C28.1844 11.1527 28.6202 10.4754 29.3019 10.1812C29.9836 9.88687 30.7756 10.034 31.3059 10.5534C31.8363 11.0729 31.9995 11.8614 31.7188 12.5485C31.4382 13.2356 30.7696 13.6847 30.027 13.6848C29.5438 13.7013 29.0749 13.5192 28.7296 13.181C28.3842 12.8427 28.1926 12.3779 28.1993 11.8947ZM30.9148 11.8947C30.882 11.4067 30.4645 11.0347 29.9757 11.058C29.4869 11.0814 29.1068 11.4915 29.1208 11.9804C29.1347 12.4692 29.5377 12.857 30.027 12.8524C30.5352 12.8312 30.9302 12.4026 30.9096 11.8947H30.9148ZM33.4632 13.3273C33.3953 13.2725 33.3352 13.2934 33.3352 13.3874V13.4761C33.3353 13.5447 33.2811 13.6011 33.2125 13.6039H32.5754C32.5059 13.6013 32.4501 13.5456 32.4475 13.4761V9.12064C32.4501 9.05115 32.5059 8.99544 32.5754 8.99277H33.2464C33.3151 8.99557 33.3692 9.05201 33.3692 9.12064V10.3628C33.3692 10.4515 33.4292 10.4776 33.5258 10.4098C33.7828 10.2174 34.0951 10.113 34.4162 10.1123C35.3457 10.1123 36.0585 10.8952 36.0585 11.9025C36.0797 12.3628 35.9144 12.8121 35.5999 13.149C35.2854 13.4859 34.8483 13.6819 34.3875 13.6927C34.0448 13.689 33.7156 13.5589 33.4632 13.3273ZM35.1342 11.9025C35.1599 11.5664 34.9951 11.2442 34.7074 11.0683C34.4197 10.8924 34.0576 10.8924 33.7699 11.0683C33.4822 11.2442 33.3173 11.5664 33.343 11.9025C33.3339 12.146 33.4231 12.383 33.5905 12.5602C33.7579 12.7374 33.9896 12.8398 34.2334 12.8446C34.4793 12.8391 34.7128 12.7357 34.8819 12.5573C35.0511 12.3789 35.1419 12.1403 35.1342 11.8947V11.9025ZM36.6199 9.31114C36.6199 9.02289 36.8537 8.78922 37.1421 8.78922C37.4305 8.78922 37.6643 9.02289 37.6643 9.31114C37.6643 9.59939 37.4305 9.83306 37.1421 9.83306C36.8537 9.83306 36.6199 9.59939 36.6199 9.31114ZM36.6669 13.4865V10.3289C36.6668 10.2603 36.721 10.2038 36.7896 10.201H37.4607C37.496 10.1996 37.5304 10.2123 37.5564 10.2363C37.5823 10.2603 37.5977 10.2936 37.599 10.3289V13.4761C37.5964 13.5456 37.5406 13.6013 37.4711 13.6039H36.7896C36.721 13.6011 36.6668 13.5447 36.6669 13.4761V13.4865ZM38.3458 12.4531V9.12064C38.3457 9.05201 38.3999 8.99557 38.4685 8.99277H39.1396C39.2091 8.99544 39.2648 9.05115 39.2675 9.12064V12.474C39.2675 12.6906 39.3615 12.8341 39.5991 12.8341C39.633 12.8341 39.6656 12.8476 39.6896 12.8716C39.7136 12.8955 39.727 12.9281 39.727 12.962V13.5178C39.7242 13.5864 39.6678 13.6405 39.5991 13.6405C38.7061 13.6405 38.3458 13.3482 38.3458 12.4531ZM39.9777 11.9155C39.98 11.2853 40.3186 10.7041 40.8659 10.391C41.4132 10.0779 42.086 10.0804 42.6309 10.3976C43.1759 10.7147 43.5102 11.2983 43.5078 11.9286C43.5078 12.0512 43.4739 12.153 43.3512 12.153H41.0169C40.9568 12.153 40.936 12.1869 40.9412 12.2417C40.9992 12.6505 41.3648 12.944 41.7767 12.9124C42.0246 12.9161 42.2611 12.8089 42.4216 12.6201C42.4714 12.5502 42.5525 12.5092 42.6383 12.5105H43.2624C43.3721 12.5105 43.4191 12.5862 43.3773 12.6932C43.0112 13.4391 42.1793 13.8346 41.3693 13.6478C40.5594 13.461 39.9849 12.7411 39.9829 11.9103L39.9777 11.9155ZM42.4556 11.6024C42.5026 11.6024 42.5235 11.5815 42.5156 11.5267C42.4445 11.1521 42.1137 10.8833 41.7323 10.89C41.3593 10.8896 41.035 11.1457 40.949 11.5084C40.936 11.5554 40.949 11.6024 41.0038 11.6024H42.4556ZM44.0718 13.4761V9.12064C44.0718 9.05201 44.1259 8.99557 44.1945 8.99277H46.333C47.3095 8.99277 47.9753 9.56166 47.9753 10.5194C47.9753 11.4771 47.2207 12.0669 46.286 12.0669H45.1528C45.1183 12.0633 45.0841 12.0758 45.0601 12.1008C45.0361 12.1258 45.025 12.1605 45.0301 12.1948V13.4761C45.0274 13.5456 44.9716 13.6013 44.9021 13.6039H44.1971C44.1275 13.6025 44.0718 13.5457 44.0718 13.4761ZM46.286 11.2788C46.6906 11.266 47.009 10.9291 46.9988 10.5246C47.0046 10.333 46.9312 10.1475 46.7958 10.0117C46.6604 9.8759 46.4751 9.80185 46.2834 9.80696H45.1423C45.0614 9.80696 45.0275 9.84872 45.0275 9.92962V11.164C45.0275 11.2449 45.0614 11.2866 45.1423 11.2866L46.286 11.2788ZM48.3043 11.8947C48.2867 11.4331 48.455 10.9838 48.7716 10.6473C49.0881 10.3109 49.5264 10.1153 49.9884 10.1045C50.3218 10.1063 50.6431 10.2297 50.8918 10.4515C50.9519 10.5063 51.0198 10.4985 51.0198 10.4176V10.3289C51.0198 10.2611 51.0747 10.2062 51.1425 10.2062H51.7796C51.8491 10.2089 51.9049 10.2646 51.9075 10.3341V12.5732C51.9075 12.7428 51.9676 12.8185 52.0851 12.8341C52.146 12.8353 52.1959 12.8829 52.2 12.9437V13.5335C52.2 13.5969 52.1485 13.6483 52.0851 13.6483C51.636 13.6483 51.3723 13.5204 51.2234 13.2621C51.1817 13.1942 51.1347 13.1812 51.0668 13.249C50.78 13.5441 50.3843 13.7083 49.9728 13.7031C49.5097 13.6897 49.0717 13.4902 48.7577 13.1499C48.4437 12.8095 48.2802 12.357 48.3043 11.8947ZM51.0198 11.8947C51.0454 11.5595 50.8811 11.2382 50.5942 11.0628C50.3073 10.8874 49.9463 10.8874 49.6594 11.0628C49.3725 11.2382 49.2082 11.5595 49.2338 11.8947C49.2082 12.2298 49.3725 12.5511 49.6594 12.7265C49.9463 12.9019 50.3073 12.9019 50.5942 12.7265C50.8811 12.5511 51.0454 12.2298 51.0198 11.8947ZM52.5159 14.7992V14.2433C52.5187 14.1747 52.5752 14.1206 52.6439 14.1207C53.0807 14.1533 53.4836 13.8842 53.6204 13.4682C53.6433 13.381 53.634 13.2883 53.5943 13.2073L52.3462 10.3837C52.3246 10.3453 52.3253 10.2983 52.348 10.2605C52.3706 10.2228 52.4118 10.2001 52.4559 10.201H53.1269C53.1948 10.201 53.2366 10.2558 53.2627 10.3237L54.046 12.1295C54.1008 12.273 54.1896 12.2652 54.2496 12.1295L54.9964 10.3184C55.0225 10.2506 55.0565 10.2088 55.1243 10.2088H55.7693C55.8095 10.2067 55.8479 10.2253 55.8713 10.2582C55.8945 10.291 55.8994 10.3334 55.8842 10.3706L54.5995 13.4082C54.1321 14.5147 53.636 14.927 52.6439 14.927C52.5743 14.9243 52.5186 14.8686 52.5159 14.7992Z" fill="#5A78FF"/>
</g>
<defs>
<linearGradient id="paint0_linear_23279_44869" x1="9.97272" y1="8.25168" x2="9.63335" y2="4.29012" gradientUnits="userSpaceOnUse">
<stop stop-color="#504678"/>
<stop offset="0.302" stop-color="#504678" stop-opacity="0.616"/>
<stop offset="0.608" stop-color="#504678" stop-opacity="0.283"/>
<stop offset="0.852" stop-color="#504678" stop-opacity="0.076"/>
<stop offset="1" stop-color="#504678" stop-opacity="0"/>
</linearGradient>
<linearGradient id="paint1_linear_23279_44869" x1="11.1789" y1="11.11" x2="11.3918" y2="15.5489" gradientUnits="userSpaceOnUse">
<stop stop-color="#504678"/>
<stop offset="0.302" stop-color="#504678" stop-opacity="0.616"/>
<stop offset="0.608" stop-color="#504678" stop-opacity="0.283"/>
<stop offset="0.852" stop-color="#504678" stop-opacity="0.076"/>
<stop offset="1" stop-color="#504678" stop-opacity="0"/>
</linearGradient>
<linearGradient id="paint2_linear_23279_44869" x1="7.09428" y1="11.4865" x2="11.2506" y2="8.65152" gradientUnits="userSpaceOnUse">
<stop stop-color="#504678"/>
<stop offset="0.179" stop-color="#504678" stop-opacity="0.872"/>
<stop offset="0.526" stop-color="#504678" stop-opacity="0.536"/>
<stop offset="1" stop-color="#504678" stop-opacity="0"/>
</linearGradient>
<linearGradient id="paint3_linear_23279_44869" x1="10.6613" y1="8.71727" x2="10.477" y2="7.24297" gradientUnits="userSpaceOnUse">
<stop stop-color="#504678"/>
<stop offset="0.643" stop-color="#504678" stop-opacity="0.332"/>
<stop offset="1" stop-color="#504678" stop-opacity="0"/>
</linearGradient>
<clipPath id="clip0_23279_44869">
<rect width="59.2353" height="19" fill="white" transform="translate(0 2.5)"/>
</clipPath>
</defs>
</svg>
