<svg width="55" height="24" viewBox="0 0 55 24" fill="none" xmlns="http://www.w3.org/2000/svg">
<path d="M24.1728 19.6781H20.2148L22.6904 4.37085H26.6482L24.1728 19.6781Z" fill="#00579F"/>
<path d="M38.5193 4.74519C37.7386 4.43547 36.5004 4.09351 34.9693 4.09351C31.0607 4.09351 28.3083 6.17778 28.2914 9.15767C28.2589 11.3562 30.262 12.5774 31.7602 13.3104C33.2915 14.0595 33.812 14.5484 33.812 15.2161C33.7964 16.2416 32.5747 16.7143 31.4351 16.7143C29.8549 16.7143 29.0082 16.4706 27.7215 15.9001L27.2003 15.6555L26.6465 19.0916C27.5748 19.5146 29.2851 19.8899 31.0607 19.9063C35.2137 19.9063 37.9174 17.8543 37.9494 14.6787C37.9652 12.9362 36.9075 11.601 34.6271 10.51C33.2428 9.80957 32.395 9.33731 32.395 8.62069C32.4113 7.96922 33.1121 7.30195 34.6747 7.30195C35.9614 7.26927 36.9068 7.57855 37.623 7.88806L37.981 8.0506L38.5193 4.74519Z" fill="#00579F"/>
<path d="M43.7818 14.2553C44.1078 13.3759 45.362 9.97242 45.362 9.97242C45.3456 10.0051 45.6873 9.07681 45.8828 8.50694L46.1594 9.8259C46.1594 9.8259 46.9089 13.4899 47.0716 14.2553C46.4531 14.2553 44.5636 14.2553 43.7818 14.2553ZM48.6674 4.37085H45.6059C44.6618 4.37085 43.9446 4.64745 43.5372 5.64089L37.6582 19.6778H41.8112C41.8112 19.6778 42.4949 17.7886 42.6419 17.3817C43.0974 17.3817 47.1374 17.3817 47.7235 17.3817C47.8372 17.9191 48.1958 19.6778 48.1958 19.6778H51.8605L48.6674 4.37085Z" fill="#00579F"/>
<path d="M16.9086 4.37085L13.0324 14.8089L12.6089 12.6919C11.8922 10.2492 9.64478 7.59531 7.13672 6.2757L10.6871 19.6618H14.8726L21.0938 4.37085H16.9086Z" fill="#00579F"/>
<path d="M9.43312 4.37085H3.06515L3 4.68014C7.96742 5.9504 11.2572 9.01231 12.6089 12.6926L11.2246 5.65756C10.9967 4.67992 10.2963 4.4031 9.43312 4.37085Z" fill="#FAA61A"/>
</svg>
