<svg width="50" height="45" viewBox="0 0 50 45" fill="none" xmlns="http://www.w3.org/2000/svg">
<path d="M23.4546 20.4106V6.34194C23.4546 4.30058 22.0739 2.39831 20.0632 2.05876C17.5084 1.62922 15.2727 3.61331 15.2727 6.0924V31.1206L9.36343 28.8849C7.32616 28.1137 4.99844 28.799 3.77935 30.5233C2.39048 32.4951 2.90594 35.1542 4.94321 36.5328L17.3182 42.8881L35.7109 42.9106C42.4977 42.9187 48 37.4206 48 30.6378V10.1833C48 7.70421 45.7643 5.72012 43.2096 6.14967C41.1989 6.48921 39.8182 8.39149 39.8182 10.4328V20.4106" stroke="#49556A" stroke-width="4" stroke-linecap="round" stroke-linejoin="round"/>
<path fill-rule="evenodd" clip-rule="evenodd" d="M27.5455 28.5921V28.5921C25.2955 28.5921 23.4546 26.7511 23.4546 24.5011V20.4102C23.4546 18.1602 25.2955 16.3193 27.5455 16.3193C29.7955 16.3193 31.6364 18.1602 31.6364 20.4102V24.5011C31.6364 26.7511 29.7955 28.5921 27.5455 28.5921Z" stroke="#49556A" stroke-width="4" stroke-linecap="round" stroke-linejoin="round"/>
<path fill-rule="evenodd" clip-rule="evenodd" d="M35.7273 28.5921V28.5921C33.4773 28.5921 31.6364 26.7511 31.6364 24.5011V20.4102C31.6364 18.1602 33.4773 16.3193 35.7273 16.3193C37.9773 16.3193 39.8182 18.1602 39.8182 20.4102V24.5011C39.8182 26.7511 37.9773 28.5921 35.7273 28.5921Z" stroke="#49556A" stroke-width="4" stroke-linecap="round" stroke-linejoin="round"/>
</svg>
